<?xml version="1.0" encoding="UTF-8"?>
<svg width="24px" height="26px" viewBox="0 0 24 26" version="1.1" xmlns="http://www.w3.org/2000/svg" xmlns:xlink="http://www.w3.org/1999/xlink">
    <!-- Generator: Sketch 42 (36781) - http://www.bohemiancoding.com/sketch -->
    <title>icon_attachment</title>
    <desc>Created with Sketch.</desc>
    <defs></defs>
    <g id="Symbols" stroke="none" stroke-width="1" fill="none" fill-rule="evenodd">
        <g id="menu_form" transform="translate(-22.000000, -262.000000)" fill="#333F4D">
            <g id="icon/attachment" transform="translate(22.000000, 262.555556)">
                <path d="M12,25 C5.372583,25 -3.63797881e-12,19.4035594 -3.63797881e-12,12.5 C-3.63797881e-12,5.59644063 5.372583,0 12,0 C18.627417,0 24,5.59644063 24,12.5 C24,19.4035594 18.627417,25 12,25 Z M19.0416667,17.6240699 C19.0416667,16.6670132 18.7063526,15.8461922 18.0357143,15.1615823 L12.191131,9.0734747 C11.7820416,8.63336834 11.2824236,8.41331845 10.6922619,8.41331845 C10.1423385,8.41331845 9.67625191,8.6124112 9.2939881,9.01060268 C8.91172428,9.40879415 8.72059524,9.89430104 8.72059524,10.4671379 C8.72059524,11.0818896 8.93184313,11.6023251 9.35434524,12.0284598 L13.47875,16.3247148 C13.5458138,16.3945729 13.6195829,16.4295015 13.7000595,16.4295015 C13.8073616,16.4295015 13.9649593,16.321223 14.1728571,16.1046627 C14.380755,15.8881024 14.4847024,15.7239382 14.4847024,15.6121652 C14.4847024,15.5283354 14.451171,15.4514926 14.3841071,15.3816344 L10.2597024,11.0853795 C10.0920428,10.8967624 10.0082143,10.690684 10.0082143,10.4671379 C10.0082143,10.2645493 10.071924,10.0968922 10.1993452,9.96416171 C10.3267665,9.83143121 10.4877173,9.76506696 10.6822024,9.76506696 C10.9102194,9.76506696 11.1114079,9.84889549 11.2857738,10.0165551 L17.1303571,16.1046627 C17.5528593,16.5447691 17.7641071,17.0512331 17.7641071,17.6240699 C17.7641071,18.0711621 17.6232752,18.4414048 17.3416071,18.734809 C17.0599391,19.0282133 16.7045061,19.1749132 16.2752976,19.1749132 C15.7253742,19.1749132 15.2391688,18.9548633 14.8166667,18.5147569 L7.01047619,10.3728299 C6.5007911,9.84190789 6.24595238,9.20970109 6.24595238,8.47619048 C6.24595238,7.73569405 6.49073168,7.10348724 6.98029762,6.57955109 C7.46986356,6.05561494 8.07007581,5.79365079 8.78095238,5.79365079 C9.46500342,5.79365079 10.071922,6.06260065 10.6017262,6.60050843 L16.6977976,12.9610615 C16.7648614,13.0309197 16.8419837,13.0658482 16.9291667,13.0658482 C17.0364688,13.0658482 17.1923899,12.9593161 17.3969345,12.7462488 C17.6014792,12.5331814 17.70375,12.3707636 17.70375,12.2589906 C17.70375,12.1751608 17.6702186,12.098318 17.6031548,12.0284598 L11.5171429,5.67838542 C10.7459088,4.88898828 9.83050133,4.49429563 8.77089286,4.49429563 C7.704578,4.49429563 6.80258305,4.88200257 6.06488095,5.65742808 C5.32717885,6.43285358 4.95833333,7.37592451 4.95833333,8.48666915 C4.95833333,9.57645634 5.33723827,10.5230201 6.09505952,11.3263889 L13.9113095,19.4578373 C14.5819478,20.1564188 15.3699359,20.5057044 16.2752976,20.5057044 C17.0599444,20.5057044 17.71716,20.2297688 18.2469643,19.6778894 C18.7767685,19.12601 19.0416667,18.4414103 19.0416667,17.6240699 Z" id="Combined-Shape"></path>
            </g>
        </g>
    </g>
</svg>