<?xml version="1.0" encoding="UTF-8"?>
<svg width="26px" height="23px" viewBox="0 0 26 23" version="1.1" xmlns="http://www.w3.org/2000/svg" xmlns:xlink="http://www.w3.org/1999/xlink">
    <!-- Generator: Sketch 42 (36781) - http://www.bohemiancoding.com/sketch -->
    <title>icon_sns</title>
    <desc>Created with Sketch.</desc>
    <defs></defs>
    <g id="Symbols" stroke="none" stroke-width="1" fill="none" fill-rule="evenodd">
        <g id="menu_page" transform="translate(-20.000000, -380.000000)" fill-rule="nonzero" fill="#333F4D">
            <g id="icon_sns" transform="translate(20.000000, 378.333333)">
                <path d="M9.75,2 C4.368,2 0,5.69875 0,10.25 C0,12.84875 1.404,15.145 3.614,16.6575 L2.6,19.875 L5.85,17.8125 C7.007,18.23875 8.281,18.5 9.633,18.5 C9.295,17.63375 9.1,16.7125 9.1,15.75 C9.1,11.19875 13.169,7.5 18.2,7.5 C18.447,7.5 18.694,7.5 18.928,7.54125 C17.602,4.32375 14.014,2 9.75,2 L9.75,2 Z M5.85,5.4375 C6.56797017,5.4375 7.15,6.05310847 7.15,6.8125 C7.15,7.57189153 6.56797017,8.1875 5.85,8.1875 C5.13202983,8.1875 4.55,7.57189153 4.55,6.8125 C4.55,6.05310847 5.13202983,5.4375 5.85,5.4375 L5.85,5.4375 Z M12.35,5.4375 C13.0679702,5.4375 13.65,6.05310847 13.65,6.8125 C13.65,7.57189153 13.0679702,8.1875 12.35,8.1875 C11.6320298,8.1875 11.05,7.57189153 11.05,6.8125 C11.05,6.05310847 11.6320298,5.4375 12.35,5.4375 L12.35,5.4375 Z M18.2,8.875 C13.897,8.875 10.4,11.955 10.4,15.75 C10.4,19.545 13.897,22.625 18.2,22.625 C19.071,22.625 19.903,22.515 20.683,22.28125 L23.4,24 L22.594,21.42875 C24.635,20.1775 26,18.10125 26,15.75 C26,11.955 22.503,8.875 18.2,8.875 L18.2,8.875 Z M15.6,12.3125 C16.3179702,12.3125 16.9,12.9281085 16.9,13.6875 C16.9,14.4468915 16.3179702,15.0625 15.6,15.0625 C14.8820298,15.0625 14.3,14.4468915 14.3,13.6875 C14.3,12.9281085 14.8820298,12.3125 15.6,12.3125 L15.6,12.3125 Z M20.8,12.3125 C21.5179702,12.3125 22.1,12.9281085 22.1,13.6875 C22.1,14.4468915 21.5179702,15.0625 20.8,15.0625 C20.0820298,15.0625 19.5,14.4468915 19.5,13.6875 C19.5,12.9281085 20.0820298,12.3125 20.8,12.3125 Z" id="Shape"></path>
            </g>
        </g>
    </g>
</svg>