<?xml version="1.0" encoding="UTF-8"?>
<svg width="24px" height="24px" viewBox="0 0 24 24" version="1.1" xmlns="http://www.w3.org/2000/svg" xmlns:xlink="http://www.w3.org/1999/xlink">
    <!-- Generator: Sketch 42 (36781) - http://www.bohemiancoding.com/sketch -->
    <title>icon_gif</title>
    <desc>Created with Sketch.</desc>
    <defs>
        <rect id="path-1" x="0" y="7" width="24" height="11.0244374" rx="1"></rect>
        <mask id="mask-2" maskContentUnits="userSpaceOnUse" maskUnits="objectBoundingBox" x="0" y="0" width="24" height="11.0244374" fill="white">
            <use xlink:href="#path-1"></use>
        </mask>
    </defs>
    <g id="Symbols" stroke="none" stroke-width="1" fill="none" fill-rule="evenodd">
        <g id="icon_gif">
            <path d="M4,21.1696425 C4,21.7195468 4.44463086,22.1653323 5.00087166,22.1653323 L18.9991283,22.1653323 C19.5518945,22.1653323 20,21.7230045 20,21.169645 L20,6.24821109 L16.1847056,2.08695652 L4.9971256,2.08695652 C4.44642834,2.08695652 4,2.54404634 4,3.0826463 L4,21.1696425 Z M2,1.00069463 C2,0.448026248 2.44892021,0 3.00748397,0 L17,0 L22,5.10144928 L22,22.9972751 C22,23.5510648 21.5446944,24 21.0081969,24 L2.99180311,24 C2.44404538,24 2,23.5525308 2,22.9993054 L2,1.00069463 Z" id="Rectangle" fill="#333F4D" fill-rule="nonzero"></path>
            <use id="Rectangle-2" stroke="#333F4D" mask="url(#mask-2)" stroke-width="2" fill="#333F4D" xlink:href="#path-1"></use>
            <path d="M5.62130978,14.2643535 C5.62130978,14.6877593 5.8302119,14.899459 6.2480224,14.899459 L7.25884921,14.899459 C7.67216713,14.899459 7.87882299,14.6877593 7.87882299,14.2643535 L7.87882299,13.0999932 L6.36258278,13.0999932 L6.36258278,11.7466135 L9.15920361,11.7466135 L9.15920361,14.2643535 C9.15920361,15.590017 8.52575848,16.2528388 7.25884921,16.2528388 L6.2480224,16.2528388 C4.97662055,16.2528388 4.34092916,15.590017 4.34092916,14.2643535 L4.34092916,10.5822533 C4.34092916,9.25658976 4.97662055,8.59376795 6.2480224,8.59376795 L9.15920361,8.59376795 L9.15920361,9.94714769 L6.2480224,9.94714769 C5.8302119,9.94714769 5.62130978,10.1588474 5.62130978,10.5822533 L5.62130978,14.2643535 Z M12.892897,8.59376795 L12.892897,16.2528388 L11.6125164,16.2528388 L11.6125164,8.59376795 L12.892897,8.59376795 Z M19.6590708,11.7466135 L19.6590708,13.0999932 L16.6265904,13.0999932 L16.6265904,16.2528388 L15.3462098,16.2528388 L15.3462098,8.59376795 L19.6590708,8.59376795 L19.6590708,9.94714769 L16.6265904,9.94714769 L16.6265904,11.7466135 L19.6590708,11.7466135 Z" id="gif" fill="#FFFFFF"></path>
        </g>
    </g>
</svg>