<?xml version="1.0" encoding="UTF-8"?>
<svg width="24px" height="24px" viewBox="0 0 24 24" version="1.1" xmlns="http://www.w3.org/2000/svg" xmlns:xlink="http://www.w3.org/1999/xlink">
    <!-- Generator: Sketch 42 (36781) - http://www.bohemiancoding.com/sketch -->
    <title>icon_link</title>
    <desc>Created with Sketch.</desc>
    <defs></defs>
    <g id="Symbols" stroke="none" stroke-width="1" fill="none" fill-rule="evenodd">
        <g id="icon_link" fill-rule="nonzero" fill="#333F4D">
            <path d="M10.8981607,14.1018393 C11.3639437,14.5449013 11.3639437,15.2719773 10.8981607,15.7150392 C10.4550987,16.1581012 9.72802272,16.1581012 9.28496078,15.7150392 C7.06965107,13.4997295 7.06965107,9.89843116 9.28496078,7.68312145 L9.28496078,7.68312145 L13.3065999,3.66148228 C15.5219097,1.44617257 19.123208,1.44617257 21.3385177,3.66148228 C23.5538274,5.87679199 23.5538274,9.47809034 21.3385177,11.6934001 L19.6457939,13.3861239 C19.6571544,12.4545577 19.5094671,11.5229916 19.1913714,10.6368677 L19.7253178,10.0915607 C21.0658642,8.7623749 21.0658642,6.603868 19.7253178,5.27468217 C18.396132,3.93413579 16.2376251,3.93413579 14.9084393,5.27468217 L10.8981607,9.28496078 C9.55761428,10.6141466 9.55761428,12.7726535 10.8981607,14.1018393 L10.8981607,14.1018393 Z M14.1018393,9.28496078 C14.5449013,8.84189884 15.2719773,8.84189884 15.7150392,9.28496078 C17.9303489,11.5002705 17.9303489,15.1015688 15.7150392,17.3168786 L15.7150392,17.3168786 L11.6934001,21.3385177 C9.47809034,23.5538274 5.87679199,23.5538274 3.66148228,21.3385177 C1.44617257,19.123208 1.44617257,15.5219097 3.66148228,13.3065999 L5.35420611,11.6138761 C5.34284555,12.5454423 5.49053286,13.4770084 5.80862862,14.3744928 L5.27468217,14.9084393 C3.93413579,16.2376251 3.93413579,18.396132 5.27468217,19.7253178 C6.603868,21.0658642 8.7623749,21.0658642 10.0915607,19.7253178 L14.1018393,15.7150392 C15.4423857,14.3858534 15.4423857,12.2273465 14.1018393,10.8981607 C13.6360563,10.4550987 13.6360563,9.72802272 14.1018393,9.28496078 Z" id="Shape"></path>
        </g>
    </g>
</svg>