<?xml version="1.0" encoding="UTF-8"?>
<svg width="24px" height="24px" viewBox="0 0 24 24" version="1.1" xmlns="http://www.w3.org/2000/svg" xmlns:xlink="http://www.w3.org/1999/xlink">
    <!-- Generator: Sketch 42 (36781) - http://www.bohemiancoding.com/sketch -->
    <title>icon_video</title>
    <desc>Created with Sketch.</desc>
    <defs></defs>
    <g id="Symbols" stroke="none" stroke-width="1" fill="none" fill-rule="evenodd">
        <g id="icon_video" fill-rule="nonzero" fill="#333F4D">
            <path d="M9.8,17.0625 L9.8,6.9375 L16.4,12 L9.8,17.0625 Z M20.8,3.45 C20.14,3.225 16.07,3 12,3 C7.93,3 3.86,3.21375 3.2,3.4275 C1.484,4.0125 1,7.95 1,12 C1,16.03875 1.484,19.9875 3.2,20.56125 C3.86,20.78625 7.93,21 12,21 C16.07,21 20.14,20.78625 20.8,20.56125 C22.516,19.9875 23,16.03875 23,12 C23,7.95 22.516,4.02375 20.8,3.45 Z" id="Shape"></path>
        </g>
    </g>
</svg>