<?xml version="1.0" encoding="UTF-8"?>
<svg width="24px" height="24px" viewBox="0 0 24 24" version="1.1" xmlns="http://www.w3.org/2000/svg" xmlns:xlink="http://www.w3.org/1999/xlink">
    <!-- Generator: Sketch 42 (36781) - http://www.bohemiancoding.com/sketch -->
    <title>icon_edit</title>
    <desc>Created with Sketch.</desc>
    <defs></defs>
    <g id="Symbols" stroke="none" stroke-width="1" fill="none" fill-rule="evenodd">
        <g id="icon_edit" fill="#FFFFFF">
            <path d="M7.59405941,17.7326733 L8.4950495,16.8316832 L6.16831683,14.5049505 L5.26732673,15.4059406 L5.26732673,16.4653465 L6.53465347,16.4653465 L6.53465347,17.7326733 L7.59405941,17.7326733 Z M12.7722772,8.54455446 C12.7722772,8.39933921 12.6996707,8.32673267 12.5544554,8.32673267 C12.4884485,8.32673267 12.4323435,8.34983475 12.3861386,8.3960396 L7.01980198,13.7623762 C6.97359713,13.8085811 6.95049505,13.8646861 6.95049505,13.9306931 C6.95049505,14.0759083 7.02310158,14.1485149 7.16831683,14.1485149 C7.23432376,14.1485149 7.29042881,14.1254128 7.33663366,14.0792079 L12.7029703,8.71287129 C12.7491751,8.66666644 12.7722772,8.61056139 12.7722772,8.54455446 Z M12.2376238,6.64356436 L16.3564356,10.7623762 L8.11881188,19 L4,19 L4,14.8811881 L12.2376238,6.64356436 Z M19,7.59405941 C19,7.94389614 18.877889,8.24092287 18.6336634,8.48514851 L16.990099,10.1287129 L12.8712871,6.00990099 L14.5148515,4.37623762 C14.7524764,4.12541129 15.0495032,4 15.4059406,4 C15.7557773,4 16.0561044,4.12541129 16.3069307,4.37623762 L18.6336634,6.69306931 C18.877889,6.95049634 19,7.25082337 19,7.59405941 Z" id="pencil---fontawesome"></path>
        </g>
    </g>
</svg>