<?xml version="1.0" encoding="UTF-8"?>
<svg width="24px" height="24px" viewBox="0 0 24 24" version="1.1" xmlns="http://www.w3.org/2000/svg" xmlns:xlink="http://www.w3.org/1999/xlink">
    <!-- Generator: Sketch 42 (36781) - http://www.bohemiancoding.com/sketch -->
    <title>icon_pdf</title>
    <desc>Created with Sketch.</desc>
    <defs></defs>
    <g id="Symbols" stroke="none" stroke-width="1" fill="none" fill-rule="evenodd">
        <g id="icon_pdf" fill-rule="nonzero" fill="#333F4D">
            <path d="M13.6875,8.7 L20.21875,8.7 L13.6875,2.65 L13.6875,8.7 L13.6875,8.7 Z M5.375,1 L14.875,1 L22,7.6 L22,20.8 C22,22.0150264 20.9366763,23 19.625,23 L5.375,23 C4.056875,23 3,22.01 3,20.8 L3,3.2 C3,1.98497355 4.06332372,1 5.375,1 L5.375,1 Z M11.229375,12.484 C11.71625,13.474 12.33375,14.288 13.04625,14.849 L13.533125,15.201 C12.5,15.377 11.075,15.685 9.566875,16.224 L9.566875,16.224 L9.43625,16.268 L10.03,15.124 C10.564375,14.167 10.95625,13.298 11.229375,12.484 L11.229375,12.484 Z M18.924375,16.675 C19.138125,16.477 19.245,16.224 19.256875,15.949 C19.2925,15.729 19.233125,15.52 19.114375,15.344 C18.77,14.827 17.879375,14.585 16.406875,14.585 L14.875,14.662 L13.841875,14.024 C13.09375,13.452 12.416875,12.451 11.941875,11.208 L11.989375,11.054 C12.38125,9.591 12.749375,7.82 11.965625,7.094 C11.775625,6.918 11.514375,6.83 11.24125,6.83 L10.95625,6.83 C10.516875,6.83 10.125,7.259 10.018125,7.677 C9.57875,9.14 9.84,9.943 10.279375,11.274 L10.279375,11.285 C9.9825,12.253 9.6025,13.375 8.996875,14.508 L7.856875,16.488 L6.8,17.027 C5.375,17.852 4.698125,18.776 4.5675,19.359 C4.52,19.568 4.54375,19.755 4.626875,19.953 L4.6625,20.008 L5.2325,20.349 L5.755,20.47 C6.716875,20.47 7.809375,19.425 9.281875,17.093 L9.495625,17.016 C10.71875,16.653 12.23875,16.4 14.28125,16.191 C15.504375,16.752 16.94125,17.005 17.84375,17.005 C18.36625,17.005 18.7225,16.884 18.924375,16.675 L18.924375,16.675 Z M18.4375,15.894 L18.544375,16.015 C18.5325,16.125 18.496875,16.136 18.4375,16.158 L18.39,16.158 L18.164375,16.18 C17.618125,16.18 16.775,15.971 15.908125,15.619 C16.015,15.509 16.0625,15.509 16.18125,15.509 C17.84375,15.509 18.31875,15.784 18.4375,15.894 L18.4375,15.894 Z M7.548125,17.5 C6.77625,18.809 6.075625,19.535 5.54125,19.7 C5.600625,19.282 6.135,18.556 6.978125,17.841 L7.548125,17.5 L7.548125,17.5 Z M11.134375,9.899 C10.86125,8.909 10.849375,8.106 11.05125,7.644 L11.134375,7.512 L11.3125,7.567 C11.514375,7.831 11.538125,8.183 11.419375,8.777 L11.38375,8.953 L11.19375,9.855 L11.134375,9.899 Z" id="Shape"></path>
        </g>
    </g>
</svg>