<?xml version="1.0" encoding="UTF-8"?>
<svg width="20px" height="22px" viewBox="0 0 20 22" version="1.1" xmlns="http://www.w3.org/2000/svg" xmlns:xlink="http://www.w3.org/1999/xlink">
    <!-- Generator: Sketch 42 (36781) - http://www.bohemiancoding.com/sketch -->
    <title>icon_blue_delete</title>
    <desc>Created with Sketch.</desc>
    <defs></defs>
    <g id="draft" stroke="none" stroke-width="1" fill="none" fill-rule="evenodd">
        <g id="Form01" transform="translate(-1252.000000, -325.000000)" fill="#A5C4CE">
            <g id="Group-6" transform="translate(1061.000000, 323.500000)">
                <g id="icon/blue/delete" transform="translate(189.000000, 0.311432)">
                    <path d="M9.42857143,9.85714286 L9.42857143,17.5714286 C9.42857143,17.6964292 9.38839326,17.7991067 9.30803571,17.8794643 C9.22767817,17.9598218 9.12500062,18 9,18 L8.14285714,18 C8.01785652,18 7.91517897,17.9598218 7.83482143,17.8794643 C7.75446388,17.7991067 7.71428571,17.6964292 7.71428571,17.5714286 L7.71428571,9.85714286 C7.71428571,9.73214223 7.75446388,9.62946469 7.83482143,9.54910714 C7.91517897,9.4687496 8.01785652,9.42857143 8.14285714,9.42857143 L9,9.42857143 C9.12500062,9.42857143 9.22767817,9.4687496 9.30803571,9.54910714 C9.38839326,9.62946469 9.42857143,9.73214223 9.42857143,9.85714286 Z M12.8571429,9.85714286 L12.8571429,17.5714286 C12.8571429,17.6964292 12.8169647,17.7991067 12.7366071,17.8794643 C12.6562496,17.9598218 12.5535721,18 12.4285714,18 L11.5714286,18 C11.4464279,18 11.3437504,17.9598218 11.2633929,17.8794643 C11.1830353,17.7991067 11.1428571,17.6964292 11.1428571,17.5714286 L11.1428571,9.85714286 C11.1428571,9.73214223 11.1830353,9.62946469 11.2633929,9.54910714 C11.3437504,9.4687496 11.4464279,9.42857143 11.5714286,9.42857143 L12.4285714,9.42857143 C12.5535721,9.42857143 12.6562496,9.4687496 12.7366071,9.54910714 C12.8169647,9.62946469 12.8571429,9.73214223 12.8571429,9.85714286 Z M16.2857143,9.85714286 L16.2857143,17.5714286 C16.2857143,17.6964292 16.2455361,17.7991067 16.1651786,17.8794643 C16.084821,17.9598218 15.9821435,18 15.8571429,18 L15,18 C14.8749994,18 14.7723218,17.9598218 14.6919643,17.8794643 C14.6116067,17.7991067 14.5714286,17.6964292 14.5714286,17.5714286 L14.5714286,9.85714286 C14.5714286,9.73214223 14.6116067,9.62946469 14.6919643,9.54910714 C14.7723218,9.4687496 14.8749994,9.42857143 15,9.42857143 L15.8571429,9.42857143 C15.9821435,9.42857143 16.084821,9.4687496 16.1651786,9.54910714 C16.2455361,9.62946469 16.2857143,9.73214223 16.2857143,9.85714286 Z M18,19.5535714 L18,6.85714286 L6,6.85714286 L6,19.5535714 C6,19.750001 6.03124969,19.9308027 6.09375,20.0959821 C6.15625031,20.2611615 6.22098181,20.381696 6.28794643,20.4575893 C6.35491105,20.5334825 6.40178558,20.5714286 6.42857143,20.5714286 L17.5714286,20.5714286 C17.5982144,20.5714286 17.645089,20.5334825 17.7120536,20.4575893 C17.7790182,20.381696 17.8437497,20.2611615 17.90625,20.0959821 C17.9687503,19.9308027 18,19.750001 18,19.5535714 Z M9,5.14285714 L15,5.14285714 L14.3571429,3.57589286 C14.2946425,3.49553531 14.2187504,3.44642866 14.1294643,3.42857143 L9.88392857,3.42857143 C9.79464241,3.44642866 9.71875031,3.49553531 9.65625,3.57589286 L9,5.14285714 Z M21.4285714,5.57142857 L21.4285714,6.42857143 C21.4285714,6.55357205 21.3883933,6.6562496 21.3080357,6.73660714 C21.2276782,6.81696469 21.1250006,6.85714286 21,6.85714286 L19.7142857,6.85714286 L19.7142857,19.5535714 C19.7142857,20.2946466 19.5044664,20.9352652 19.0848214,21.4754464 C18.6651765,22.0156277 18.1607172,22.2857143 17.5714286,22.2857143 L6.42857143,22.2857143 C5.83928277,22.2857143 5.33482353,22.0245562 4.91517857,21.5022321 C4.49553362,20.9799081 4.28571429,20.348218 4.28571429,19.6071429 L4.28571429,6.85714286 L3,6.85714286 C2.87499937,6.85714286 2.77232183,6.81696469 2.69196429,6.73660714 C2.61160674,6.6562496 2.57142857,6.55357205 2.57142857,6.42857143 L2.57142857,5.57142857 C2.57142857,5.44642795 2.61160674,5.3437504 2.69196429,5.26339286 C2.77232183,5.18303531 2.87499937,5.14285714 3,5.14285714 L7.13839286,5.14285714 L8.07589286,2.90625 C8.2098221,2.57589121 8.45089112,2.29464402 8.79910714,2.0625 C9.14732317,1.83035598 9.49999821,1.71428571 9.85714286,1.71428571 L14.1428571,1.71428571 C14.5000018,1.71428571 14.8526768,1.83035598 15.2008929,2.0625 C15.5491089,2.29464402 15.7901779,2.57589121 15.9241071,2.90625 L16.8616071,5.14285714 L21,5.14285714 C21.1250006,5.14285714 21.2276782,5.18303531 21.3080357,5.26339286 C21.3883933,5.3437504 21.4285714,5.44642795 21.4285714,5.57142857 Z" id="trash-o---fontawesome"></path>
                </g>
            </g>
        </g>
    </g>
</svg>