<?xml version="1.0" encoding="UTF-8"?>
<svg width="50px" height="50px" viewBox="0 0 50 50" version="1.1" xmlns="http://www.w3.org/2000/svg" xmlns:xlink="http://www.w3.org/1999/xlink">
    <!-- Generator: Sketch 42 (36781) - http://www.bohemiancoding.com/sketch -->
    <title>img_shortlink01</title>
    <desc>Created with Sketch.</desc>
    <defs></defs>
    <g id="Symbols" stroke="none" stroke-width="1" fill="none" fill-rule="evenodd">
        <g id="img_shortlink01">
            <g id="Group-3" transform="translate(0.000000, 7.000000)">
                <g id="Group-4" transform="translate(25.519294, 18.137545) rotate(-49.000000) translate(-25.519294, -18.137545) translate(18.019294, -0.362455)" fill="#FFFFFF">
                    <path d="M-3.47277762e-13,3.00342162 C-3.47277762e-13,1.34467766 1.34767083,-3.07309733e-13 3.00301083,-3.07309733e-13 L11.3220913,-3.07309733e-13 C12.9806084,-3.07309733e-13 14.3251021,1.3400324 14.3251021,3.00342162 L14.3251021,13.3715469 C14.3251021,15.0302909 12.9774313,16.3749686 11.3220913,16.3749686 L3.00301083,16.3749686 C1.34449375,16.3749686 -3.47277762e-13,15.0349362 -3.47277762e-13,13.3715469 L-3.47277762e-13,3.00342162 Z M2.32782773,4.18245059 L2.32782773,11.7368343 C2.32782773,12.8486277 3.22483199,13.7359613 4.33134281,13.7359613 L9.99375678,13.7359613 C11.1049257,13.7359613 11.9972719,12.8409216 11.9972719,11.7368343 L11.9972719,4.18245059 C11.9972719,3.0706571 11.1002676,2.18332359 9.99375678,2.18332359 L4.33134281,2.18332359 C3.22017389,2.18332359 2.32782773,3.07836324 2.32782773,4.18245059 Z" id="Combined-Shape"></path>
                    <path d="M2.55795385e-13,23.0172721 C2.55795385e-13,21.3585281 1.34767083,20.0138505 3.00301083,20.0138505 L11.3220913,20.0138505 C12.9806084,20.0138505 14.3251021,21.3538829 14.3251021,23.0172721 L14.3251021,33.3853974 C14.3251021,35.0441414 12.9774313,36.388819 11.3220913,36.388819 L3.00301083,36.388819 C1.34449375,36.388819 2.55795385e-13,35.0487866 2.55795385e-13,33.3853974 L2.55795385e-13,23.0172721 Z M2.32782773,24.1963011 L2.32782773,31.7506847 C2.32782773,32.8624782 3.22483199,33.7498117 4.33134281,33.7498117 L9.99375678,33.7498117 C11.1049257,33.7498117 11.9972719,32.8547721 11.9972719,31.7506847 L11.9972719,24.1963011 C11.9972719,23.0845076 11.1002676,22.1971741 9.99375678,22.1971741 L4.33134281,22.1971741 C3.22017389,22.1971741 2.32782773,23.0922137 2.32782773,24.1963011 Z" id="Combined-Shape"></path>
                    <rect id="Rectangle-5" x="5.73004223" y="10.9166457" width="2.68595665" height="12.7360867" rx="1.34297833"></rect>
                </g>
                <polygon id="Triangle" fill="#404041" transform="translate(45.491062, 18.366658) scale(-1, 1) rotate(90.000000) translate(-45.491062, -18.366658) " points="45.4910619 14 51.9821238 22.7333166 39 22.7333166"></polygon>
                <polygon id="Triangle" fill="#404041" transform="translate(4.374841, 20.013850) rotate(90.000000) translate(-4.374841, -20.013850) " points="4.37484072 15.6471922 10.8659026 24.3805087 -2.11622119 24.3805087"></polygon>
            </g>
        </g>
    </g>
</svg>