<?xml version="1.0" encoding="UTF-8"?>
<svg width="50px" height="50px" viewBox="0 0 50 50" version="1.1" xmlns="http://www.w3.org/2000/svg" xmlns:xlink="http://www.w3.org/1999/xlink">
    <!-- Generator: Sketch 42 (36781) - http://www.bohemiancoding.com/sketch -->
    <title>img_shortlink02</title>
    <desc>Created with Sketch.</desc>
    <defs></defs>
    <g id="Symbols" stroke="none" stroke-width="1" fill="none" fill-rule="evenodd">
        <g id="img_shortlink02">
            <g id="Group-2" transform="translate(3.000000, 3.000000)">
                <g id="Group">
                    <g id="Group-3">
                        <path d="M24.2380727,0 L43.6285309,0 L43.6285309,19.437371 L24.2380727,19.437371 L24.2380727,0 Z M26.9826776,2.76460789 L40.705702,2.76460789 L40.705702,16.5876474 L26.9826776,16.5876474 L26.9826776,2.76460789 Z M31.0853116,7.10680548 L36.538878,7.10680548 L36.538878,12.5735661 L31.0853116,12.5735661 L31.0853116,7.10680548 Z" id="Combined-Shape" fill="#FFFFFF"></path>
                        <path d="M0,0 L19.3904581,0 L19.3904581,19.437371 L0,19.437371 L0,0 Z M2.74460488,2.76460789 L16.4676293,2.76460789 L16.4676293,16.5876474 L2.74460488,16.5876474 L2.74460488,2.76460789 Z M7.08965291,7.10680548 L12.5432193,7.10680548 L12.5432193,12.5735661 L7.08965291,12.5735661 L7.08965291,7.10680548 Z" id="Combined-Shape" fill="#FFFFFF"></path>
                        <rect id="Rectangle-5-Copy" fill="#54C4B5" x="30.7644641" y="31.5132831" width="5.63011944" height="5.61165032"></rect>
                        <rect id="Rectangle-5-Copy" fill="#54C4B5" x="37.6446335" y="38.4261435" width="5.63011944" height="5.61165032"></rect>
                        <rect id="Rectangle-5-Copy-5" fill="#54C4B5" x="37.6446335" y="24.6004228" width="5.63011944" height="5.61165032"></rect>
                        <rect id="Rectangle-5-Copy-4" fill="#54C4B5" x="23.8842948" y="38.4261435" width="5.63011944" height="5.61165032"></rect>
                        <rect id="Rectangle-5-Copy-6" fill="#54C4B5" x="23.8842948" y="24.6004228" width="5.63011944" height="5.61165032"></rect>
                        <path d="M0,24.2967138 L19.3904581,24.2967138 L19.3904581,43.7340849 L0,43.7340849 L0,24.2967138 Z M2.74460488,27.0613217 L16.4676293,27.0613217 L16.4676293,40.8843612 L2.74460488,40.8843612 L2.74460488,27.0613217 Z M7.08965291,31.1605188 L12.5432193,31.1605188 L12.5432193,36.6272794 L7.08965291,36.6272794 L7.08965291,31.1605188 Z" id="Combined-Shape" fill="#FFFFFF"></path>
                    </g>
                </g>
            </g>
        </g>
    </g>
</svg>