<?xml version="1.0" encoding="UTF-8"?>
<svg width="22px" height="19px" viewBox="0 0 22 19" version="1.1" xmlns="http://www.w3.org/2000/svg" xmlns:xlink="http://www.w3.org/1999/xlink">
    <!-- Generator: Sketch 42 (36781) - http://www.bohemiancoding.com/sketch -->
    <title>launch/icon_team</title>
    <desc>Created with Sketch.</desc>
    <defs>
        <path d="M7.90680804,12.5203553 C6.82198118,12.5538376 5.93471327,12.9824047 5.24497768,13.8060695 L3.89899554,13.8060695 C3.34988565,13.8060695 2.8878367,13.6704682 2.51283482,13.3992615 C2.13783295,13.1280548 1.95033482,12.7312954 1.95033482,12.2089713 C1.95033482,9.84512022 2.36550924,8.66321239 3.19587054,8.66321239 C3.23604931,8.66321239 3.38169517,8.73352419 3.6328125,8.87414989 C3.88392983,9.0147756 4.21037746,9.15707328 4.61216518,9.30104722 C5.0139529,9.44502115 5.41238642,9.51700704 5.80747768,9.51700704 C6.25614064,9.51700704 6.70144868,9.43999888 7.14341518,9.28598025 C7.10993287,9.53374935 7.09319196,9.75472928 7.09319196,9.94892668 C7.09319196,10.8797349 7.36439461,11.7368692 7.90680804,12.5203553 Z M16.3892589,20.6745302 L7.61024106,20.6745302 C6.99974998,20.6745302 4.96347766,19.6745302 4.96347766,18.0333472 C4.96347766,17.694954 5.03378981,17.3302242 5.10410266,16.9384811 C5.17441551,16.5467381 5.26314231,16.1834605 5.3702857,15.8486374 C5.47742909,15.5138143 5.62140087,15.1873667 5.80220534,14.8692847 C5.98300982,14.5512028 6.19059703,14.2800001 6.4249732,14.0556686 C6.65934937,13.8313372 6.94561883,13.6522095 7.28379016,13.5182802 C7.6219615,13.384351 7.99528366,13.3173874 8.40376784,13.3173874 C8.47073246,13.3173874 8.61470424,13.3893733 8.83568748,13.5333472 C9.05667073,13.6773211 9.30108793,13.8380338 9.56894641,14.0154901 C9.83680489,14.1929463 10.1950602,14.353659 10.6437232,14.4976329 C11.0923862,14.6416069 11.5443906,14.7135927 11.99975,14.7135927 C12.4551094,14.7135927 12.9071138,14.6416069 13.3557768,14.4976329 C13.8044397,14.353659 14.1626951,14.1929463 14.4305536,14.0154901 C14.698412,13.8380338 14.9428292,13.6773211 15.1638125,13.5333472 C15.3847957,13.3893733 15.5287675,13.3173874 15.5957321,13.3173874 C16.0042163,13.3173874 16.3775385,13.384351 16.7157098,13.5182802 C17.0538811,13.6522095 17.3401506,13.8313372 17.5745268,14.0556686 C17.8089029,14.2800001 18.0164902,14.5512028 18.1972946,14.8692847 C18.3780991,15.1873667 18.5220709,15.5138143 18.6292143,15.8486374 C18.7363577,16.1834605 18.8250845,16.5467381 18.8953973,16.9384811 C18.9657102,17.3302242 19.0435007,17.6949766 19.0360223,18.0333472 C18.99975,19.6745302 16.99975,20.6745302 16.3892589,20.6745302 Z M8.32664034,5.89689833 C8.32664034,6.6067233 8.07552678,7.21274403 7.57329212,7.71497868 C7.07105747,8.21721334 6.46503674,8.4683269 5.75521177,8.4683269 C5.04538679,8.4683269 4.43936606,8.21721334 3.93713141,7.71497868 C3.43489676,7.21274403 3.18378319,6.6067233 3.18378319,5.89689833 C3.18378319,5.18707335 3.43489676,4.58105262 3.93713141,4.07881797 C4.43936606,3.57658332 5.04538679,3.32546976 5.75521177,3.32546976 C6.46503674,3.32546976 7.07105747,3.57658332 7.57329212,4.07881797 C8.07552678,4.58105262 8.32664034,5.18707335 8.32664034,5.89689833 Z M15.5,10.038166 C15.5,11.0043166 15.1582065,11.8291782 14.4746094,12.5127753 C13.7910122,13.1963725 12.9661507,13.538166 12,13.538166 C11.0338493,13.538166 10.2089878,13.1963725 9.52539062,12.5127753 C8.84179346,11.8291782 8.5,11.0043166 8.5,10.038166 C8.5,9.07201531 8.84179346,8.24715377 9.52539062,7.5635566 C10.2089878,6.87995943 11.0338493,6.53816597 12,6.53816597 C12.9661507,6.53816597 13.7910122,6.87995943 14.4746094,7.5635566 C15.1582065,8.24715377 15.5,9.07201531 15.5,10.038166 Z M22.0496652,12.2089713 C22.0496652,12.7312954 21.8621671,13.1280548 21.4871652,13.3992615 C21.1121633,13.6704682 20.6501144,13.8060695 20.1010045,13.8060695 L18.7550223,13.8060695 C18.0652867,12.9824047 17.1780188,12.5538376 16.093192,12.5203553 C16.6356054,11.7368692 16.906808,10.8797349 16.906808,9.94892668 C16.906808,9.75472928 16.8900671,9.53374935 16.8565848,9.28598025 C17.2985513,9.43999888 17.7438594,9.51700704 18.1925223,9.51700704 C18.5876136,9.51700704 18.9860471,9.44502115 19.3878348,9.30104722 C19.7896225,9.15707328 20.1160702,9.0147756 20.3671875,8.87414989 C20.6183048,8.73352419 20.7639507,8.66321239 20.8041295,8.66321239 C21.6344908,8.66321239 22.0496652,9.84512022 22.0496652,12.2089713 Z M20.6428571,5.89689833 C20.6428571,6.6067233 20.3917436,7.21274403 19.8895089,7.71497868 C19.3872743,8.21721334 18.7812535,8.4683269 18.0714286,8.4683269 C17.3616036,8.4683269 16.7555829,8.21721334 16.2533482,7.71497868 C15.7511136,7.21274403 15.5,6.6067233 15.5,5.89689833 C15.5,5.18707335 15.7511136,4.58105262 16.2533482,4.07881797 C16.7555829,3.57658332 17.3616036,3.32546976 18.0714286,3.32546976 C18.7812535,3.32546976 19.3872743,3.57658332 19.8895089,4.07881797 C20.3917436,4.58105262 20.6428571,5.18707335 20.6428571,5.89689833 Z" id="path-1"></path>
    </defs>
    <g id="launch-頁面" stroke="none" stroke-width="1" fill="none" fill-rule="evenodd">
        <g id="account_panel" transform="translate(-23.000000, -620.000000)">
            <g id="icon/team" transform="translate(22.000000, 617.500000)">
                <mask id="mask-2" fill="white">
                    <use xlink:href="#path-1"></use>
                </mask>
                <g id="Mask"></g>
                <g id="color/gray-light" mask="url(#mask-2)" fill-rule="evenodd" fill="#CCCCCC">
                    <g transform="translate(-0.000000, 0.000000)" id="Rectangle-20">
                        <rect x="0" y="0" width="24" height="24"></rect>
                    </g>
                </g>
            </g>
        </g>
    </g>
</svg>