<?xml version="1.0" encoding="UTF-8"?>
<svg width="24px" height="19px" viewBox="0 0 24 19" version="1.1" xmlns="http://www.w3.org/2000/svg" xmlns:xlink="http://www.w3.org/1999/xlink">
    <!-- Generator: Sketch 42 (36781) - http://www.bohemiancoding.com/sketch -->
    <title>launch/icon_draw</title>
    <desc>Created with Sketch.</desc>
    <defs>
        <path d="M8.90916918,11.779663 L11.106908,15.4139505 C11.5591823,15.2723864 12.0402926,15.1960905 12.5392312,15.1960905 C13.3707159,15.1960905 14.1526871,15.407983 14.8341977,15.7807284 L16.9729093,12.0751037 C15.6623869,11.4177063 14.183052,11.0477222 12.6174148,11.0477222 C11.3044133,11.0477222 10.0521093,11.3079365 8.90916918,11.779663 Z M4.74986225,15.0523782 C3.71369633,16.473039 3.05222331,18.1849625 2.91098824,20.0424967 L7.74729099,20.0424967 L7.74729099,19.9911532 C7.74729099,19.0078731 8.04308743,18.0936476 8.55053037,17.3327791 L4.74986225,15.0523782 Z M21.2232906,16.2333097 L16.6320758,17.495968 C17.075614,18.2229029 17.3311714,19.0771977 17.3311714,19.9911532 L17.3311714,20.0424967 L22.3238413,20.0424967 C22.2198185,18.6743811 21.8335847,17.3852542 21.2232906,16.2333097 Z M12.3868024,9.55004399 C12.1633457,9.13478567 11.8671231,8.5682133 11.5000447,7.83250327 C10.2318943,5.2908366 11.9246877,4.45750327 12.8947499,4.45750327 C13.8648121,4.45750327 15.8629169,5.2908366 14.4710144,7.83250327 C14.1845687,8.35556394 13.7731666,9.03913434 13.4424854,9.5775833 C19.262212,10.000372 23.8522444,14.8600583 23.8522444,20.7924967 L23.8522444,21.5424967 L1.38258522,21.5424967 L1.38258522,20.7924967 C1.38258522,14.6594571 6.28828332,9.67294481 12.3868024,9.55004399 Z M21.6174148,11.5 L24.6174148,10.5 L23.6174148,13.5 L21.6174148,13.5 L21.6174148,11.5 Z M15.8311714,19.9911532 C15.8311714,18.1713403 14.3573196,16.6960905 12.5392312,16.6960905 C10.7211428,16.6960905 9.24729099,18.1713403 9.24729099,19.9911532 L15.8311714,19.9911532 Z M12.9787687,7.1481302 C13.5030402,7.1481302 13.9279441,6.72282328 13.9279441,6.19830645 C13.9279441,5.67378962 13.5030402,5.2484827 12.9787687,5.2484827 C12.4544972,5.2484827 12.0295934,5.67378962 12.0295934,6.19830645 C12.0295934,6.72282328 12.4544972,7.1481302 12.9787687,7.1481302 Z" id="path-1"></path>
    </defs>
    <g id="launch-頁面" stroke="none" stroke-width="1" fill="none" fill-rule="evenodd">
        <g id="account_panel-copy" transform="translate(-33.000000, -161.000000)">
            <g id="launch/icon_draw" transform="translate(32.000000, 157.494734)">
                <mask id="mask-2" fill="white">
                    <use xlink:href="#path-1"></use>
                </mask>
                <use id="Mask" fill="#FFFFFF" fill-rule="evenodd" xlink:href="#path-1"></use>
            </g>
        </g>
    </g>
</svg>