<?xml version="1.0" encoding="UTF-8"?>
<svg width="53px" height="50px" viewBox="0 0 53 50" version="1.1" xmlns="http://www.w3.org/2000/svg" xmlns:xlink="http://www.w3.org/1999/xlink">
    <!-- Generator: Sketch 42 (36781) - http://www.bohemiancoding.com/sketch -->
    <title>launch/icon_shortlink_lg</title>
    <desc>Created with Sketch.</desc>
    <defs>
        <path d="M45.728252,44.6907952 C45.8002529,44.4020153 45.7603813,44.1313561 45.608636,43.8788095 L43.9177682,41.0647329 C43.7660229,40.8121863 43.5457635,40.6499149 43.2569836,40.577914 C42.9537647,40.5023131 42.6650667,40.5530234 42.390881,40.7300467 C42.4071394,40.7571053 42.4590737,40.8409846 42.5466853,40.9816872 C42.6342969,41.1223898 42.6925554,41.2193482 42.7214625,41.2725653 C42.7503696,41.3257824 42.7874151,41.4078666 42.8326,41.5188203 C42.8777849,41.629774 42.901761,41.7335212 42.904529,41.830065 C42.9072969,41.9266088 42.8951809,42.0290254 42.8681806,42.1373179 C42.7961796,42.4260978 42.6339083,42.6463571 42.3813617,42.7981024 C42.1288151,42.9498477 41.8581559,42.9897193 41.569376,42.9177184 C41.4610835,42.8907181 41.3649669,42.8533342 41.2810232,42.8055656 C41.1970796,42.7577971 41.1167323,42.6879211 41.0399791,42.5959356 C40.9632258,42.5039501 40.9081416,42.4327047 40.8747247,42.3821973 C40.8413078,42.3316899 40.7830494,42.2347315 40.6999475,42.0913192 C40.6168457,41.9479068 40.5671663,41.8626727 40.5509078,41.8356141 C40.2568637,42.0000178 40.0720439,42.2338256 39.9964429,42.5370445 C39.924442,42.8258245 39.9643136,43.0964837 40.1160589,43.3490303 L41.7879683,46.1468777 C41.9342942,46.3904047 42.1554535,46.5490664 42.4514529,46.6228673 C42.7402329,46.6948682 43.0090921,46.662216 43.2580386,46.5249097 L45.2441331,45.3407506 C45.4966797,45.1890053 45.6580511,44.9723557 45.728252,44.6907952 Z M40.0188439,35.158099 C40.0908449,34.8693191 40.0509733,34.5986599 39.899228,34.3461133 L38.2273185,31.5482659 C38.0755732,31.2957193 37.8553139,31.133448 37.5665339,31.0614471 C37.2849735,30.9912462 37.0152143,31.0275081 36.7572482,31.1702338 L34.7711537,32.354393 C34.5186071,32.5061383 34.3572358,32.7227879 34.2870349,33.0043483 C34.215034,33.2931283 34.2549056,33.5637875 34.4066509,33.8163341 L36.0975187,36.6304107 C36.2438445,36.8739378 36.4650038,37.0325994 36.7610033,37.1064003 C37.0642222,37.1820013 37.3520202,37.1349006 37.6244058,36.9650969 C37.6081474,36.9380383 37.5562132,36.854159 37.4686016,36.7134564 C37.3809899,36.5727538 37.3227315,36.4757954 37.2938244,36.4225783 C37.2649172,36.3693612 37.2278718,36.287277 37.1826869,36.1763233 C37.1375019,36.0653696 37.1135258,35.9616224 37.1107579,35.8650786 C37.1079899,35.7685348 37.1201059,35.6661182 37.1471063,35.5578257 C37.2191072,35.2690458 37.3813785,35.0487864 37.6339251,34.8970411 C37.8864717,34.7452958 38.1571309,34.7054242 38.4459109,34.7774252 C38.5542034,34.8044255 38.65032,34.8418094 38.7342636,34.8895779 C38.8182073,34.9373465 38.8985545,35.0072224 38.9753078,35.099208 C39.052061,35.1911935 39.1071453,35.2624389 39.1405621,35.3129463 C39.173979,35.3634537 39.2322375,35.4604121 39.3153393,35.6038244 C39.3984412,35.7472367 39.4481206,35.8324709 39.464379,35.8595295 C39.7584232,35.6951258 39.943243,35.461318 40.0188439,35.158099 Z M41.027972,59.8068182 L45.8251748,59.8068182 L45.8251748,64.4326923 L41.027972,64.4326923 L41.027972,59.8068182 Z M47.8074571,45.2091993 C47.5914543,46.0755391 47.1019306,46.7318074 46.3388714,47.1780238 L44.3527768,48.3621829 C43.6041566,48.8119993 42.7966886,48.9289044 41.9303488,48.7129016 C41.0567895,48.4950988 40.3969116,48.0046752 39.9506952,47.2416159 L38.2787857,44.4437685 C37.8289693,43.6951482 37.7120642,42.8876803 37.928067,42.0213405 C38.1494698,41.1333422 38.6552226,40.4581158 39.4453404,39.9956409 L38.7299733,38.8050701 C37.9506944,39.2855839 37.120678,39.4160375 36.2398992,39.1964347 C35.3735594,38.9804319 34.7127814,38.4936179 34.2575455,37.7359781 L32.5666777,34.9219015 C32.1114418,34.1642617 31.991827,33.3522841 32.2078298,32.4859443 C32.4238325,31.6196045 32.9133562,30.9633362 33.6764155,30.5171198 L35.66251,29.3329607 C36.4111303,28.8831442 37.2185982,28.7662392 38.084938,28.9822419 C38.9584973,29.2000447 39.6183753,29.6904684 40.0645917,30.4535277 L41.7365011,33.2513751 C42.1863176,33.9999953 42.3032226,34.8074633 42.0872199,35.6738031 C41.865817,36.5618014 41.3600643,37.2370278 40.5699464,37.6995026 L41.2853136,38.8900735 C42.0645925,38.4095596 42.8946089,38.2791061 43.7753877,38.4987089 C44.6417275,38.7147117 45.3025054,39.2015257 45.7577413,39.9591655 L47.4486092,42.7732421 C47.9038451,43.5308819 48.0234599,44.3428595 47.8074571,45.2091993 Z M47,39.4638943 L53.2851924,34.75 L53.2851924,44.1777886 L47,39.4638943 Z M34.7275641,39.6410256 L28.4455128,44.3525641 L28.4455128,34.9294872 L34.7275641,39.6410256 Z M50.3653846,16.375 L64.243007,16.375 L64.243007,30.2526224 L50.3653846,30.2526224 L50.3653846,16.375 Z M53.4493007,19.4589161 L53.4493007,27.1687063 L61.1590909,27.1687063 L61.1590909,19.4589161 L53.4493007,19.4589161 Z M54.9912587,21.0008741 L59.6171329,21.0008741 L59.6171329,25.6267483 L54.9912587,25.6267483 L54.9912587,21.0008741 Z M15.5,16.375 L29.3776224,16.375 L29.3776224,30.2526224 L15.5,30.2526224 L15.5,16.375 Z M18.5839161,19.4589161 L18.5839161,27.1687063 L26.2937063,27.1687063 L26.2937063,19.4589161 L18.5839161,19.4589161 Z M20.1258741,21.0008741 L24.7517483,21.0008741 L24.7517483,25.6267483 L20.1258741,25.6267483 L20.1258741,21.0008741 Z M15.5,50.2980769 L29.3776224,50.2980769 L29.3776224,64.1756993 L15.5,64.1756993 L15.5,50.2980769 Z M18.5839161,53.381993 L18.5839161,61.0917832 L26.2937063,61.0917832 L26.2937063,53.381993 L18.5839161,53.381993 Z M20.1258741,54.923951 L24.7517483,54.923951 L24.7517483,59.5498252 L20.1258741,59.5498252 L20.1258741,54.923951 Z M45.8251748,55.1809441 L50.451049,55.1809441 L50.451049,59.8068182 L45.8251748,59.8068182 L45.8251748,55.1809441 Z M36.4020979,55.1809441 L41.027972,55.1809441 L41.027972,59.8068182 L36.4020979,59.8068182 L36.4020979,55.1809441 Z M31.7762238,59.8068182 L36.4020979,59.8068182 L36.4020979,64.4326923 L31.7762238,64.4326923 L31.7762238,59.8068182 Z M59.8741259,41.902972 L64.5,41.902972 L64.5,46.5288462 L59.8741259,46.5288462 L59.8741259,41.902972 Z M59.8741259,33.5882677 L64.5,33.5882677 L64.5,38.2141419 L59.8741259,38.2141419 L59.8741259,33.5882677 Z M15.5856643,41.902972 L20.2115385,41.902972 L20.2115385,46.5288462 L15.5856643,46.5288462 L15.5856643,41.902972 Z M15.5856643,33.5882677 L20.2115385,33.5882677 L20.2115385,38.2141419 L15.5856643,38.2141419 L15.5856643,33.5882677 Z M41.9702797,16.6267293 L46.5961538,16.6267293 L46.5961538,21.2526034 L41.9702797,21.2526034 L41.9702797,16.6267293 Z M47.2513862,47.7734391 L47.2323385,47.7953511 L47.2308216,47.8035705 L47.2472204,47.7980975 L47.2500767,47.7811904 L47.2424296,47.7837426 L47.2228933,47.8062165 L46.2986537,48.1146746 C46.2144011,47.862227 46.2249528,47.6358189 46.2974778,47.4398155 C46.3396577,47.3258217 46.4027999,47.2221123 46.4813885,47.1323699 C46.5605485,47.0419748 46.6553803,46.9657507 46.7602466,46.9074609 C47.010081,46.768591 47.3168698,46.7315148 47.6043841,46.8471245 L65.2070397,50.0956197 C65.9682122,50.2360908 66.2880745,51.1509086 65.7802681,51.7350731 L62.1044765,55.9635876 L67.3772171,60.5471111 C67.7940317,60.9094424 67.8381991,61.5410651 67.4758677,61.9578797 L64.0844841,65.8592201 C63.7221527,66.2760347 63.0905301,66.3202021 62.6737155,65.9578707 L57.4009749,61.3743472 L53.7251834,65.6028617 C53.2173769,66.1870262 52.2669459,65.9975947 52.0219071,65.2633798 L46.3552099,48.2841351 C46.2007109,48.0155086 46.1947296,47.7065455 46.2974778,47.4398155 C46.3406057,47.3278574 46.4028901,47.2233401 46.4813885,47.1323699 C46.5593201,47.0420565 46.6532325,46.9650952 46.7602466,46.9074609 C46.944249,46.8083633 47.1669852,46.7664044 47.4138197,46.8119567 L47.2513862,47.7734391 Z M33.6608392,16.6267293 L38.2867133,16.6267293 L38.2867133,21.2526034 L33.6608392,21.2526034 L33.6608392,16.6267293 Z M53.3646521,62.9690994 L56.5476148,59.3075196 C56.9099462,58.890705 57.5415688,58.8465376 57.9583834,59.208869 L63.231124,63.7923925 L65.3103895,61.4004712 L60.0376489,56.8169477 C59.6208343,56.4546163 59.576667,55.8229937 59.9389984,55.4061791 L63.1219611,51.7445993 L48.7322871,49.0890462 L53.3646521,62.9690994 Z" id="path-1"></path>
    </defs>
    <g id="launch-頁面" stroke="none" stroke-width="1" fill="none" fill-rule="evenodd">
        <g id="Launch" transform="translate(-541.000000, -553.000000)">
            <g id="icon_shortlink" transform="translate(526.000000, 536.687293)">
                <rect id="Rectangle" fill-opacity="0" fill="#000000" fill-rule="evenodd" x="0" y="0" width="80" height="80"></rect>
                <mask id="mask-2" fill="white">
                    <use xlink:href="#path-1"></use>
                </mask>
                <use id="Combined-Shape" fill="#606060" fill-rule="evenodd" xlink:href="#path-1"></use>
                <g id="color/navy2" mask="url(#mask-2)" fill-rule="evenodd" fill="#38434F">
                    <rect id="Rectangle-19" x="0" y="0" width="80" height="80"></rect>
                </g>
            </g>
        </g>
    </g>
</svg>