<?xml version="1.0" encoding="UTF-8"?>
<svg width="22px" height="22px" viewBox="0 0 22 22" version="1.1" xmlns="http://www.w3.org/2000/svg" xmlns:xlink="http://www.w3.org/1999/xlink">
    <!-- Generator: Sketch 42 (36781) - http://www.bohemiancoding.com/sketch -->
    <title>launch/icon_edit</title>
    <desc>Created with Sketch.</desc>
    <defs>
        <path d="M6.71651786,20.4308036 L7.93526786,19.2120536 L4.78794643,16.0647321 L3.56919643,17.2834821 L3.56919643,18.7165179 L5.28348214,18.7165179 L5.28348214,20.4308036 L6.71651786,20.4308036 Z M13.7209821,8.00223214 C13.7209821,7.80580259 13.6227688,7.70758929 13.4263393,7.70758929 C13.3370531,7.70758929 13.261161,7.73883897 13.1986607,7.80133929 L5.93973214,15.0602679 C5.87723183,15.1227682 5.84598214,15.1986603 5.84598214,15.2879464 C5.84598214,15.484376 5.94419545,15.5825893 6.140625,15.5825893 C6.22991116,15.5825893 6.30580326,15.5513396 6.36830357,15.4888393 L13.6272321,8.22991071 C13.6897325,8.1674104 13.7209821,8.0915183 13.7209821,8.00223214 Z M12.9977679,5.43080357 L18.5691964,11.0022321 L7.42633929,22.1450893 L1.85491071,22.1450893 L1.85491071,16.5736607 L12.9977679,5.43080357 Z M22.1450893,6.71651786 C22.1450893,7.18973451 21.9799124,7.59151621 21.6495536,7.921875 L19.4263393,10.1450893 L13.8549107,4.57366071 L16.078125,2.36383929 C16.3995552,2.02455188 16.8013369,1.85491071 17.2834821,1.85491071 C17.7566988,1.85491071 18.1629447,2.02455188 18.5022321,2.36383929 L21.6495536,5.49776786 C21.9799124,5.84598388 22.1450893,6.25222982 22.1450893,6.71651786 Z" id="path-1"></path>
    </defs>
    <g id="launch-頁面" stroke="none" stroke-width="1" fill="none" fill-rule="evenodd">
        <g id="Launch" transform="translate(-829.000000, -102.000000)">
            <g id="icon_edit_launch" transform="translate(828.000000, 101.000000)">
                <mask id="mask-2" fill="white">
                    <use xlink:href="#path-1"></use>
                </mask>
                <use id="Mask" fill="#00A6C8" fill-rule="evenodd" xlink:href="#path-1"></use>
                <g id="color/green-dark" mask="url(#mask-2)" fill-rule="evenodd" fill="#00B69C">
                    <rect id="Rectangle-20" x="0" y="0" width="24" height="24"></rect>
                </g>
            </g>
        </g>
    </g>
</svg>