<?xml version="1.0" encoding="UTF-8"?>
<svg width="22px" height="15px" viewBox="0 0 22 15" version="1.1" xmlns="http://www.w3.org/2000/svg" xmlns:xlink="http://www.w3.org/1999/xlink">
    <!-- Generator: Sketch 42 (36781) - http://www.bohemiancoding.com/sketch -->
    <title>launch/icon_pay</title>
    <desc>Created with Sketch.</desc>
    <defs>
        <path d="M1.71428571,17.4285714 L1.71428571,12 L22.2857143,12 L22.2857143,17.4285714 C22.2857143,17.8214305 22.1458347,18.1577367 21.8660714,18.4375 C21.5863081,18.7172633 21.250002,18.8571429 20.8571429,18.8571429 L3.14285714,18.8571429 C2.74999804,18.8571429 2.41369187,18.7172633 2.13392857,18.4375 C1.85416527,18.1577367 1.71428571,17.8214305 1.71428571,17.4285714 Z M7.42857143,15.4285714 L7.42857143,16.5714286 L10.8571429,16.5714286 L10.8571429,15.4285714 L7.42857143,15.4285714 Z M4,15.4285714 L4,16.5714286 L6.28571429,16.5714286 L6.28571429,15.4285714 L4,15.4285714 Z M20.8571429,5.14285714 C21.250002,5.14285714 21.5863081,5.2827367 21.8660714,5.5625 C22.1458347,5.8422633 22.2857143,6.17856946 22.2857143,6.57142857 L22.2857143,8.57142857 L1.71428571,8.57142857 L1.71428571,6.57142857 C1.71428571,6.17856946 1.85416527,5.8422633 2.13392857,5.5625 C2.41369187,5.2827367 2.74999804,5.14285714 3.14285714,5.14285714 L20.8571429,5.14285714 Z" id="path-1"></path>
    </defs>
    <g id="launch-頁面" stroke="none" stroke-width="1" fill="none" fill-rule="evenodd">
        <g id="account_panel" transform="translate(-23.000000, -576.000000)">
            <g id="icon/pay" transform="translate(22.000000, 571.750000)">
                <mask id="mask-2" fill="white">
                    <use xlink:href="#path-1"></use>
                </mask>
                <g id="Mask"></g>
                <g id="color/gray-light" mask="url(#mask-2)" fill-rule="evenodd" fill="#CCCCCC">
                    <g transform="translate(0.000000, 0.000000)" id="Rectangle-20">
                        <rect x="0" y="0" width="24" height="24"></rect>
                    </g>
                </g>
            </g>
        </g>
    </g>
</svg>