<?xml version="1.0" encoding="UTF-8"?>
<svg width="20px" height="18px" viewBox="0 0 20 18" version="1.1" xmlns="http://www.w3.org/2000/svg" xmlns:xlink="http://www.w3.org/1999/xlink">
    <!-- Generator: Sketch 42 (36781) - http://www.bohemiancoding.com/sketch -->
    <title>launch/icon_survey</title>
    <desc>Created with Sketch.</desc>
    <defs>
        <path d="M3.5,7 C3.5,5.61928813 4.60966206,4.5 6,4.5 C7.38071187,4.5 8.5,5.60966206 8.5,7 C8.5,8.38071187 7.39033794,9.5 6,9.5 C4.61928813,9.5 3.5,8.39033794 3.5,7 Z M3.5,13 C3.5,11.6192881 4.60966206,10.5 6,10.5 C7.38071187,10.5 8.5,11.6096621 8.5,13 C8.5,14.3807119 7.39033794,15.5 6,15.5 C4.61928813,15.5 3.5,14.3903379 3.5,13 Z M3.5,19 C3.5,17.6192881 4.60966206,16.5 6,16.5 C7.38071187,16.5 8.5,17.6096621 8.5,19 C8.5,20.3807119 7.39033794,21.5 6,21.5 C4.61928813,21.5 3.5,20.3903379 3.5,19 Z M4.29999995,7 C4.29999995,7.94809657 5.0611159,8.70479518 6,8.70479518 C6.94542983,8.70479518 7.70000005,7.94153238 7.70000005,7 C7.70000005,6.05190343 6.9388841,5.29520482 6,5.29520482 C5.05457017,5.29520482 4.29999995,6.05846762 4.29999995,7 Z M4.29999995,13 C4.29999995,13.9480966 5.0611159,14.7047952 6,14.7047952 C6.94542983,14.7047952 7.70000005,13.9415324 7.70000005,13 C7.70000005,12.0519034 6.9388841,11.2952048 6,11.2952048 C5.05457017,11.2952048 4.29999995,12.0584676 4.29999995,13 Z M4.29999995,19 C4.29999995,19.9480966 5.0611159,20.7047952 6,20.7047952 C6.94542983,20.7047952 7.70000005,19.9415324 7.70000005,19 C7.70000005,18.0519034 6.9388841,17.2952048 6,17.2952048 C5.05457017,17.2952048 4.29999995,18.0584676 4.29999995,19 Z M4.75,7 C4.75,6.30964406 5.30483103,5.75 6,5.75 C6.69035594,5.75 7.25,6.30483103 7.25,7 C7.25,7.69035594 6.69516897,8.25 6,8.25 C5.30964406,8.25 4.75,7.69516897 4.75,7 Z M10.5,5 L22.5,5 L22.5,6.5 L10.5,6.5 L10.5,5 Z M10.5,7.5 L16.5,7.5 L16.5,9 L10.5,9 L10.5,7.5 Z M10.5,17 L22.5,17 L22.5,18.5 L10.5,18.5 L10.5,17 Z M10.5,19.5 L16.5,19.5 L16.5,21 L10.5,21 L10.5,19.5 Z M10.5,11 L22.5,11 L22.5,12.5 L10.5,12.5 L10.5,11 Z M10.5,13.5 L16.5,13.5 L16.5,15 L10.5,15 L10.5,13.5 Z" id="path-1"></path>
    </defs>
    <g id="launch-頁面" stroke="none" stroke-width="1" fill="none" fill-rule="evenodd">
        <g id="account_panel-copy" transform="translate(-35.000000, -119.000000)">
            <g id="launch/icon_survey" transform="translate(32.000000, 115.094734)">
                <mask id="mask-2" fill="white">
                    <use xlink:href="#path-1"></use>
                </mask>
                <use id="Mask" fill="#FFFFFF" fill-rule="evenodd" xlink:href="#path-1"></use>
                <g id="color/white" mask="url(#mask-2)" fill-rule="evenodd" fill="#FFFFFF">
                    <g transform="translate(-0.000000, 0.000000)" id="Rectangle-20">
                        <rect x="0" y="0" width="26" height="26"></rect>
                    </g>
                </g>
            </g>
        </g>
    </g>
</svg>