<?xml version="1.0" encoding="UTF-8"?>
<svg width="22px" height="23px" viewBox="0 0 22 23" version="1.1" xmlns="http://www.w3.org/2000/svg" xmlns:xlink="http://www.w3.org/1999/xlink">
    <!-- Generator: Sketch 42 (36781) - http://www.bohemiancoding.com/sketch -->
    <title>launch/icon_sticker</title>
    <desc>Created with Sketch.</desc>
    <defs>
        <path d="M13.6006488,18.2117393 L13.498112,18.2117393 L13.498112,16.8752212 L14.2704184,16.8752212 C14.5282403,16.4528244 14.8201178,16.0530675 15.1423821,15.6798809 L15.1423821,15.2287959 L15.5595109,15.2287959 C15.936104,14.8483474 16.346716,14.5011408 16.7866522,14.1922055 L16.7866522,13.5823706 L17.7882832,13.5823706 C18.9422094,12.9794928 20.2459309,12.6188756 21.6342203,12.5703955 C21.8243755,12.5637551 22.0133564,12.5630672 22.2009834,12.5681642 C21.995696,7.6526109 17.941685,3.73045669 12.9706765,3.73045669 C7.86841351,3.73045669 3.73221209,7.86246656 3.73221209,12.959559 C3.73221209,18.0566515 7.86841351,22.1886614 12.9706765,22.1886614 C12.9754428,22.1886614 12.9802083,22.1886578 12.9849728,22.1886506 C12.977053,22.0780619 12.9711241,21.9668907 12.9672228,21.8551712 C12.9222831,20.5682688 13.1507962,19.3351823 13.6006488,18.2117393 Z M13.1834006,23.5310501 L13.1834006,23.9170989 C13.1126545,23.918443 13.0417444,23.9191181 12.9706765,23.9191181 C6.91173919,23.9191181 2,19.0123564 2,12.959559 C2,6.90676172 6.91173919,2 12.9706765,2 C19.0296139,2 23.9413531,6.90676172 23.9413531,12.959559 C23.9413531,12.9848914 23.9412671,13.0102036 23.9410953,13.0354955 L24.0001759,13.0865824 L23.9397603,13.1482204 C23.939626,13.1561715 23.9394831,13.1641206 23.9393318,13.1720676 L23.916386,13.1720676 L13.3030029,24.0001912 C13.2590643,23.8455218 13.2191555,23.6891029 13.1834006,23.5310501 Z M13.5826603,7.72332582 L18.2167251,7.72332582 L18.2167251,12.3526945 L13.5826603,12.3526945 L13.5826603,7.72332582 Z M14.7411765,8.880668 L14.7411765,11.1953524 L17.0582089,11.1953524 L17.0582089,8.880668 L14.7411765,8.880668 Z M15.2190604,9.41594273 L16.5223911,9.41594273 L16.5223911,10.7179527 L15.2190604,10.7179527 L15.2190604,9.41594273 Z M7.79007928,7.72332582 L12.4241441,7.72332582 L12.4241441,12.3526945 L7.79007928,12.3526945 L7.79007928,7.72332582 Z M8.94859548,8.880668 L8.94859548,11.1953524 L11.2656279,11.1953524 L11.2656279,8.880668 L8.94859548,8.880668 Z M9.48441319,9.41594273 L10.7877439,9.41594273 L10.7877439,10.7179527 L9.48441319,10.7179527 L9.48441319,9.41594273 Z M13.498112,13.5823706 L14.8436366,13.5823706 L14.8436366,14.9188887 L13.498112,14.9188887 L13.498112,13.5823706 Z M7.79007928,13.5100367 L12.4241441,13.5100367 L12.4241441,18.1394054 L7.79007928,18.1394054 L7.79007928,13.5100367 Z M8.94859548,14.6673789 L8.94859548,16.9820632 L11.2656279,16.9820632 L11.2656279,14.6673789 L8.94859548,14.6673789 Z M9.48441319,15.1447786 L10.7877439,15.1447786 L10.7877439,16.4467885 L9.48441319,16.4467885 L9.48441319,15.1447786 Z" id="path-1"></path>
    </defs>
    <g id="launch-頁面" stroke="none" stroke-width="1" fill="none" fill-rule="evenodd">
        <g id="account_panel-copy" transform="translate(-34.000000, -244.000000)">
            <g id="launch/icon_sticker" transform="translate(32.000000, 242.294734)">
                <mask id="mask-2" fill="white">
                    <use xlink:href="#path-1"></use>
                </mask>
                <use id="Mask" fill="#FFFFFF" fill-rule="evenodd" xlink:href="#path-1"></use>
                <g id="color/white" mask="url(#mask-2)" fill-rule="evenodd" fill="#FFFFFF">
                    <rect id="Rectangle-20" x="0" y="0" width="26" height="26"></rect>
                </g>
            </g>
        </g>
    </g>
</svg>