<?xml version="1.0" encoding="UTF-8"?>
<svg width="18px" height="19px" viewBox="0 0 18 19" version="1.1" xmlns="http://www.w3.org/2000/svg" xmlns:xlink="http://www.w3.org/1999/xlink">
    <!-- Generator: Sketch 42 (36781) - http://www.bohemiancoding.com/sketch -->
    <title>launch/icon_page</title>
    <desc>Created with Sketch.</desc>
    <defs>
        <path d="M4,5.12598062 C4,4.50411869 4.50020972,4 5.12598062,4 L20.8740193,4 C21.4958813,4 22,4.50020972 22,5.12598062 L22,20.8740193 C22,21.4958813 21.4997902,22 20.8740193,22 L5.12598062,22 C4.50411869,22 4,21.4997902 4,20.8740193 L4,5.12598062 Z M5.125,5.125 L20.875,5.125 L20.875,20.875 L5.125,20.875 L5.125,5.125 Z M7.75,7.75 L18.25,7.75 L18.25,10.75 L7.75,10.75 L7.75,7.75 Z M7.75,15.25 L18.25,15.25 L18.25,18.2499999 L7.75,18.2499999 L7.75,15.25 Z M13,11.5 L18.25,11.5 L18.25,14.5 L13,14.5 L13,11.5 Z M7.75,11.5 L12.25,11.5 L12.25,14.5 L7.75,14.5 L7.75,11.5 Z" id="path-1"></path>
    </defs>
    <g id="launch-頁面" stroke="none" stroke-width="1" fill="none" fill-rule="evenodd">
        <g id="account_panel-copy" transform="translate(-36.000000, -76.000000)">
            <g id="launch/icon_page" transform="translate(32.000000, 72.694734)">
                <rect id="Rectangle" fill-opacity="0" fill="#000000" fill-rule="evenodd" x="0" y="0" width="25.9799406" height="25.9799406"></rect>
                <mask id="mask-2" fill="white">
                    <use xlink:href="#path-1"></use>
                </mask>
                <use id="Mask" fill="#FFFFFF" fill-rule="evenodd" xlink:href="#path-1"></use>
                <g id="color/white" mask="url(#mask-2)" fill-rule="evenodd" fill="#FFFFFF">
                    <rect id="Rectangle-20" x="0" y="0" width="26" height="26"></rect>
                </g>
            </g>
        </g>
    </g>
</svg>