<?xml version="1.0" encoding="UTF-8"?>
<svg width="24px" height="24px" viewBox="0 0 24 24" version="1.1" xmlns="http://www.w3.org/2000/svg" xmlns:xlink="http://www.w3.org/1999/xlink">
    <!-- Generator: Sketch 42 (36781) - http://www.bohemiancoding.com/sketch -->
    <title>icon_slide</title>
    <desc>Created with Sketch.</desc>
    <defs></defs>
    <g id="Symbols" stroke="none" stroke-width="1" fill="none" fill-rule="evenodd">
        <g id="icon_slide" fill-rule="nonzero" fill="#333F4D">
            <path d="M0,2.38095238 L9.6,2.38095238 C9.6,1.06598869 10.6745166,2.64338815e-16 12,0 C13.3254834,0 14.4,1.06598869 14.4,2.38095238 L24,2.38095238 L24,4.76190476 L22.8,4.76190476 L22.8,17.8571429 L15.9,17.8571429 L18,25 L15.6,25 L13.5,17.8571429 L10.5,17.8571429 L8.4,25 L6,25 L8.1,17.8571429 L1.2,17.8571429 L1.2,4.76190476 L0,4.76190476 L0,2.38095238 L0,2.38095238 Z M3.6,4.76190476 L3.6,15.4761905 L20.4,15.4761905 L20.4,4.76190476 L3.6,4.76190476 L3.6,4.76190476 Z M11.82,12.9166667 C11.712,13.0238095 11.568,13.0952381 11.4,13.0952381 C11.0686292,13.0952381 10.8,12.8287409 10.8,12.5 L10.8,7.73809524 C10.8,7.40935432 11.0686292,7.14285714 11.4,7.14285714 C11.568,7.14285714 11.712,7.21428571 11.82,7.32142857 L13.5,8.97619048 C13.884,9.35714286 14.268,9.73809524 14.268,10.1190476 C14.268,10.5 13.884,10.8809524 13.5,11.2619048 L11.82,12.9166667 Z" id="Shape"></path>
        </g>
    </g>
</svg>