<?xml version="1.0" encoding="UTF-8"?>
<svg width="23px" height="24px" viewBox="0 0 23 24" version="1.1" xmlns="http://www.w3.org/2000/svg" xmlns:xlink="http://www.w3.org/1999/xlink">
    <!-- Generator: Sketch 42 (36781) - http://www.bohemiancoding.com/sketch -->
    <title>icon_userInfo</title>
    <desc>Created with Sketch.</desc>
    <defs></defs>
    <g id="Symbols" stroke="none" stroke-width="1" fill="none" fill-rule="evenodd">
        <g id="menu_form" transform="translate(-23.000000, -381.000000)" fill="#333F4D">
            <g id="icon/userInfo" transform="translate(22.000000, 380.333333)">
                <g id="Group-2" stroke-width="1" fill-rule="evenodd" transform="translate(1.000000, 0.000000)">
                    <path d="M13.2981324,23.25 L0.721254333,23.25 C0.721254333,23.25 -0.878564566,18.1130572 0.721254333,16.6323529 C2.833862,14.6770396 7.27940937,13.9852941 10.9012129,13.9852941 C11.3994904,13.9852941 11.9321361,14.0102775 12.4843573,14.0584172 C11.4960043,15.180717 10.8964954,16.6537043 10.8964954,18.2667145 C10.8964954,20.2843072 11.8344642,22.0828255 13.2981324,23.25 Z M11,12.8232991 C7.66605051,12.8232991 4.96335045,10.120599 4.96335045,6.78664955 C4.96335045,3.45270006 7.66605051,0.75 11,0.75 C14.3339495,0.75 17.0366496,3.45270006 17.0366496,6.78664955 C17.0366496,10.120599 14.3339495,12.8232991 11,12.8232991 Z" id="Combined-Shape"></path>
                </g>
                <path d="M18.25,22.5 C20.5972102,22.5 22.5,20.5972102 22.5,18.25 C22.5,15.9027898 20.5972102,14 18.25,14 C15.9027898,14 14,15.9027898 14,18.25 C14,20.5972102 15.9027898,22.5 18.25,22.5 Z M18.25,24 C15.0743627,24 12.5,21.4256373 12.5,18.25 C12.5,15.0743627 15.0743627,12.5 18.25,12.5 C21.4256373,12.5 24,15.0743627 24,18.25 C24,21.4256373 21.4256373,24 18.25,24 Z" id="Oval-10" fill-rule="nonzero"></path>
                <circle id="Oval" fill-rule="evenodd" cx="18.25" cy="16.5" r="1"></circle>
                <rect id="Rectangle" fill-rule="evenodd" x="17.5" y="18" width="1.5" height="3" rx="0.75"></rect>
            </g>
        </g>
    </g>
</svg>