<?xml version="1.0" encoding="UTF-8"?>
<svg width="26px" height="23px" viewBox="0 0 26 23" version="1.1" xmlns="http://www.w3.org/2000/svg" xmlns:xlink="http://www.w3.org/1999/xlink">
    <!-- Generator: Sketch 42 (36781) - http://www.bohemiancoding.com/sketch -->
    <title>icon_textfield</title>
    <desc>Created with Sketch.</desc>
    <defs></defs>
    <g id="Symbols" stroke="none" stroke-width="1" fill="none" fill-rule="evenodd">
        <g id="menu_form" transform="translate(-21.000000, -88.000000)" fill="#333F4D">
            <g id="icon/textfield" transform="translate(22.000000, 87.388889)">
                <path d="M11.9153742,17.7934811 L13.4901814,16.218674 L11.426641,14.1551336 L9.85183385,15.7299407 L9.85183385,16.4901925 L11.1551225,16.4901925 L11.1551225,17.7934811 L11.9153742,17.7934811 Z M17.8887806,8.01881619 C17.74397,7.87400561 17.5946363,7.87853087 17.4407751,8.03239211 L12.6892019,12.7839653 C12.5353406,12.9378266 12.5308154,13.0871602 12.6756259,13.2319708 C12.8204365,13.3767814 12.9697702,13.3722561 13.1236314,13.2183949 L17.8752047,8.46682166 C18.0290659,8.31296043 18.0335912,8.16362676 17.8887806,8.01881619 Z M21.4105981,15.4493892 L21.4105981,18.3493181 C21.4105981,19.5601717 20.9807006,20.5954868 20.1208928,21.4552946 C19.261085,22.3151024 18.2257699,22.7449999 17.0149163,22.7449999 L4.31628007,22.7449999 C3.10542649,22.7449999 2.07011134,22.3151024 1.21030354,21.4552946 C0.35049575,20.5954868 -0.0794016984,19.5601717 -0.0794016984,18.3493181 L-0.0794016984,5.65068189 C-0.0794016984,4.43982831 0.35049575,3.40451315 1.21030354,2.54470536 C2.07011134,1.68489756 3.10542649,1.25500011 4.31628007,1.25500011 L17.0149163,1.25500011 C17.6559564,1.25500011 18.2511991,1.38218871 18.800662,1.63656971 C18.9532906,1.70779639 19.0448664,1.8248099 19.0753921,1.98761374 C19.1059179,2.16059283 19.06013,2.30813159 18.9380271,2.43023448 L18.1901507,3.17811089 C18.0476973,3.32056425 17.8848959,3.3612646 17.7017416,3.30021316 C17.4677111,3.23916172 17.2387716,3.20863646 17.0149163,3.20863646 L4.31628007,3.20863646 C3.64471422,3.20863646 3.06982178,3.44775101 2.59158549,3.9259873 C2.1133492,4.40422359 1.87423464,4.97911604 1.87423464,5.65068189 L1.87423464,18.3493181 C1.87423464,19.020884 2.1133492,19.5957764 2.59158549,20.0740127 C3.06982178,20.552249 3.64471422,20.7913635 4.31628007,20.7913635 L17.0149163,20.7913635 C17.6864822,20.7913635 18.2613746,20.552249 18.7396109,20.0740127 C19.2178472,19.5957764 19.4569617,19.020884 19.4569617,18.3493181 L19.4569617,16.4262073 C19.4569617,16.2939292 19.5027496,16.1820033 19.5943268,16.0904261 L20.571145,15.1136079 C20.7237736,14.9609793 20.9018376,14.9253665 21.1053424,15.0067684 C21.3088472,15.0881704 21.4105981,15.2357091 21.4105981,15.4493892 Z M17.6715658,6.0638832 L21.5814318,9.97374917 L12.4584112,19.0967698 L8.5485452,19.0967698 L8.5485452,15.1869038 L17.6715658,6.0638832 Z M23.6992758,7.8559051 L22.4502909,9.10489007 L18.5404249,5.1950241 L19.7894099,3.94603913 C20.0428284,3.69262063 20.3505462,3.56591327 20.7125727,3.56591327 C21.0745991,3.56591327 21.382317,3.69262063 21.6357355,3.94603913 L23.6992758,6.00957951 C23.9526943,6.26299801 24.0794017,6.57071587 24.0794017,6.93274231 C24.0794017,7.29476874 23.9526943,7.6024866 23.6992758,7.8559051 Z" id="pencil-square-o---fontawesome"></path>
            </g>
        </g>
    </g>
</svg>