<?xml version="1.0" encoding="UTF-8"?>
<svg width="24px" height="25px" viewBox="0 0 24 25" version="1.1" xmlns="http://www.w3.org/2000/svg" xmlns:xlink="http://www.w3.org/1999/xlink">
    <!-- Generator: Sketch 42 (36781) - http://www.bohemiancoding.com/sketch -->
    <title>icon_date</title>
    <desc>Created with Sketch.</desc>
    <defs></defs>
    <g id="Page-1" stroke="none" stroke-width="1" fill="none" fill-rule="evenodd">
        <g id="icon_date" fill-rule="nonzero" fill="#333F4D">
            <g id="Symbols">
                <g id="menu_form">
                    <g id="icon/date" transform="translate(0.000000, 0.166667)">
                        <path d="M2.57142857,22.2857143 L21.4285714,22.2857143 L21.4285714,8.57142857 L2.57142857,8.57142857 L2.57142857,22.2857143 Z M7.71428571,6 L7.71428571,2.14285714 C7.71428571,2.01785652 7.67410754,1.91517897 7.59375,1.83482143 C7.51339246,1.75446388 7.41071491,1.71428571 7.28571429,1.71428571 L6.42857143,1.71428571 C6.3035708,1.71428571 6.20089326,1.75446388 6.12053571,1.83482143 C6.04017817,1.91517897 6,2.01785652 6,2.14285714 L6,6 C6,6.12500062 6.04017817,6.22767817 6.12053571,6.30803571 C6.20089326,6.38839326 6.3035708,6.42857143 6.42857143,6.42857143 L7.28571429,6.42857143 C7.41071491,6.42857143 7.51339246,6.38839326 7.59375,6.30803571 C7.67410754,6.22767817 7.71428571,6.12500062 7.71428571,6 Z M18,6 L18,2.14285714 C18,2.01785652 17.9598218,1.91517897 17.8794643,1.83482143 C17.7991067,1.75446388 17.6964292,1.71428571 17.5714286,1.71428571 L16.7142857,1.71428571 C16.5892851,1.71428571 16.4866075,1.75446388 16.40625,1.83482143 C16.3258925,1.91517897 16.2857143,2.01785652 16.2857143,2.14285714 L16.2857143,6 C16.2857143,6.12500062 16.3258925,6.22767817 16.40625,6.30803571 C16.4866075,6.38839326 16.5892851,6.42857143 16.7142857,6.42857143 L17.5714286,6.42857143 C17.6964292,6.42857143 17.7991067,6.38839326 17.8794643,6.30803571 C17.9598218,6.22767817 18,6.12500062 18,6 Z M23.1428571,5.14285714 L23.1428571,22.2857143 C23.1428571,22.7500023 22.973216,23.151784 22.6339286,23.4910714 C22.2946412,23.8303588 21.8928595,24 21.4285714,24 L2.57142857,24 C2.10714054,24 1.70535884,23.8303588 1.36607143,23.4910714 C1.02678402,23.151784 0.857142857,22.7500023 0.857142857,22.2857143 L0.857142857,5.14285714 C0.857142857,4.67856911 1.02678402,4.27678741 1.36607143,3.9375 C1.70535884,3.59821259 2.10714054,3.42857143 2.57142857,3.42857143 L4.28571429,3.42857143 L4.28571429,2.14285714 C4.28571429,1.55356848 4.49553362,1.04910924 4.91517857,0.629464286 C5.33482353,0.20981933 5.83928277,0 6.42857143,0 L7.28571429,0 C7.87500295,0 8.37946219,0.20981933 8.79910714,0.629464286 C9.2187521,1.04910924 9.42857143,1.55356848 9.42857143,2.14285714 L9.42857143,3.42857143 L14.5714286,3.42857143 L14.5714286,2.14285714 C14.5714286,1.55356848 14.7812479,1.04910924 15.2008929,0.629464286 C15.6205378,0.20981933 16.1249971,0 16.7142857,0 L17.5714286,0 C18.1607172,0 18.6651765,0.20981933 19.0848214,0.629464286 C19.5044664,1.04910924 19.7142857,1.55356848 19.7142857,2.14285714 L19.7142857,3.42857143 L21.4285714,3.42857143 C21.8928595,3.42857143 22.2946412,3.59821259 22.6339286,3.9375 C22.973216,4.27678741 23.1428571,4.67856911 23.1428571,5.14285714 Z" id="calendar-o---fontawesome"></path>
                        <rect id="Rectangle" x="10.5" y="11" width="3" height="3"></rect>
                        <rect id="Rectangle" x="16" y="11" width="3" height="3"></rect>
                        <rect id="Rectangle" x="5" y="17" width="3" height="3"></rect>
                        <rect id="Rectangle" x="10.5" y="17" width="3" height="3"></rect>
                        <rect id="Rectangle" x="16" y="17" width="3" height="3"></rect>
                    </g>
                </g>
            </g>
        </g>
    </g>
</svg>