<?xml version="1.0" encoding="UTF-8"?>
<svg width="24px" height="24px" viewBox="0 0 24 24" version="1.1" xmlns="http://www.w3.org/2000/svg" xmlns:xlink="http://www.w3.org/1999/xlink">
    <!-- Generator: Sketch 42 (36781) - http://www.bohemiancoding.com/sketch -->
    <title>icon_element</title>
    <desc>Created with Sketch.</desc>
    <defs></defs>
    <g id="Symbols" stroke="none" stroke-width="1" fill="none" fill-rule="evenodd">
        <g id="icon_element" fill-rule="nonzero" fill="#333F4D">
            <path d="M1,17 L7.11111111,17 L7.11111111,14.5 L1,14.5 L1,17 L1,17 Z M8.94444444,17 L15.0555556,17 L15.0555556,14.5 L8.94444444,14.5 L8.94444444,17 L8.94444444,17 Z M16.8888889,17 L23,17 L23,14.5 L16.8888889,14.5 L16.8888889,17 L16.8888889,17 Z M1,22 L3.44444444,22 L3.44444444,19.5 L1,19.5 L1,22 L1,22 Z M5.88888889,22 L8.33333333,22 L8.33333333,19.5 L5.88888889,19.5 L5.88888889,22 L5.88888889,22 Z M10.7777778,22 L13.2222222,22 L13.2222222,19.5 L10.7777778,19.5 L10.7777778,22 L10.7777778,22 Z M15.6666667,22 L18.1111111,22 L18.1111111,19.5 L15.6666667,19.5 L15.6666667,22 L15.6666667,22 Z M20.5555556,22 L23,22 L23,19.5 L20.5555556,19.5 L20.5555556,22 L20.5555556,22 Z M1,12 L10.7777778,12 L10.7777778,9.5 L1,9.5 L1,12 L1,12 Z M13.2222222,12 L23,12 L23,9.5 L13.2222222,9.5 L13.2222222,12 L13.2222222,12 Z M1,2 L1,7 L23,7 L23,2 L1,2 Z" id="Shape"></path>
        </g>
    </g>
</svg>