<?xml version="1.0" encoding="UTF-8"?>
<svg width="24px" height="24px" viewBox="0 0 24 24" version="1.1" xmlns="http://www.w3.org/2000/svg" xmlns:xlink="http://www.w3.org/1999/xlink">
    <!-- Generator: Sketch 42 (36781) - http://www.bohemiancoding.com/sketch -->
    <title>icon_search</title>
    <desc>Created with Sketch.</desc>
    <defs></defs>
    <g id="Symbols" stroke="none" stroke-width="1" fill="none" fill-rule="evenodd">
        <g id="icon_search" fill="#E2E2E2">
            <path d="M15.4615385,10.6153846 C15.4615385,9.28124333 14.9873845,8.14002878 14.0390625,7.19170673 C13.0907405,6.24338468 11.9495259,5.76923077 10.6153846,5.76923077 C9.28124333,5.76923077 8.14002878,6.24338468 7.19170673,7.19170673 C6.24338468,8.14002878 5.76923077,9.28124333 5.76923077,10.6153846 C5.76923077,11.9495259 6.24338468,13.0907405 7.19170673,14.0390625 C8.14002878,14.9873845 9.28124333,15.4615385 10.6153846,15.4615385 C11.9495259,15.4615385 13.0907405,14.9873845 14.0390625,14.0390625 C14.9873845,13.0907405 15.4615385,11.9495259 15.4615385,10.6153846 Z M21,19.6153846 C21,19.9903865 20.8629821,20.3149025 20.5889423,20.5889423 C20.3149025,20.8629821 19.9903865,21 19.6153846,21 C19.2259596,21 18.9014436,20.8629821 18.6418269,20.5889423 L14.9314904,16.8894231 C13.6406185,17.7836583 12.201931,18.2307692 10.6153846,18.2307692 C9.58412946,18.2307692 8.59796144,18.030651 7.65685096,17.6304087 C6.71574049,17.2301663 5.90445052,16.6893063 5.22295673,16.0078125 C4.54146294,15.3263187 4.00060296,14.5150287 3.60036058,13.5739183 C3.20011819,12.6328078 3,11.6466398 3,10.6153846 C3,9.58412946 3.20011819,8.59796144 3.60036058,7.65685096 C4.00060296,6.71574049 4.54146294,5.90445052 5.22295673,5.22295673 C5.90445052,4.54146294 6.71574049,4.00060296 7.65685096,3.60036058 C8.59796144,3.20011819 9.58412946,3 10.6153846,3 C11.6466398,3 12.6328078,3.20011819 13.5739183,3.60036058 C14.5150287,4.00060296 15.3263187,4.54146294 16.0078125,5.22295673 C16.6893063,5.90445052 17.2301663,6.71574049 17.6304087,7.65685096 C18.030651,8.59796144 18.2307692,9.58412946 18.2307692,10.6153846 C18.2307692,12.201931 17.7836583,13.6406185 16.8894231,14.9314904 L20.5997596,18.6418269 C20.8665879,18.9086552 21,19.2331712 21,19.6153846 Z" id="search---fontawesome"></path>
        </g>
    </g>
</svg>