<?xml version="1.0" encoding="UTF-8"?>
<svg width="26px" height="22px" viewBox="0 0 26 22" version="1.1" xmlns="http://www.w3.org/2000/svg" xmlns:xlink="http://www.w3.org/1999/xlink">
    <!-- Generator: Sketch 42 (36781) - http://www.bohemiancoding.com/sketch -->
    <title>icon_product</title>
    <desc>Created with Sketch.</desc>
    <defs></defs>
    <g id="Symbols" stroke="none" stroke-width="1" fill="none" fill-rule="evenodd">
        <g id="menu_form" transform="translate(-19.000000, -324.000000)" fill="#333F4D">
            <g id="icon/product" transform="translate(22.000000, 321.944444)">
                <path d="M7.19730759,21.4080772 C7.19730759,21.9141215 7.01240959,22.3520378 6.64260805,22.7218393 C6.2728065,23.0916409 5.83489019,23.2765388 5.32884598,23.2765388 C4.82280176,23.2765388 4.38488545,23.0916409 4.01508391,22.7218393 C3.64528237,22.3520378 3.46038437,21.9141215 3.46038437,21.4080772 C3.46038437,20.902033 3.64528237,20.4641167 4.01508391,20.0943152 C4.38488545,19.7245136 4.82280176,19.5396156 5.32884598,19.5396156 C5.83489019,19.5396156 6.2728065,19.7245136 6.64260805,20.0943152 C7.01240959,20.4641167 7.19730759,20.902033 7.19730759,21.4080772 Z M20.2765388,21.4080772 C20.2765388,21.9141215 20.0916409,22.3520378 19.7218393,22.7218393 C19.3520378,23.0916409 18.9141215,23.2765388 18.4080772,23.2765388 C17.902033,23.2765388 17.4641167,23.0916409 17.0943152,22.7218393 C16.7245136,22.3520378 16.5396156,21.9141215 16.5396156,21.4080772 C16.5396156,20.902033 16.7245136,20.4641167 17.0943152,20.0943152 C17.4641167,19.7245136 17.902033,19.5396156 18.4080772,19.5396156 C18.9141215,19.5396156 19.3520378,19.7245136 19.7218393,20.0943152 C20.0916409,20.4641167 20.2765388,20.902033 20.2765388,21.4080772 Z M22.1450005,5.52615356 L22.1450005,13 C22.1450005,13.2335589 22.0647158,13.4403527 21.9041441,13.6203876 C21.7435724,13.8004226 21.54651,13.9050359 21.3129511,13.9342308 L6.07331115,15.7151083 C6.1998222,16.2990054 6.26307678,16.639607 6.26307678,16.7369232 C6.26307678,16.8926291 6.1462991,17.2040363 5.91274023,17.671154 L19.342308,17.671154 C19.5953302,17.671154 19.8142883,17.763603 19.9991891,17.9485038 C20.1840899,18.1334046 20.2765388,18.3523627 20.2765388,18.6053848 C20.2765388,18.8584069 20.1840899,19.0773651 19.9991891,19.2622659 C19.8142883,19.4471666 19.5953302,19.5396156 19.342308,19.5396156 L4.39461517,19.5396156 C4.14159307,19.5396156 3.92263491,19.4471666 3.73773414,19.2622659 C3.55283337,19.0773651 3.46038437,18.8584069 3.46038437,18.6053848 C3.46038437,18.498337 3.49931026,18.3450663 3.57716322,18.1455681 C3.65501618,17.9460699 3.73286796,17.7709034 3.81072092,17.6200633 C3.88857388,17.4692232 3.99318722,17.2745937 4.12456408,17.036169 C4.25594095,16.7977443 4.33135987,16.6542051 4.3508231,16.605547 L1.76709104,4.59192276 L-1.21076965,4.59192276 C-1.46379176,4.59192276 -1.68274992,4.49947376 -1.86765069,4.31457299 C-2.05255146,4.12967222 -2.14500046,3.91071406 -2.14500046,3.65769196 C-2.14500046,3.40466985 -2.05255146,3.18571169 -1.86765069,3.00081092 C-1.68274992,2.81591015 -1.46379176,2.72346115 -1.21076965,2.72346115 L2.52615356,2.72346115 C2.68185948,2.72346115 2.82053298,2.75508844 2.94217822,2.81834397 C3.06382346,2.88159949 3.15870533,2.95701841 3.22682667,3.04460299 C3.294948,3.13218757 3.35820258,3.25139812 3.4165923,3.40223822 C3.47498202,3.55307832 3.51390791,3.67958748 3.53337115,3.78176948 C3.55283439,3.88395149 3.57959594,4.02749072 3.61365661,4.2123915 C3.64771728,4.39729227 3.66961309,4.52380142 3.67934471,4.59192276 L21.2107697,4.59192276 C21.4637918,4.59192276 21.6827499,4.68437176 21.8676507,4.86927253 C22.0525515,5.0541733 22.1450005,5.27313146 22.1450005,5.52615356 Z" id="shopping-cart---fontawesome"></path>
            </g>
        </g>
    </g>
</svg>