<?xml version="1.0" encoding="UTF-8"?>
<svg width="24px" height="24px" viewBox="0 0 24 24" version="1.1" xmlns="http://www.w3.org/2000/svg" xmlns:xlink="http://www.w3.org/1999/xlink">
    <!-- Generator: Sketch 42 (36781) - http://www.bohemiancoding.com/sketch -->
    <title>icon_style_01</title>
    <desc>Created with Sketch.</desc>
    <defs>
        <path d="M16.2561132,23 C19.6592553,21.279545 22,17.6906305 22,13.5420044 C22,7.71981613 17.3898194,3 11.7028733,3 C10.3976197,3 9.14908825,3.2486318 8,3.70215838 C8,3.70215838 16.2561132,23 16.2561132,23 Z" id="path-1"></path>
        <mask id="mask-2" maskContentUnits="userSpaceOnUse" maskUnits="objectBoundingBox" x="0" y="0" width="14" height="20" fill="white">
            <use xlink:href="#path-1"></use>
        </mask>
    </defs>
    <g id="Symbols" stroke="none" stroke-width="1" fill="none" fill-rule="evenodd">
        <g id="icon_style_01">
            <g id="Group-2" transform="translate(-2.500000, -0.500000)">
                <path d="M9.74388682,2 C9.74388682,2 18,21.2978416 18,21.2978416 C16.8509118,21.7513682 15.6023803,22 14.2971267,22 C8.61018065,22 4,17.2801839 4,11.4579956 C4,7.30936951 6.34074468,3.72045503 9.74388682,2 Z M7.11111111,11.2307692 C7.97022072,11.2307692 8.66666667,10.5419765 8.66666667,9.69230769 C8.66666667,8.84263885 7.97022072,8.15384615 7.11111111,8.15384615 C6.2520015,8.15384615 5.55555556,8.84263885 5.55555556,9.69230769 C5.55555556,10.5419765 6.2520015,11.2307692 7.11111111,11.2307692 Z M6.54545455,15.75 C7.24836241,15.75 7.81818182,15.1903559 7.81818182,14.5 C7.81818182,13.8096441 7.24836241,13.25 6.54545455,13.25 C5.84254668,13.25 5.27272727,13.8096441 5.27272727,14.5 C5.27272727,15.1903559 5.84254668,15.75 6.54545455,15.75 Z M10.9292929,19.9807692 C11.7884025,19.9807692 12.4848485,19.2919765 12.4848485,18.4423077 C12.4848485,17.5926388 11.7884025,16.9038462 10.9292929,16.9038462 C10.0701833,16.9038462 9.37373737,17.5926388 9.37373737,18.4423077 C9.37373737,19.2919765 10.0701833,19.9807692 10.9292929,19.9807692 Z M11.7777778,14.3076923 C12.6368874,14.3076923 13.3333333,13.6188996 13.3333333,12.7692308 C13.3333333,11.9195619 12.6368874,11.2307692 11.7777778,11.2307692 C10.9186682,11.2307692 10.2222222,11.9195619 10.2222222,12.7692308 C10.2222222,13.6188996 10.9186682,14.3076923 11.7777778,14.3076923 Z M8.45454545,7 C8.80599939,7 9.09090909,6.72017797 9.09090909,6.375 C9.09090909,6.02982203 8.80599939,5.75 8.45454545,5.75 C8.10309152,5.75 7.81818182,6.02982203 7.81818182,6.375 C7.81818182,6.72017797 8.10309152,7 8.45454545,7 Z M14.4023179,18.1215399 C14.7537718,18.1215399 15.0386815,17.8417179 15.0386815,17.4965399 C15.0386815,17.151362 14.7537718,16.8715399 14.4023179,16.8715399 C14.050864,16.8715399 13.7659543,17.151362 13.7659543,17.4965399 C13.7659543,17.8417179 14.050864,18.1215399 14.4023179,18.1215399 Z M9.72727273,15.75 C10.0787267,15.75 10.3636364,15.470178 10.3636364,15.125 C10.3636364,14.779822 10.0787267,14.5 9.72727273,14.5 C9.3758188,14.5 9.09090909,14.779822 9.09090909,15.125 C9.09090909,15.470178 9.3758188,15.75 9.72727273,15.75 Z" id="Combined-Shape" fill="#F05623" transform="translate(11.000000, 12.000000) rotate(22.000000) translate(-11.000000, -12.000000) "></path>
                <path d="M18.7052723,3.76562051 L16.4636087,8.95354071" id="Line" stroke="#F05623" stroke-width="0.5" stroke-linecap="square" transform="translate(17.213609, 6.177070) rotate(22.000000) translate(-17.213609, -6.177070) "></path>
                <path d="M20.814856,5.55247772 L16.9468152,14.6650109" id="Line-Copy" stroke="#F05623" stroke-width="0.5" stroke-linecap="square" transform="translate(19.220138, 10.360896) rotate(22.000000) translate(-19.220138, -10.360896) "></path>
                <path d="M21.9071491,9.29808819 L17.1119245,18.7852279" id="Line-Copy-2" stroke="#F05623" stroke-width="0.5" stroke-linecap="square" transform="translate(19.611924, 13.996298) rotate(22.000000) translate(-19.611924, -13.996298) "></path>
                <path d="M22.6173339,12.3487244 L17.174541,22.8122155" id="Line-Copy-3" stroke="#F05623" stroke-width="0.5" stroke-linecap="square" transform="translate(19.712652, 17.848724) rotate(22.000000) translate(-19.712652, -17.848724) "></path>
            </g>
            <use id="Oval-5" stroke="#F05623" mask="url(#mask-2)" transform="translate(15.000000, 13.000000) rotate(22.000000) translate(-15.000000, -13.000000) " xlink:href="#path-1"></use>
        </g>
    </g>
</svg>