<?xml version="1.0" encoding="UTF-8"?>
<svg width="26px" height="25px" viewBox="0 0 26 25" version="1.1" xmlns="http://www.w3.org/2000/svg" xmlns:xlink="http://www.w3.org/1999/xlink">
    <!-- Generator: Sketch 42 (36781) - http://www.bohemiancoding.com/sketch -->
    <title>icon_rate</title>
    <desc>Created with Sketch.</desc>
    <defs></defs>
    <g id="Symbols" stroke="none" stroke-width="1" fill="none" fill-rule="evenodd">
        <g id="menu_form" transform="translate(-21.000000, -145.000000)" fill="#333F4D">
            <g id="icon/rate" transform="translate(22.000000, 145.777778)">
                <path d="M16.5823317,14.6817909 L21.1796875,10.2196514 L14.8395433,9.28816106 L12,3.54897837 L9.16045673,9.28816106 L2.8203125,10.2196514 L7.41766827,14.6817909 L6.32091346,21.0069111 L12,18.0171274 L17.6640625,21.0069111 L16.5823317,14.6817909 Z M12,3.54897837 L9.16045673,9.28816106 L2.8203125,10.2196514 L7.41766827,14.6817909 L6.32091346,21.0069111 L12,18.0171274 L12,3.54897837 Z M24.5,9.31820913 C24.5,9.5385628 24.369793,9.77894501 24.109375,10.039363 L18.655649,15.3578726 L19.9477163,22.8698918 C19.9577324,22.9400044 19.9627404,23.0401636 19.9627404,23.1703726 C19.9627404,23.6711764 19.7574139,23.9215745 19.3467548,23.9215745 C19.1564494,23.9215745 18.9561309,23.861479 18.7457933,23.7412861 L12,20.195613 L5.25420673,23.7412861 C5.03385306,23.861479 4.83353456,23.9215745 4.65324519,23.9215745 C4.4429076,23.9215745 4.28515678,23.8489591 4.17998798,23.703726 C4.07481919,23.5584929 4.02223558,23.3807102 4.02223558,23.1703726 C4.02223558,23.1102761 4.0322515,23.0101169 4.05228365,22.8698918 L5.34435096,15.3578726 L-0.124399038,10.039363 C-0.374800931,9.76892894 -0.5,9.52854672 -0.5,9.31820913 C-0.5,8.94761433 -0.219554087,8.71724805 0.341346154,8.62710337 L7.88341346,7.53034856 L11.2638221,0.694411058 C11.4541276,0.283751953 11.6995177,0.0784254808 12,0.0784254808 C12.3004823,0.0784254808 12.5458724,0.283751953 12.7361779,0.694411058 L16.1165865,7.53034856 L23.6586538,8.62710337 C24.2195541,8.71724805 24.5,8.94761433 24.5,9.31820913 Z" id="star-o---fontawesome"></path>
            </g>
        </g>
    </g>
</svg>