<?xml version="1.0" encoding="UTF-8"?>
<svg width="24px" height="24px" viewBox="0 0 24 24" version="1.1" xmlns="http://www.w3.org/2000/svg" xmlns:xlink="http://www.w3.org/1999/xlink">
    <!-- Generator: Sketch 42 (36781) - http://www.bohemiancoding.com/sketch -->
    <title>icon_style_00</title>
    <desc>Created with Sketch.</desc>
    <defs></defs>
    <g id="Symbols" stroke="none" stroke-width="1" fill="none" fill-rule="evenodd">
        <g id="icon_style_00">
            <g id="Group-2" transform="translate(1.500000, 0.500000)">
                <g id="Group-3" transform="translate(10.000000, 0.500000)"></g>
                <path d="M9.57761558,1 L10,22 C8.77470296,21.9900396 7.53408392,21.7526943 6.33368347,21.2633985 C1.10357913,19.1315531 -1.38251543,13.0241777 0.780835864,7.62219383 C2.32234143,3.7729862 5.80858371,1.32056088 9.57761558,1 Z M3.72645686,8.57761829 C4.51655279,8.89966968 5.41298689,8.5216634 5.72869846,7.73331764 C6.04441003,6.94497188 5.65984552,6.04481713 4.86974959,5.72276574 C4.07965366,5.40071436 3.18321957,5.77872063 2.867508,6.56706639 C2.55179643,7.35541216 2.93636093,8.2555669 3.72645686,8.57761829 Z M1.52702922,12.5586373 C2.17347134,12.8221339 2.90546324,12.5164871 3.16197889,11.8759562 C3.41849454,11.2354253 3.10239668,10.5025662 2.45595456,10.2390696 C1.80951244,9.975573 1.07752053,10.2812197 0.821004881,10.9217507 C0.564489231,11.5622816 0.880587093,12.2951407 1.52702922,12.5586373 Z M3.98667918,18.1274136 C4.77677511,18.4494649 5.6732092,18.0714587 5.98892077,17.2831129 C6.30463234,16.4947671 5.92006784,15.5946124 5.12997191,15.272561 C4.33987598,14.9505096 3.44344188,15.3285159 3.12773031,16.1168617 C2.81201874,16.9052074 3.19658325,17.8053622 3.98667918,18.1274136 Z M6.87494982,13.1818477 C7.66504575,13.5038991 8.56147985,13.1258928 8.87719142,12.3375471 C9.19290299,11.5492013 8.80833848,10.6490465 8.01824255,10.3269952 C7.22814662,10.0049438 6.33171253,10.38295 6.01600096,11.1712958 C5.70028939,11.9596416 6.08485389,12.8597963 6.87494982,13.1818477 Z M6.53399843,5.15580453 C6.85721949,5.28755283 7.22321544,5.13472947 7.35147327,4.814464 C7.47973109,4.49419854 7.32168216,4.12776898 6.9984611,3.99602069 C6.67524004,3.86427239 6.30924409,4.01709575 6.18098626,4.33736122 C6.05272844,4.65762668 6.21077737,5.02405624 6.53399843,5.15580453 Z M7.87154446,17.7042909 C8.19476552,17.8360392 8.56076147,17.6832158 8.6890193,17.3629504 C8.81727712,17.0426849 8.65922819,16.6762554 8.33600713,16.5445071 C8.01278607,16.4127588 7.64679012,16.5655821 7.51853229,16.8858476 C7.39027447,17.2061131 7.5483234,17.5725426 7.87154446,17.7042909 Z M4.5229088,12.970327 C4.7768682,13.0738435 5.06592179,12.9500591 5.16852805,12.6938467 C5.27113431,12.4376343 5.14843834,12.1460164 4.89447894,12.0424999 C4.64051953,11.9389834 4.35146595,12.0627679 4.24885969,12.3189802 C4.14625343,12.5751926 4.26894939,12.8668105 4.5229088,12.970327 Z" id="Combined-Shape" fill="#FFFFFF"></path>
                <path d="M19.8236566,15.4374806 C21.9022144,10.2928695 19.5160595,4.48255265 14.50172,2.45662799 C13.533801,2.06556334 12.5246448,1.83821135 11.5033595,1.77492441 L11.9073694,21.6847562 C15.3958387,21.1975172 18.4452555,18.8491431 19.8236566,15.4374806 Z M11.4185819,22.2423868 L10.9927458,1.25694521 C12.2280559,1.26689872 13.4788132,1.50407945 14.6890233,1.99303606 C19.9618679,4.12340354 22.4682787,10.2265449 20.2872486,15.6247839 C18.7331459,19.471323 15.2184142,21.9220482 11.4185819,22.2423868 Z" id="Oval-5" fill="#FFFFFF" fill-rule="nonzero"></path>
                <polygon id="Line" fill="#FFFFFF" fill-rule="nonzero" points="16.1439263 2.90826578 11.1467879 7.48446945 11.4844695 7.85321212 16.4816078 3.27700845"></polygon>
                <polygon id="Line-Copy" fill="#FFFFFF" fill-rule="nonzero" points="18.5188392 5.14694889 11.5915562 11.3723882 11.9257681 11.7442785 18.8530511 5.51883919"></polygon>
                <polygon id="Line-Copy-2" fill="#FFFFFF" fill-rule="nonzero" points="20.530838 8.14779407 11.2683965 15.9188376 11.5897644 16.3018816 20.8522059 8.53083803"></polygon>
                <polygon id="Line-Copy-3" fill="#FFFFFF" fill-rule="nonzero" points="20.5207614 12.1470567 11.1470567 20.4792386 11.4792386 20.8529433 20.8529433 12.5207614"></polygon>
            </g>
        </g>
    </g>
</svg>