<?xml version="1.0" encoding="UTF-8"?>
<svg width="24px" height="24px" viewBox="0 0 24 24" version="1.1" xmlns="http://www.w3.org/2000/svg" xmlns:xlink="http://www.w3.org/1999/xlink">
    <!-- Generator: Sketch 42 (36781) - http://www.bohemiancoding.com/sketch -->
    <title>icon_bg_00</title>
    <desc>Created with Sketch.</desc>
    <defs></defs>
    <g id="Symbols" stroke="none" stroke-width="1" fill="none" fill-rule="evenodd">
        <g id="icon_bg_00" fill-rule="nonzero" fill="#FFFFFF">
            <g id="iconbg" transform="translate(2.000000, 2.000000)">
                <g id="bg">
                    <g id="Page-1">
                        <path d="M18.3333333,15.8371687 L18.3333333,4.16283131 L18.3333333,5 L15,5 L15,1.66666667 L15.8371687,1.66666667 L4.16283131,1.66666667 L5,1.66666667 L5,5 L1.66666667,5 L1.66666667,4.16283131 L1.66666667,15.8371687 L1.66666667,15 L5,15 L5,18.3333333 L4.16283131,18.3333333 L15.8371687,18.3333333 L15,18.3333333 L15,15 L18.3333333,15 L18.3333333,15.8371687 Z M1,2.50370994 C1,1.67323387 1.67276967,1 2.50370994,1 L17.49629,1 C18.3267661,1 19,1.67276967 19,2.50370994 L19,17.49629 C19,18.3267661 18.3272304,19 17.49629,19 L2.50370994,19 C1.67323387,19 1,18.3272304 1,17.49629 L1,2.50370994 Z M8.33333333,1.66666667 L11.6666667,1.66666667 L11.6666667,5 L8.33333333,5 L8.33333333,1.66666667 Z M8.33333333,8.33333333 L11.6666667,8.33333333 L11.6666667,11.6666667 L8.33333333,11.6666667 L8.33333333,8.33333333 Z M1.66666667,8.33333333 L5,8.33333333 L5,11.6666667 L1.66666667,11.6666667 L1.66666667,8.33333333 Z M15,8.33333333 L18.3333333,8.33333333 L18.3333333,11.6666667 L15,11.6666667 L15,8.33333333 Z M8.33333333,15 L11.6666667,15 L11.6666667,18.3333333 L8.33333333,18.3333333 L8.33333333,15 Z M11.6666667,5 L15,5 L15,8.33333333 L11.6666667,8.33333333 L11.6666667,5 Z M5,5 L8.33333333,5 L8.33333333,8.33333333 L5,8.33333333 L5,5 Z M11.6666667,11.6666667 L15,11.6666667 L15,15 L11.6666667,15 L11.6666667,11.6666667 Z M5,11.6666667 L8.33333333,11.6666667 L8.33333333,15 L5,15 L5,11.6666667 Z" id="bg"></path>
                    </g>
                </g>
            </g>
        </g>
    </g>
</svg>