<?xml version="1.0" encoding="UTF-8"?>
<svg width="24px" height="24px" viewBox="0 0 24 24" version="1.1" xmlns="http://www.w3.org/2000/svg" xmlns:xlink="http://www.w3.org/1999/xlink">
    <!-- Generator: Sketch 42 (36781) - http://www.bohemiancoding.com/sketch -->
    <title>icon_ok</title>
    <desc>Created with Sketch.</desc>
    <defs></defs>
    <g id="Symbols" stroke="none" stroke-width="1" fill="none" fill-rule="evenodd">
        <g id="icon_ok" fill="#FFFFFF">
            <path d="M18.71875,9.890625 C18.71875,9.64756823 18.6406258,9.44791745 18.484375,9.29166667 L17.2994792,8.11979167 C17.1345478,7.95486029 16.9392372,7.87239583 16.7135417,7.87239583 C16.4878461,7.87239583 16.2925355,7.95486029 16.1276042,8.11979167 L10.8151042,13.4192708 L7.87239583,10.4765625 C7.70746445,10.3116311 7.51215391,10.2291667 7.28645833,10.2291667 C7.06076276,10.2291667 6.86545221,10.3116311 6.70052083,10.4765625 L5.515625,11.6484375 C5.35937422,11.8046883 5.28125,12.0043391 5.28125,12.2473958 C5.28125,12.481772 5.35937422,12.6770826 5.515625,12.8333333 L10.2291667,17.546875 C10.394098,17.7118064 10.5894086,17.7942708 10.8151042,17.7942708 C11.0494803,17.7942708 11.2491311,17.7118064 11.4140625,17.546875 L18.484375,10.4765625 C18.6406258,10.3203117 18.71875,10.1250012 18.71875,9.890625 Z M22,12 C22,13.8142452 21.5529559,15.4874055 20.6588542,17.0195312 C19.7647525,18.551657 18.551657,19.7647525 17.0195312,20.6588542 C15.4874055,21.5529559 13.8142452,22 12,22 C10.1857548,22 8.51259447,21.5529559 6.98046875,20.6588542 C5.44834303,19.7647525 4.23524753,18.551657 3.34114583,17.0195312 C2.44704414,15.4874055 2,13.8142452 2,12 C2,10.1857548 2.44704414,8.51259447 3.34114583,6.98046875 C4.23524753,5.44834303 5.44834303,4.23524753 6.98046875,3.34114583 C8.51259447,2.44704414 10.1857548,2 12,2 C13.8142452,2 15.4874055,2.44704414 17.0195312,3.34114583 C18.551657,4.23524753 19.7647525,5.44834303 20.6588542,6.98046875 C21.5529559,8.51259447 22,10.1857548 22,12 Z" id="check-circle---fontawesome"></path>
        </g>
    </g>
</svg>