<?xml version="1.0" encoding="UTF-8"?>
<svg width="80px" height="80px" viewBox="0 0 80 80" version="1.1" xmlns="http://www.w3.org/2000/svg" xmlns:xlink="http://www.w3.org/1999/xlink">
    <!-- Generator: Sketch 42 (36781) - http://www.bohemiancoding.com/sketch -->
    <title>bt_img_edit</title>
    <desc>Created with Sketch.</desc>
    <defs></defs>
    <g id="image-style" stroke="none" stroke-width="1" fill="none" fill-rule="evenodd">
        <g id="Img-style01" transform="translate(-167.000000, -110.000000)">
            <g id="bt_img_edit" transform="translate(167.000000, 110.000000)">
                <circle id="Oval" fill="#222222" opacity="0.7" cx="40" cy="40" r="40"></circle>
                <path d="M33.750495,49.9722772 L35.1920792,48.5306931 L31.4693069,44.8079208 L30.0277228,46.249505 L30.0277228,47.9445545 L32.0554455,47.9445545 L32.0554455,49.9722772 L33.750495,49.9722772 Z M42.0356436,35.2712871 C42.0356436,35.0389427 41.9194731,34.9227723 41.6871287,34.9227723 C41.5815176,34.9227723 41.4917495,34.9597356 41.4178218,35.0336634 L32.8316832,43.619802 C32.7577554,43.6937297 32.7207921,43.7834978 32.7207921,43.8891089 C32.7207921,44.1214533 32.8369625,44.2376238 33.0693069,44.2376238 C33.174918,44.2376238 33.2646861,44.2006604 33.3386139,44.1267327 L41.9247525,35.5405941 C41.9986802,35.4666663 42.0356436,35.3768982 42.0356436,35.2712871 Z M41.180198,32.229703 L47.770297,38.819802 L34.590099,52 L28,52 L28,45.409901 L41.180198,32.229703 Z M52,33.750495 C52,34.3102338 51.8046224,34.7854766 51.4138614,35.1762376 L48.7841584,37.8059406 L42.1940594,31.2158416 L44.8237624,28.6019802 C45.2039623,28.2006581 45.6792051,28 46.249505,28 C46.8092437,28 47.289767,28.2006581 47.6910891,28.6019802 L51.4138614,32.3089109 C51.8046224,32.7207941 52,33.2013174 52,33.750495 Z" id="pencil---fontawesome" fill="#FFFFFF"></path>
            </g>
        </g>
    </g>
</svg>