<?xml version="1.0" encoding="UTF-8"?>
<svg width="18px" height="18px" viewBox="0 0 18 18" version="1.1" xmlns="http://www.w3.org/2000/svg" xmlns:xlink="http://www.w3.org/1999/xlink">
    <!-- Generator: Sketch 42 (36781) - http://www.bohemiancoding.com/sketch -->
    <title>icon_start</title>
    <desc>Created with Sketch.</desc>
    <defs></defs>
    <g id="問卷-基本設定" stroke="none" stroke-width="1" fill="none" fill-rule="evenodd">
        <g id="Form01-Copy-4" transform="translate(-778.000000, -952.000000)" fill="#FF6C00">
            <g id="icon/start" transform="translate(775.000000, 949.000000)">
                <path d="M17.7700893,12 C17.7700893,11.7991061 17.7031257,11.6316971 17.5691964,11.4977679 L12.5133929,6.44196429 C12.3794636,6.30803504 12.2120546,6.24107143 12.0111607,6.24107143 C11.8102669,6.24107143 11.6428578,6.30803504 11.5089286,6.44196429 L10.4933036,7.45758929 C10.3593743,7.59151853 10.2924107,7.75892757 10.2924107,7.95982143 C10.2924107,8.16071529 10.3593743,8.32812433 10.4933036,8.46205357 L12.6026786,10.5714286 L7,10.5714286 C6.80654665,10.5714286 6.63913761,10.6421124 6.49776786,10.7834821 C6.3563981,10.9248519 6.28571429,11.0922609 6.28571429,11.2857143 L6.28571429,12.7142857 C6.28571429,12.9077391 6.3563981,13.0751481 6.49776786,13.2165179 C6.63913761,13.3578876 6.80654665,13.4285714 7,13.4285714 L12.6026786,13.4285714 L10.4933036,15.5379464 C10.3519338,15.6793162 10.28125,15.8467252 10.28125,16.0401786 C10.28125,16.2336319 10.3519338,16.401041 10.4933036,16.5424107 L11.5089286,17.5580357 C11.6428578,17.691965 11.8102669,17.7589286 12.0111607,17.7589286 C12.2120546,17.7589286 12.3794636,17.691965 12.5133929,17.5580357 L17.5691964,12.5022321 C17.7031257,12.3683029 17.7700893,12.2008939 17.7700893,12 Z M20.5714286,12 C20.5714286,13.5550673 20.1882479,14.9892047 19.421875,16.3024554 C18.6555021,17.615706 17.615706,18.6555021 16.3024554,19.421875 C14.9892047,20.1882479 13.5550673,20.5714286 12,20.5714286 C10.4449327,20.5714286 9.01079526,20.1882479 7.69754464,19.421875 C6.38429403,18.6555021 5.34449788,17.615706 4.578125,16.3024554 C3.81175212,14.9892047 3.42857143,13.5550673 3.42857143,12 C3.42857143,10.4449327 3.81175212,9.01079526 4.578125,7.69754464 C5.34449788,6.38429403 6.38429403,5.34449788 7.69754464,4.578125 C9.01079526,3.81175212 10.4449327,3.42857143 12,3.42857143 C13.5550673,3.42857143 14.9892047,3.81175212 16.3024554,4.578125 C17.615706,5.34449788 18.6555021,6.38429403 19.421875,7.69754464 C20.1882479,9.01079526 20.5714286,10.4449327 20.5714286,12 Z" id="arrow-circle-right---fontawesome"></path>
            </g>
        </g>
    </g>
</svg>