<?xml version="1.0" encoding="UTF-8"?>
<svg width="18px" height="18px" viewBox="0 0 18 18" version="1.1" xmlns="http://www.w3.org/2000/svg" xmlns:xlink="http://www.w3.org/1999/xlink">
    <!-- Generator: Sketch 42 (36781) - http://www.bohemiancoding.com/sketch -->
    <title>icon_photo_refresh</title>
    <desc>Created with Sketch.</desc>
    <defs></defs>
    <g id="Symbols" stroke="none" stroke-width="1" fill="none" fill-rule="evenodd">
        <g id="icon_photo_refresh" fill="#F05623">
            <path d="M9.10001812,15 L2.55555556,15 C1.69644594,15 1,14.3035541 1,13.4444444 L1,2.55555556 C1,1.69644594 1.69644594,1 2.55555556,1 L13.4444444,1 C14.3,1 15,1.69222222 15,2.55555556 L15,9.10001812 C14.6768901,9.03443026 14.3424658,9 14,9 C13.0019187,9 12.0721405,9.29244059 11.2916771,9.79631016 L9.94444444,8 L7.22222222,11.5 L5.27777778,9.16666667 L2.55555556,12.6666667 L9.17974424,12.6666667 C9.06258843,13.0911454 9,13.5382636 9,14 C9,14.3424658 9.03443026,14.6768901 9.10001812,15 Z" id="Combined-Shape"></path>
            <path d="M17.5887277,14.7129257 C17.5887277,14.7296668 17.5870536,14.7413855 17.5837054,14.7480819 C17.3694186,15.6454078 16.9207623,16.3728001 16.2377232,16.9302806 C15.5546841,17.4877611 14.7544689,17.7664971 13.8370536,17.7664971 C13.3482118,17.7664971 12.8752813,17.6744221 12.4182478,17.4902694 C11.9612142,17.3061167 11.5535732,17.0432845 11.1953125,16.701765 L10.547433,17.3496444 C10.4838166,17.4132608 10.4084826,17.4450685 10.3214286,17.4450685 C10.2343746,17.4450685 10.1590405,17.4132608 10.0954241,17.3496444 C10.0318077,17.286028 10,17.210694 10,17.12364 L10,14.87364 C10,14.786586 10.0318077,14.7112519 10.0954241,14.6476355 C10.1590405,14.5840191 10.2343746,14.5522114 10.3214286,14.5522114 L12.5714286,14.5522114 C12.6584826,14.5522114 12.7338166,14.5840191 12.797433,14.6476355 C12.8610494,14.7112519 12.8928571,14.786586 12.8928571,14.87364 C12.8928571,14.960694 12.8610494,15.036028 12.797433,15.0996444 L12.109375,15.7877025 C12.3470994,16.0086857 12.616628,16.1794429 12.9179688,16.2999793 C13.2193095,16.4205156 13.5323644,16.4807828 13.8571429,16.4807828 C14.3058058,16.4807828 14.7243284,16.3719669 15.1127232,16.1543319 C15.501118,15.9366969 15.8124988,15.6370347 16.046875,15.2553364 C16.0837055,15.1984165 16.1724323,15.0025479 16.313058,14.6677248 C16.3398439,14.5907155 16.3900666,14.5522114 16.4637277,14.5522114 L17.4280134,14.5522114 C17.4715404,14.5522114 17.5092074,14.5681153 17.5410156,14.5999234 C17.5728238,14.6317316 17.5887277,14.6693987 17.5887277,14.7129257 Z M17.7142857,10.6950685 L17.7142857,12.9450685 C17.7142857,13.0321225 17.682478,13.1074566 17.6188616,13.171073 C17.5552452,13.2346894 17.4799111,13.2664971 17.3928571,13.2664971 L15.1428571,13.2664971 C15.0558031,13.2664971 14.9804691,13.2346894 14.9168527,13.171073 C14.8532363,13.1074566 14.8214286,13.0321225 14.8214286,12.9450685 C14.8214286,12.8580145 14.8532363,12.7826805 14.9168527,12.7190641 L15.609933,12.0259837 C15.1143948,11.5672761 14.5301373,11.3379257 13.8571429,11.3379257 C13.4084799,11.3379257 12.9899573,11.4467416 12.6015625,11.6643766 C12.2131677,11.8820116 11.9017869,12.1816738 11.6674107,12.5633721 C11.6305802,12.620292 11.5418534,12.8161606 11.4012277,13.1509837 C11.3744418,13.227993 11.3242191,13.2664971 11.250558,13.2664971 L10.2511161,13.2664971 C10.2075891,13.2664971 10.169922,13.2505933 10.1381138,13.2187851 C10.1063056,13.1869769 10.0904018,13.1493098 10.0904018,13.1057828 L10.0904018,13.0706266 C10.3080368,12.1733007 10.7600412,11.4459084 11.4464286,10.8884279 C12.1328159,10.3309474 12.9363793,10.0522114 13.8571429,10.0522114 C14.3459846,10.0522114 14.8214263,10.1451234 15.2834821,10.3309502 C15.745538,10.5167771 16.1556902,10.7787722 16.5139509,11.1169435 L17.1668527,10.4690641 C17.2304691,10.4054477 17.3058031,10.37364 17.3928571,10.37364 C17.4799111,10.37364 17.5552452,10.4054477 17.6188616,10.4690641 C17.682478,10.5326805 17.7142857,10.6080145 17.7142857,10.6950685 Z" id="refresh---fontawesome"></path>
        </g>
    </g>
</svg>