<?xml version="1.0" encoding="UTF-8"?>
<svg width="12px" height="15px" viewBox="0 0 12 15" version="1.1" xmlns="http://www.w3.org/2000/svg" xmlns:xlink="http://www.w3.org/1999/xlink">
    <!-- Generator: Sketch 42 (36781) - http://www.bohemiancoding.com/sketch -->
    <title>icon_lock</title>
    <desc>Created with Sketch.</desc>
    <defs></defs>
    <g id="問卷-基本設定" stroke="none" stroke-width="1" fill="none" fill-rule="evenodd">
        <g id="Form01-Copy-6" transform="translate(-704.000000, -65.000000)" fill="#B7BEBF">
            <g id="icon/lock" transform="translate(700.000000, 62.500000)">
                <path d="M7.42857143,9.35714286 L12.5714286,9.35714286 L12.5714286,7.42857143 C12.5714286,6.71874645 12.320315,6.11272573 11.8180804,5.61049107 C11.3158457,5.10825642 10.709825,4.85714286 10,4.85714286 C9.29017502,4.85714286 8.6841543,5.10825642 8.18191964,5.61049107 C7.67968499,6.11272573 7.42857143,6.71874645 7.42857143,7.42857143 L7.42857143,9.35714286 Z M15.7857143,10.3214286 L15.7857143,16.1071429 C15.7857143,16.3750013 15.6919652,16.6026776 15.5044643,16.7901786 C15.3169633,16.9776795 15.0892871,17.0714286 14.8214286,17.0714286 L5.17857143,17.0714286 C4.91071295,17.0714286 4.68303665,16.9776795 4.49553571,16.7901786 C4.30803478,16.6026776 4.21428571,16.3750013 4.21428571,16.1071429 L4.21428571,10.3214286 C4.21428571,10.0535701 4.30803478,9.82589379 4.49553571,9.63839286 C4.68303665,9.45089192 4.91071295,9.35714286 5.17857143,9.35714286 L5.5,9.35714286 L5.5,7.42857143 C5.5,6.19642241 5.94195987,5.13839728 6.82589286,4.25446429 C7.70982585,3.37053129 8.76785098,2.92857143 10,2.92857143 C11.232149,2.92857143 12.2901742,3.37053129 13.1741071,4.25446429 C14.0580401,5.13839728 14.5,6.19642241 14.5,7.42857143 L14.5,9.35714286 L14.8214286,9.35714286 C15.0892871,9.35714286 15.3169633,9.45089192 15.5044643,9.63839286 C15.6919652,9.82589379 15.7857143,10.0535701 15.7857143,10.3214286 Z" id="lock---fontawesome"></path>
            </g>
        </g>
    </g>
</svg>