<?xml version="1.0" encoding="UTF-8"?>
<svg width="22px" height="22px" viewBox="0 0 22 22" version="1.1" xmlns="http://www.w3.org/2000/svg" xmlns:xlink="http://www.w3.org/1999/xlink">
    <!-- Generator: Sketch 42 (36781) - http://www.bohemiancoding.com/sketch -->
    <title>icon_blue_move</title>
    <desc>Created with Sketch.</desc>
    <defs></defs>
    <g id="draft" stroke="none" stroke-width="1" fill="none" fill-rule="evenodd">
        <g id="Form01" transform="translate(-1159.000000, -325.000000)" fill="#A5C4CE">
            <g id="Group-6" transform="translate(1061.000000, 323.500000)">
                <g id="icon/blue/move" transform="translate(97.221078, 0.622863)">
                    <path d="M18.8973214,7.24553571 L14.1428571,12 L18.8973214,16.7544643 L20.8258929,14.8258929 C21.0848227,14.5491058 21.3973196,14.4866064 21.7633929,14.6383929 C22.1116089,14.7901793 22.2857143,15.0535696 22.2857143,15.4285714 L22.2857143,21.4285714 C22.2857143,21.6607154 22.2008937,21.8616063 22.03125,22.03125 C21.8616063,22.2008937 21.6607154,22.2857143 21.4285714,22.2857143 L15.4285714,22.2857143 C15.0535696,22.2857143 14.7901793,22.1071446 14.6383929,21.75 C14.4866064,21.401784 14.5491058,21.0937513 14.8258929,20.8258929 L16.7544643,18.8973214 L12,14.1428571 L7.24553571,18.8973214 L9.17410714,20.8258929 C9.45089424,21.0937513 9.51339362,21.401784 9.36160714,21.75 C9.20982067,22.1071446 8.94643045,22.2857143 8.57142857,22.2857143 L2.57142857,22.2857143 C2.33928455,22.2857143 2.13839371,22.2008937 1.96875,22.03125 C1.79910629,21.8616063 1.71428571,21.6607154 1.71428571,21.4285714 L1.71428571,15.4285714 C1.71428571,15.0535696 1.89285536,14.7901793 2.25,14.6383929 C2.59821603,14.4866064 2.90624866,14.5491058 3.17410714,14.8258929 L5.10267857,16.7544643 L9.85714286,12 L5.10267857,7.24553571 L3.17410714,9.17410714 C3.00446344,9.34375085 2.80357259,9.42857143 2.57142857,9.42857143 C2.46428518,9.42857143 2.35714339,9.40625022 2.25,9.36160714 C1.89285536,9.20982067 1.71428571,8.94643045 1.71428571,8.57142857 L1.71428571,2.57142857 C1.71428571,2.33928455 1.79910629,2.13839371 1.96875,1.96875 C2.13839371,1.79910629 2.33928455,1.71428571 2.57142857,1.71428571 L8.57142857,1.71428571 C8.94643045,1.71428571 9.20982067,1.89285536 9.36160714,2.25 C9.51339362,2.59821603 9.45089424,2.90624866 9.17410714,3.17410714 L7.24553571,5.10267857 L12,9.85714286 L16.7544643,5.10267857 L14.8258929,3.17410714 C14.5491058,2.90624866 14.4866064,2.59821603 14.6383929,2.25 C14.7901793,1.89285536 15.0535696,1.71428571 15.4285714,1.71428571 L21.4285714,1.71428571 C21.6607154,1.71428571 21.8616063,1.79910629 22.03125,1.96875 C22.2008937,2.13839371 22.2857143,2.33928455 22.2857143,2.57142857 L22.2857143,8.57142857 C22.2857143,8.94643045 22.1116089,9.20982067 21.7633929,9.36160714 C21.6473208,9.40625022 21.5357148,9.42857143 21.4285714,9.42857143 C21.1964274,9.42857143 20.9955366,9.34375085 20.8258929,9.17410714 L18.8973214,7.24553571 Z" id=""></path>
                </g>
            </g>
        </g>
    </g>
</svg>