<?xml version="1.0" encoding="UTF-8"?>
<svg width="68px" height="109px" viewBox="0 0 68 109" version="1.1" xmlns="http://www.w3.org/2000/svg" xmlns:xlink="http://www.w3.org/1999/xlink">
    <!-- Generator: Sketch 42 (36781) - http://www.bohemiancoding.com/sketch -->
    <title>Group 4</title>
    <desc>Created with Sketch.</desc>
    <defs>
        <path d="M24.4428297,28.3612477 C28.9692796,29.0228058 34.4010196,27.3515012 39.6934841,30.6941104 C44.9859487,34.0019008 50.3828697,42.4628803 47.3188113,47.5116129 C43.5931948,53.6049109 30.5013088,61.7177019 18.1057998,59.6982089 C14.449821,58.9321943 9.3662695,54.1271936 6.96376914,47.8598013 C4.56126879,41.5924091 5.2576457,36.7525896 5.91920377,34.62864 C6.58076184,32.5046904 9.81891449,26.0283851 15.2854733,26.0283851 C17.5835171,26.0283851 19.9163797,27.6996897 24.4428297,28.3612477 Z" id="path-1"></path>
        <mask id="mask-2" maskContentUnits="userSpaceOnUse" maskUnits="objectBoundingBox" x="0" y="0" width="42.9218276" height="33.9849619" fill="white">
            <use xlink:href="#path-1"></use>
        </mask>
    </defs>
    <g id="問卷-基本設定" stroke="none" stroke-width="1" fill="none" fill-rule="evenodd">
        <g id="Form01-Copy-4" transform="translate(-675.000000, -132.000000)" fill-rule="nonzero">
            <g id="Group-4" transform="translate(709.176289, 187.019034) scale(-1, 1) translate(-709.176289, -187.019034) translate(675.676289, 132.519034)">
                <path d="M22.5974309,10.0974653 C22.5974309,10.0974653 19.8467421,6.65039953 18.3495317,3.06405842 C17.0960532,0.104456537 15.7032994,-0.591920377 14.2409079,1.35793498 C12.7785164,3.30779034 10.2367406,8.56543604 12.4303279,12.2910525 C13.8579006,14.6935529 16.5737706,15.2158356 16.5737706,15.2158356 C16.5737706,15.2158356 21.1350393,16.1559444 22.5974309,10.0974653 Z" id="Shape" stroke="#CCCCCC" fill="#FFFFFF"></path>
                <path d="M15.1375983,4.29982099 C15.1375983,4.29982099 17.7719809,4.971414 18.0853505,6.78199398 C18.3987201,8.59257395 18.1668379,9.87083631 18.2016567,11.3332278" id="Shape" fill="#CCCCCC" transform="translate(16.694705, 7.816524) scale(-1, 1) rotate(43.000000) translate(-16.694705, -7.816524) "></path>
                <path d="M29.4915623,97.4696053 C29.7004754,97.5044242 32.8689904,98.1311634 34.1921065,97.5044242 C34.3313819,100.429207 35.4107661,103.493266 35.4107661,103.493266 L40.2505856,103.493266 C40.2505856,103.493266 39.3104768,95.5893877 42.5138106,92.4208727 C45.2296806,89.5657273 42.3397164,86.5364878 42.4441729,86.1186616" id="Shape" stroke="#CCCCCC" fill="#FFFFFF"></path>
                <path d="M40.702681,106.175114 C40.702681,106.732216 40.1466406,106.975948 39.550883,106.975948 L36.1749234,106.975948 C35.5394486,106.975948 35.0231254,106.627759 35.0628425,106.070658 L35.0628425,105.443919 C35.0628425,104.886817 35.618883,104.538629 36.2146406,104.538629 L39.5906002,104.538629 C40.226075,104.538629 40.7423982,104.991274 40.702681,105.548375 L40.702681,106.175114 Z" id="Shape" fill="#CCCCCC"></path>
                <path d="M53.9933051,77.9582677 C53.9933051,77.9582677 54.5966308,83.5057154 56.2331165,84.4110054 C56.4076461,85.3472581 58.0663924,85.1194385 58.6947018,84.3624468 C59.3230112,83.6054551 59.1851668,82.1330681 59.0341698,81.5977019 C59.8526565,80.6457895 60.8833108,77.9659116 57.6841028,76.9485211 C57.6841028,76.9485211 56.5117757,73.5703184 53.7495732,75.2423977" id="Shape" stroke="#CCCCCC" fill="#FFFFFF" transform="translate(56.808881, 79.901805) rotate(-22.000000) translate(-56.808881, -79.901805) "></path>
                <path d="M33.2519977,9.43590719 C33.2519977,9.43590719 26.4623227,5.29246455 23.2938078,9.92337103 C23.2938078,9.92337103 17.2701475,6.75485607 13.1267048,12.1169583 C13.1267048,12.1169583 4.84554772,12.9214606 4.73536302,20.3690247 C4.73536302,20.3690247 1.42757267,23.5027209 3.02923958,28.4818158 C3.02923958,28.4818158 0.591920377,31.0584104 2.61141343,33.2171788 C2.61141343,33.2171788 -2.01949305,36.6990634 1.81057998,42.6879048 C1.81057998,42.6879048 -0.348188457,47.1098982 3.48188457,49.7909494 C3.48188457,49.7909494 0.696376914,57.102907 7.52087067,61.2811685 C7.52087067,61.2811685 6.26739223,64.4148646 8.73953027,65.8076184 C8.73953027,65.8076184 7.27713875,71.7964599 11.4205814,74.2337791 C11.4205814,74.2337791 10.7938422,75.5568952 11.8384075,76.949649 C11.8384075,76.949649 11.4205814,79.0387798 12.5347845,80.4315336 C12.5347845,80.4315336 9.66067689,88.0011275 9.62395704,92.3039799 C9.58723718,96.6068322 9.62395704,99.9166792 9.62395704,101.819854 C9.62395704,101.819854 12.5347845,101.819854 14.3818941,102.771441 C14.3818941,102.771441 15.0110192,100.577404 15.3334816,98.9650918 C15.6559439,97.35278 16.285069,94.2071547 16.285069,94.2071547 C16.285069,94.2071547 17.2366564,93.4537819 17.2366564,94.8465357 C16.8884679,99.7211741 18.4539882,102.715595 19.4637348,104.456537 L24.0250035,104.108349 C24.0250035,104.108349 24.373192,98.5373334 29.2478304,97.492768 C29.2478304,97.492768 32.729715,99.9300872 33.7742803,100.278276 C34.8188457,100.626464 41.8870714,102.054037 43.8369268,94.8465357 C43.8369268,94.8465357 43.2450064,101.288022 45.4037748,102.994146 L50.4873263,103.098602 C50.4873263,103.098602 51.5667105,96.4482026 54.839682,91.5735642 C57.0332693,88.3005927 57.102907,81.8939251 52.5416382,78.2727652 C47.3188113,74.0945037 41.0862379,75.5568952 38.579281,78.1683086 C36.6642445,80.1529828 35.1670342,82.5206643 36.2115995,80.779722 C39.6934841,76.949649 40.9121437,72.8758441 42.3397164,69.498416 C42.3397164,69.498416 47.2839925,68.5234884 47.9107317,62.2212773 C47.9107317,62.2212773 54.4914935,60.5499727 54.387037,55.2575081 C54.387037,55.2575081 61.0026177,51.2881597 58.6001173,47.1098982 C58.6001173,47.1098982 63.64885,38.7533753 59.0527623,34.1572876 C59.0527623,34.1572876 62.952473,24.6865616 56.3717112,21.3091336 C56.3717112,21.3091336 55.1878705,14.6239152 50.3828697,15.0417413 C50.3828697,15.0417413 47.0054417,10.8634799 43.1405498,11.1072118 C39.3104768,11.3857625 41.9915279,7.72978375 33.2519977,9.43590719 Z" id="Shape" stroke="#CCCCCC" fill="#FFFFFF"></path>
                <use id="Shape" stroke="#CCCCCC" mask="url(#mask-2)" stroke-width="2" fill="#FFFFFF" xlink:href="#path-1"></use>
                <path d="M52.1934497,18.1057998 C52.1934497,18.1057998 60.8981611,16.6434082 64.5541399,12.7785164 C64.5541399,12.7785164 68.1752999,11.5598568 65.9817126,19.6030101 C64.0666761,26.6015981 56.5806243,25.6266704 56.5806243,25.6266704 C56.5806243,25.6266704 49.5123986,23.920547 52.1934497,18.1057998 Z" id="Shape" stroke="#CCCCCC" fill="#FFFFFF"></path>
                <path d="M29.8636498,40.8799207 L37.9575449,44.3727051" id="Shape" stroke="#CCCCCC" stroke-width="2" stroke-linecap="round" stroke-linejoin="round" fill="#000000"></path>
                <path d="M11.6886093,38.0002104 L6.7299274,38.0002104" id="Shape" stroke="#CCCCCC" stroke-width="2" stroke-linecap="round" stroke-linejoin="round" fill="#000000"></path>
                <path d="M20.1875927,47.8763444 C20.1875927,47.8763444 15.2084977,50.2440259 13.8505627,50.1743882 C11.6221566,50.0699317 11.308787,46.1005833 11.308787,46.1005833 C11.308787,46.1005833 9.21965625,51.4278667 14.23357,55.640947 C14.23357,55.640947 17.1235342,57.5908024 19.3867592,56.3025051 C19.3519404,56.3025051 9.98567086,56.1980485 20.1875927,47.8763444 Z" id="Shape" fill="#CCCCCC" transform="translate(15.532371, 51.421618) rotate(-9.000000) translate(-15.532371, -51.421618) "></path>
                <path d="M62.9176542,19.185184 C62.9176542,19.185184 59.4705885,17.0264156 54.9093197,21.204677 C54.9093197,21.204677 55.0485951,22.2840613 56.9288127,22.4929743" id="Shape" fill="#CCCCCC"></path>
                <path d="M24.9692531,106.784952 C24.9692531,107.301162 24.4335786,107.726276 23.8264807,107.726276 L20.5052985,107.665545 C19.8982007,107.665545 19.3982378,107.210066 19.3982378,106.693856 L19.3982378,106.056186 C19.3982378,105.539976 19.9339123,105.114862 20.5410102,105.114862 L23.8621924,105.175593 C24.4692902,105.175593 24.9692531,105.631072 24.9692531,106.147281 L24.9692531,106.784952 Z" id="Shape" fill="#CCCCCC" transform="translate(22.183745, 106.420569) rotate(-6.000000) translate(-22.183745, -106.420569) "></path>
                <path d="M10.5956415,107.10984 C10.0733588,106.950724 9.79480806,106.314259 9.93408345,105.757352 L10.7349169,102.614805 C10.8741923,102.018118 11.4312938,101.699886 11.9187577,101.859002 L12.5454969,102.057898 C13.0677796,102.217014 13.3463303,102.853479 13.2070549,103.450165 L12.4062215,106.592712 C12.2669461,107.189398 11.7098446,107.507631 11.1875619,107.348515 L10.5956415,107.10984 Z" id="Shape" fill="#CCCCCC" transform="translate(11.570569, 104.603758) rotate(-98.000000) translate(-11.570569, -104.603758) "></path>
                <path d="M50.6920728,105.675197 C50.6920728,106.197479 50.1440455,106.650124 49.5117063,106.615306 L46.0549187,106.545668 C45.4225795,106.545668 44.8745522,106.093023 44.9167081,105.57074 L44.9167081,104.909182 C44.9167081,104.386899 45.4647354,103.934254 46.0970746,103.969073 L49.5538622,104.038711 C50.1862014,104.038711 50.7342287,104.491356 50.6920728,105.013639 L50.6920728,105.675197 Z" id="Shape" fill="#CCCCCC"></path>
                <path d="M35.5012571,27.8769162 C35.5012571,27.8769162 31.6711841,33.4827504 34.8048802,36.7905407 C34.8048802,36.7905407 35.9190833,32.2989097 36.7199167,31.6025327 C36.7199167,31.6025327 32.4023799,37.0690915 39.2965113,42.0830053 C39.2965113,42.0830053 40.1321636,39.436773 40.9678159,38.0440192 C40.9678159,38.0440192 46.4691935,36.2334392 44.9371643,31.9507212" id="Shape" stroke="#CCCCCC" fill="#FFFFFF" transform="translate(39.389432, 34.979961) scale(-1, 1) rotate(-41.000000) translate(-39.389432, -34.979961) "></path>
            </g>
        </g>
    </g>
</svg>