<?xml version="1.0" encoding="utf-8"?>
<!-- Generator: Adobe Illustrator 16.0.0, SVG Export Plug-In . SVG Version: 6.00 Build 0)  -->
<!DOCTYPE svg PUBLIC "-//W3C//DTD SVG 1.1//EN" "http://www.w3.org/Graphics/SVG/1.1/DTD/svg11.dtd">
<svg version="1.1" id="Layer_1" xmlns="http://www.w3.org/2000/svg" xmlns:xlink="http://www.w3.org/1999/xlink" x="0px" y="0px"
	 width="198.426px" height="198.425px" viewBox="0 0 198.426 198.425" enable-background="new 0 0 198.426 198.425"
	 xml:space="preserve">
<g>
	<defs>
		<filter id="Adobe_OpacityMaskFilter" filterUnits="userSpaceOnUse" x="39.094" y="5.641" width="130.451" height="229.887">
			<feColorMatrix  type="matrix" values="1 0 0 0 0  0 1 0 0 0  0 0 1 0 0  0 0 0 1 0"/>
		</filter>
	</defs>
	<mask maskUnits="userSpaceOnUse" x="39.094" y="5.641" width="130.451" height="229.887" id="SVGID_1_">
		<g filter="url(#Adobe_OpacityMaskFilter)">
			<path fill="#FFFFFF" stroke="#F15C27" stroke-width="1.4452" stroke-miterlimit="10" d="M173.039,97.638
				c-0.784,47.509-28.234,82.667-75.743,81.882c-47.509-0.785-76.648-39.79-75.863-87.299c0.784-47.509,44.32-130.475,91.829-129.69
				c29.692,0.49,53.937,34.718,61.744,71.82C179.692,56.612,173.333,79.822,173.039,97.638z"/>
		</g>
	</mask>
	<g mask="url(#SVGID_1_)">
		<g>
			<path fill="none" d="M66.266,15.437c-1.135,0.983-1.456,2.622-1.456,2.622l2.249,2.337c1.26-0.681,2.515-1.083,3.688-1.331
				C69.492,16.605,67.617,14.953,66.266,15.437z"/>
			<path fill="none" d="M70.015,73.542l16.574,4.461c0.163,0.044,0.326,0.065,0.486,0.065c0.823,0,1.576-0.549,1.8-1.381
				c0.268-0.995-0.321-2.018-1.316-2.286l-16.574-4.461c-0.993-0.267-2.018,0.322-2.286,1.316
				C68.431,72.252,69.02,73.275,70.015,73.542z"/>
			<path fill="none" d="M42.616,82.572c-2.602-0.997,0.629-8.539,0.629-8.539s-8.578,10.457-1.072,20.446
				c0,0,4.441,3.609,9.209,1.036c0,0-19.571-0.569,2.005-17.595C53.388,77.919,45.219,83.568,42.616,82.572z"/>
			<path fill="none" d="M71.918,22.544c-0.721,0.129-1.46,0.319-2.199,0.617l2.296,2.386C72.143,24.552,72.093,23.534,71.918,22.544
				z"/>
			<path fill="none" d="M148.02,56.287c-0.075,0.259-0.094,0.513-0.083,0.762c0.266,0.645,0.681,1.308,1.315,1.968l13.832-9.341
				c0,0-0.451-1.964-4.595-0.555c-3.965,1.348-4.921,2.126-9.115,2.359C149.727,53.448,148.54,55.504,148.02,56.287z"/>
			<path fill="none" d="M142.21,43.414c-0.006-0.03-0.673-3.781-3.396-4.947l-1.604-0.686l0.617-1.632
				c0.265-0.698-0.036-2.223-1.303-4.056c-1.758-2.544-5.045-5.111-8.429-5.111c-0.531,0-1.055,0.065-1.558,0.194l-1.114,0.286
				l-0.737-0.883c-0.041-0.048-4.3-5.056-8.71-5.056c-1.178,0-2.248,0.362-3.272,1.107l-1.056,0.768l-1.066-0.753
				c-0.068-0.048-6.972-4.852-13.708-4.852c-1.37,0-2.648,0.203-3.801,0.602l-0.455,0.158l-0.474-0.088
				c-0.024-0.004-2.428-0.443-5.251-0.443c-1.5,0-2.827,0.122-3.956,0.356c1.561,2.545,2.449,4.498,2.449,4.498
				c-7.271,18.11-20.134,9.149-20.134,9.149c-0.606-0.588-1.138-1.318-1.603-2.149c-0.488,1.148-0.938,2.469-1.336,4.005
				l-0.194,0.748l-0.672,0.38c-0.244,0.14-6.088,3.572-5.429,9.729c0.085,0.801,0.287,2.677,3.971,2.677c0,0,0,0,0,0
				c1.201,0,2.177-0.223,2.187-0.225l0.417-0.097l0.422,0.099c0.063,0.016,0.259,0.062,0.554,0.134
				c10.128-7.263,24.78-1.202,39.015,3.558c15.387,5.144,16.008,30.316,5.484,48.025s-49.297,15.792-49.297,15.792
				c-0.697-1.09-1.672-2.919-2.964-4.895c-2.582,1.308-8.076,5.657-4.836,17.971l0.296,1.164l-0.895,0.762
				c-0.057,0.048-5.99,5.093-3.025,9.034l0.882,1.178l-0.959,1.114c-0.265,0.31-6.507,7.752-2.106,14.706l0.403,0.638l-0.165,0.737
				c-0.926,4.124-2.472,16.533,2.402,19.352l1.077,0.623l-0.189,1.23c-0.01,0.07-1.046,7.402,3.507,10.651l0.664,0.473l0.089,0.81
				c0.008,0.065,0.819,6.888,4.952,12.697l0.29,0.407l0.041,0.497c0.59,7.082,2.499,19.102,5.213,22.787
				c0.229,0.016,0.507,0.037,0.848,0.064c1.19,0.095,2.815,0.224,4.081,0.227c0.447-0.737,1.17-2.134,1.749-4.216
				c0.394-1.416,0.797-3.915,1.135-7.039c0.095-1.418,0.226-2.318,0.231-2.355l3.616,0.413c0,0-0.076,0.928-0.219,2.258
				c-0.185,2.836-0.215,7.956,1.44,11.951c1.027,0.086,2.864,0.155,5.691,0.16c0.781-2.091,2.384-6.871,2.754-11.804l0.177-2.35
				l2.23,0.764c0.102,0.035,10.287,3.506,17.947,4.301c0.982,0.102,1.992,0.153,3,0.153c7.545,0,16.73-3.422,17.262-7.834
				l3.626,0.325c-0.413,7.048,0.375,13.972,1.708,15.528l5.44,0.202c-0.143-2.414,0.322-6.396,3.42-11.514
				c7.479-12.357,9.055-17.074,11.409-25.012c2.497-8.418-2.574-15.063-8.455-21.69c-2.489-2.806-6.135-4.004-12.188-4.004
				c-4.375,0-9.827,0.621-16.138,1.34c-3.501,0.399-7.469,0.852-11.727,1.251l-4.395,0.413l2.827-3.392
				c0.039-0.047,4.093-5.008,3.042-9.121l-0.286-1.12l0.891-0.736c4.003-3.305,7.922-8.1,7.375-9.971l-0.292-0.999l0.711-0.758
				c3.187-3.398,7.836-9.175,8.195-11.377l0.073-0.443l0.27-0.359c0.193-0.257,4.821-6.342,12.798-11.167
				c4.496-2.72,7.355-6.628,7.651-10.455l0.055-0.72l0.535-0.487c2.223-2.022,8.104-8.243,8.611-12.679
				c0.647-5.664-0.846-11.373-0.861-11.429l-0.208-0.782l0.441-0.679c0.047-0.075,4.875-7.624,3.353-13.028
				c-0.252-0.896-0.673-1.677-1.265-2.353c-1.765,0.203-3.636,0.129-5.594-0.333c0,0-4.81-1.077-5.201-5.042
				c-0.341-3.459,1.744-13.387,2.282-15.866l-1.091-0.261L142.21,43.414z"/>
			<path fill="#FFFFFF" d="M86.894,18.022c2.823,0,5.228,0.439,5.251,0.443l0.474,0.088l0.455-0.158
				c1.152-0.399,2.431-0.602,3.801-0.602c6.736,0,13.64,4.804,13.708,4.852l1.066,0.753l1.056-0.768
				c1.024-0.745,2.094-1.107,3.272-1.107c4.41,0,8.669,5.008,8.71,5.056l0.737,0.883l1.114-0.286
				c0.503-0.129,1.027-0.194,1.558-0.194c3.384,0,6.671,2.567,8.429,5.111c1.267,1.833,1.567,3.358,1.303,4.056l-0.617,1.632
				l1.604,0.686c2.723,1.166,3.39,4.917,3.396,4.947l0.193,1.199l1.091,0.261c0.079-0.363,0.125-0.568,0.125-0.568
				s2.179,0.997,4.822,0.957c-0.097-0.412-0.229-0.82-0.426-1.212c-0.386-0.768-1.116-1.721-2.474-2.325
				c-0.442-1.521-1.539-4.244-3.993-5.897c0.069-1.747-0.63-3.781-2.029-5.805c-2.129-3.083-6.4-6.683-11.425-6.683
				c-0.456,0-0.909,0.031-1.356,0.092c-1.666-1.722-5.915-5.551-10.763-5.551c-1.527,0-2.978,0.373-4.326,1.112
				c-2.376-1.479-8.473-4.842-14.775-4.842c-1.603,0-3.126,0.22-4.538,0.654c-0.91-0.143-3.018-0.425-5.443-0.425
				c-2.379,0-4.416,0.266-6.107,0.791c0.813,1.106,1.535,2.203,2.151,3.208C84.067,18.144,85.394,18.022,86.894,18.022z"/>
			<path fill="#FFFFFF" d="M147.936,57.048c-0.011-0.249,0.009-0.503,0.083-0.762c0.521-0.783,1.707-2.838,1.354-4.808
				c-0.188,0.011-0.372,0.021-0.573,0.03C148.8,51.509,146.712,54.078,147.936,57.048z"/>
			<path fill="#FFFFFF" d="M70.746,19.065c-1.173,0.248-2.428,0.649-3.688,1.331l2.66,2.765c0.739-0.297,1.478-0.488,2.199-0.617
				C71.699,21.306,71.28,20.112,70.746,19.065z"/>
			<path fill="#FFFFFF" d="M63.57,47.327c-0.295-0.072-0.491-0.119-0.554-0.134l-0.422-0.099l-0.417,0.097
				c-0.01,0.002-0.986,0.225-2.187,0.225c0,0,0,0,0,0c-3.685,0-3.886-1.876-3.971-2.677c-0.659-6.157,5.185-9.589,5.429-9.729
				l0.672-0.38l0.194-0.748c0.398-1.536,0.848-2.857,1.336-4.005c-0.733-1.309-1.298-2.872-1.704-4.558
				c-1.137,1.781-2.157,4.046-2.969,6.949c-1.956,1.327-7.348,5.676-6.58,12.859c0.389,3.625,2.967,5.757,7.097,5.916
				c1.061-1.059,1.708-1.696,1.708-1.696C61.958,48.577,62.751,47.914,63.57,47.327z"/>
			<path fill="#FFFFFF" d="M153.272,68.467c1.523,5.404-3.305,12.954-3.353,13.028l-0.441,0.679l0.208,0.782
				c0.015,0.057,1.509,5.765,0.861,11.429c-0.508,4.436-6.388,10.657-8.611,12.679l-0.535,0.487l-0.055,0.72
				c-0.296,3.827-3.156,7.735-7.651,10.455c-7.977,4.825-12.604,10.91-12.798,11.167l-0.27,0.359l-0.073,0.443
				c-0.358,2.203-5.008,7.979-8.195,11.377l-0.711,0.758l0.292,0.999c0.547,1.871-3.372,6.666-7.375,9.971l-0.891,0.736l0.286,1.12
				c1.051,4.113-3.003,9.074-3.042,9.121l-2.827,3.392l4.395-0.413c4.258-0.399,8.226-0.852,11.727-1.251
				c6.311-0.719,11.762-1.34,16.138-1.34c6.053,0,9.699,1.198,12.188,4.004c5.881,6.627,10.952,13.272,8.455,21.69
				c-2.354,7.938-3.93,12.654-11.409,25.012c-3.098,5.117-3.562,9.1-3.42,11.514l-5.44-0.202c-1.333-1.557-2.121-8.48-1.708-15.528
				l-3.626-0.325c-0.532,4.412-9.717,7.834-17.262,7.834c-1.008,0-2.018-0.052-3-0.153c-7.661-0.795-17.845-4.266-17.947-4.301
				l-2.23-0.764l-0.177,2.35c-0.37,4.933-1.973,9.713-2.754,11.804c-2.827-0.005-4.665-0.074-5.691-0.16
				c-1.655-3.995-1.625-9.115-1.44-11.951c0.143-1.33,0.219-2.258,0.219-2.258l-3.616-0.413c-0.005,0.037-0.136,0.938-0.231,2.355
				c-0.338,3.124-0.741,5.623-1.135,7.039c-0.579,2.082-1.302,3.479-1.749,4.216c-1.266-0.003-2.89-0.132-4.081-0.227
				c-0.341-0.027-0.619-0.049-0.848-0.064c-2.714-3.686-4.624-15.705-5.213-22.787l-0.041-0.497l-0.29-0.407
				c-4.133-5.81-4.944-12.632-4.952-12.697l-0.089-0.81l-0.664-0.473c-4.554-3.249-3.518-10.581-3.507-10.651l0.189-1.23
				l-1.077-0.623c-4.874-2.818-3.328-15.228-2.402-19.352l0.165-0.737l-0.403-0.638c-4.401-6.954,1.841-14.396,2.106-14.706
				l0.959-1.114l-0.882-1.178c-2.964-3.941,2.968-8.986,3.025-9.034l0.895-0.762l-0.296-1.164
				c-3.24-12.313,2.254-16.663,4.836-17.971c-0.614-0.939-1.304-1.91-2.066-2.853c-1.587,0.876-3.654,2.426-5.209,5.065
				c-2.386,4.05-2.841,9.322-1.353,15.683c-2.69,2.615-5.848,7.481-3.501,12.034c-1.916,2.698-6.119,9.975-1.983,17.3
				c-0.285,1.462-0.883,4.935-0.944,8.761c-0.101,6.4,1.308,10.809,4.208,13.131c-0.164,2.577-0.047,8.777,4.45,12.511
				c0.339,2.082,1.521,7.876,5.167,13.205c0.312,3.472,1.662,19.141,6.032,24.45v0.65l0.96,0.311l0.462,0.389l0.425-0.105
				l7.078,2.446l-2.243-2.237c0.805,0.03,1.578,0.035,2.194-0.009l0.772-0.055l0.497-0.594c0.11-0.133,0.771-0.953,1.523-2.529
				c0.31,1.061,0.699,2.096,1.187,3.068l0.39,0.777l0.849,0.186c1.062,0.232,3.607,0.351,7.567,0.351
				c0.617,0,1.009-0.004,1.009-0.004l1.188-0.011l0.469-1.091c0.107-0.248,2.358-5.542,3.225-11.779
				c3.512,1.1,10.64,3.158,16.593,3.775c1.106,0.115,2.243,0.174,3.376,0.174c6.953,0,13.318-2.062,17.157-5.158
				c0.15,5.056,0.956,11.175,3.839,12.896l0.399,0.239l8.749,0.324l2.721,0.071l-0.961-2.562c-0.061-0.163-1.448-4.063,2.667-10.859
				c7.711-12.741,9.344-17.63,11.784-25.861c3.279-11.054-4.243-19.532-9.221-25.144c-3.251-3.664-7.711-5.229-14.912-5.229
				c-4.583,0-10.129,0.633-16.55,1.363c-2.431,0.277-5.086,0.58-7.903,0.872c1.106-2.104,2.148-4.957,1.805-7.847
				c2.454-2.145,8.086-7.568,7.912-11.994c2.092-2.288,7.432-8.39,8.425-12.13c0.992-1.229,5.119-6.062,11.541-9.947
				c5.314-3.215,8.673-7.761,9.32-12.565c1.938-1.86,8.597-8.631,9.266-14.478c0.586-5.132-0.351-10.125-0.774-12.006
				c1.307-2.226,5.058-9.356,3.389-15.304c-0.229-0.816-0.557-1.569-0.962-2.271c-1.202,0.431-2.476,0.743-3.811,0.896
				C152.599,66.79,153.02,67.57,153.272,68.467z"/>
			<path fill="#FFFFFF" d="M67.059,20.396l-2.249-2.337c0,0,0.321-1.639,1.456-2.622c1.352-0.483,3.227,1.169,4.48,3.629
				c1.24-0.263,2.386-0.359,3.342-0.437c0.712-0.058,1.67-0.136,2.004-0.276c1.009-1.464,2.581-2.525,4.694-3.181
				c-2.128-2.896-4.883-5.853-8.036-7.374c-7.407-3.575-8.383-2.668-10.458,2.439c-1.363,3.355-1.621,9.802-0.347,15.082
				C63.503,22.876,65.283,21.355,67.059,20.396z"/>
			<path fill="#FFFFFF" d="M76.092,18.353c-0.333,0.14-1.292,0.218-2.004,0.276c-0.956,0.078-2.102,0.174-3.342,0.437
				c0.534,1.047,0.953,2.24,1.172,3.479c0.858-0.153,1.691-0.223,2.467-0.286c1.896-0.155,3.687-0.301,4.673-1.791
				c0.654-0.986,1.989-1.695,3.88-2.088c-0.616-1.005-1.338-2.101-2.151-3.208C78.673,15.827,77.101,16.889,76.092,18.353z"/>
			<path fill="#FFFFFF" d="M69.719,23.161l-2.66-2.765c-1.775,0.959-3.555,2.48-5.114,4.922c0.406,1.686,0.971,3.249,1.704,4.558
				C65.353,25.868,67.534,24.04,69.719,23.161z"/>
			<path fill="#FFFFFF" d="M56.739,109.403c3.402,0.416,6.729,0.467,9.894,0.467c0.002,0,0.005,0,0.007,0
				c17.937,0,28.873-6.601,34.889-12.271c6.171-5.815,8.544-11.465,8.888-12.37c2.135-4.299,2.726-8.376,1.974-13.607
				c-0.108-0.755-0.293-1.503-0.548-2.225c-1.61-4.547-5.578-6.762-5.746-6.854l-0.19-0.089c-3.549-1.442-7.953-3.418-12.21-5.328
				c-1.832-0.822-3.643-1.634-5.359-2.393c-6.588-2.91-21.651-6.647-24.767-7.406c-0.819,0.587-1.611,1.25-2.368,2.019
				c0,0-0.648,0.638-1.708,1.696c0.164,0.006,0.326,0.015,0.495,0.015l0,0c1.098,0,2.034-0.134,2.566-0.229
				c2.635,0.643,17.972,4.436,24.311,7.235c1.71,0.755,3.514,1.564,5.34,2.383c4.239,1.902,8.621,3.865,12.208,5.327
				c0.464,0.284,2.964,1.915,3.997,4.831c0.175,0.496,0.302,1,0.376,1.517c0.651,4.536,0.168,7.861-1.669,11.527l-0.086,0.163
				c-0.02,0.055-2.056,5.539-8,11.141c-5.536,5.217-15.649,11.278-32.392,11.278c-0.002,0-0.003,0-0.006,0
				c-3.134,0-6.44-0.057-9.828-0.487l-0.342,0.117l-0.335,0.084c-0.087,0.022-1.073,0.287-2.386,1.01
				c0.762,0.943,1.452,1.914,2.066,2.853C56.197,109.609,56.521,109.479,56.739,109.403z"/>
			<path fill="#FFFFFF" d="M168.825,42.728c-1.641-4.194-7.294-1.888-7.294-1.888s-6.006,2.11-9.839,3.764
				c-1.087,0.469-2.203,0.642-3.25,0.658c0.353,1.503,0.126,3.072-0.163,4.194c0.534,0.494,0.819,1.053,0.972,1.522
				c0.054,0.167,0.092,0.334,0.122,0.501c4.194-0.232,5.15-1.011,9.115-2.359c4.144-1.409,4.595,0.555,4.595,0.555l-13.832,9.341
				c-0.634-0.661-1.049-1.323-1.315-1.968c0.093,2.107,2.922,3.822,3.26,4.019c2.073,1.007,3.614,2.402,4.623,4.151
				c6.025-2.162,10.256-7.264,11.455-9.796C169.029,51.715,170.464,46.92,168.825,42.728z"/>
			<path fill="#FFFFFF" d="M151.196,61.067c-0.338-0.197-3.167-1.912-3.26-4.019c-1.224-2.97,0.864-5.54,0.864-5.54
				c0.201-0.008,0.385-0.019,0.573-0.03c-0.03-0.167-0.068-0.335-0.122-0.501c-0.153-0.469-0.438-1.028-0.972-1.522
				c0.289-1.122,0.516-2.691,0.163-4.194c-2.644,0.04-4.822-0.957-4.822-0.957s-0.046,0.206-0.125,0.568l0.089,0.021
				c0.784,0.187,1.04,0.52,1.177,0.788c0.532,1.051,0.001,3.065-0.337,3.872l-0.782,1.829L145.532,52
				c0.173,0.057,0.258,0.117,0.256,0.104c0.112,0.303-0.286,1.445-0.889,2.292l-0.143,0.198l-0.086,0.228
				c-1.677,4.469,2.23,8.045,4.804,9.455l0.087,0.044c1.014,0.486,1.824,1.082,2.446,1.792c1.335-0.153,2.609-0.465,3.811-0.896
				C154.81,63.47,153.27,62.075,151.196,61.067z"/>
		</g>
		<g>
			<path fill="#F15C27" d="M147.26,179.537c0,0-2.576,5.104,1.856,6.745c0,0,1.751,6.34,6.33,3.864c0,0,5.833-6.063,1.276-10.942
				c0,0-2.078-11.871-11.348-8.25"/>
			
				<path fill="none" stroke="#FFFFFF" stroke-width="4.8696" stroke-linecap="round" stroke-linejoin="round" stroke-miterlimit="10" d="
				M147.26,179.537c0,0-2.576,5.104,1.856,6.745c0,0,1.751,6.34,6.33,3.864c0,0,5.833-6.063,1.276-10.942
				c0,0-2.078-11.871-11.348-8.25"/>
			<path fill="#F15C27" d="M147.26,179.537c0,0-2.576,5.104,1.856,6.745c0,0,1.751,6.34,6.33,3.864c0,0,5.833-6.063,1.276-10.942
				c0,0-2.078-11.871-11.348-8.25"/>
		</g>
		
			<path fill="#F15C27" stroke="#FFFFFF" stroke-width="0.6594" stroke-linecap="round" stroke-linejoin="round" stroke-miterlimit="10" d="
			M147.75,210.98c0,0-3.413,14.209-0.341,16.774l-6.551-0.245l-1.241-3.096C139.617,224.414,143.965,213.892,147.75,210.98z"/>
		<path fill="#010101" d="M70.359,233.388c-0.036,0.935-0.822,1.665-1.758,1.631l-5.002-0.186c-0.937-0.034-1.667-0.822-1.632-1.757
			l0.043-1.156c0.035-0.937,0.822-1.667,1.757-1.633l5.003,0.186c0.935,0.036,1.666,0.823,1.631,1.76L70.359,233.388z"/>
		<path fill="#010101" d="M83.994,233.895c-0.035,0.936-0.821,1.666-1.757,1.632l-5.002-0.186c-0.936-0.036-1.667-0.822-1.632-1.759
			l0.044-1.155c0.034-0.936,0.821-1.667,1.756-1.631l5.002,0.185c0.936,0.034,1.666,0.824,1.632,1.759L83.994,233.895z"/>
		<path fill="#010101" d="M136.814,233.31c-0.034,0.938-0.82,1.667-1.756,1.632l-5.004-0.186c-0.935-0.035-1.666-0.822-1.63-1.757
			l0.042-1.156c0.035-0.935,0.822-1.667,1.758-1.631l5.002,0.186c0.935,0.034,1.667,0.822,1.631,1.757L136.814,233.31z"/>
		<path fill="#010101" d="M147.866,232.378c-0.036,0.934-0.821,1.664-1.758,1.63l-5.001-0.186c-0.936-0.036-1.667-0.821-1.632-1.759
			l0.042-1.155c0.034-0.937,0.822-1.667,1.757-1.632l5.003,0.186c0.936,0.035,1.666,0.822,1.631,1.756L147.866,232.378z"/>
	</g>
	<path fill="#FFFFFF" d="M26.91,163.319c-1.115-0.085-1.952-1.055-1.87-2.17l0.444-5.965c0.084-1.116,1.054-1.952,2.168-1.87
		l1.379,0.102c1.118,0.085,1.954,1.056,1.872,2.171l-0.443,5.964c-0.085,1.115-1.058,1.953-2.171,1.87L26.91,163.319z"/>
	<path fill="#FFFFFF" d="M36.614,162.265c-0.125,1.11,0.67,2.115,1.782,2.244l5.94,0.685c1.112,0.128,2.115-0.67,2.244-1.779
		l0.159-1.374c0.127-1.112-0.669-2.117-1.78-2.245l-5.941-0.685c-1.112-0.126-2.117,0.671-2.245,1.783L36.614,162.265z"/>
</g>
<g>
	<path fill="none" d="M88.73,74.285l-17.833-4.8c-1.068-0.288-2.171,0.346-2.459,1.416s0.346,2.171,1.416,2.459l17.833,4.801
		c0.175,0.047,0.35,0.07,0.522,0.07c0.885,0,1.696-0.591,1.937-1.486C90.435,75.674,89.801,74.573,88.73,74.285z"/>
	<path fill="#FFFFFF" d="M109.632,72.106c-0.06-0.423-0.163-0.833-0.312-1.256c-0.821-2.317-2.803-4.472-3.354-4.832
		c-3.932-1.607-8.766-3.776-13.038-5.693c-1.961-0.879-3.898-1.748-5.735-2.559c-6.428-2.84-22.249-6.794-25.441-7.58
		c-0.632,0.098,1.442,0.919,0.491,0.934c-2.771,2.773-8.114,8.175-12.225,12.596c0,0-5.624,6.134-8.624,10.211
		c-3,4.078-3.25,8.455-3.047,9.497c-1.325,4.724,5.553,13.847,4.305,13.291c0.971,1.09,2.951,2.757,4.556,3.277
		c2.789,0.901,3.175,1.228,5.642,3.978c0.839-0.359,3.036,2.092,3.036,2.092c3.52,0.446,7.044,0.508,10.328,0.508
		c17.529,0,27.901-6.309,33.516-11.602c5.977-5.633,8.093-11.184,8.114-11.239l0.2-0.416
		C109.827,79.757,110.279,76.604,109.632,72.106z M52.84,94.786c-4.768,2.574-9.209-1.036-9.209-1.036
		c-7.506-9.988,1.072-20.446,1.072-20.446s-3.23,7.542-0.629,8.539c2.603,0.997,10.771-4.652,10.771-4.652
		C33.269,94.217,52.84,94.786,52.84,94.786z M90.147,76.744c-0.241,0.896-1.052,1.486-1.937,1.486c-0.172,0-0.348-0.023-0.522-0.07
		l-17.833-4.801c-1.07-0.288-1.704-1.389-1.416-2.459s1.391-1.704,2.459-1.416l17.833,4.8
		C89.801,74.573,90.435,75.674,90.147,76.744z"/>
	<path fill="#FFFFFF" d="M46.16,101.567c-6.655-2.153-7.764-10.292-7.764-10.292c-5.358-4.962-1.894-14.361,3.021-20.845
		c4.912-6.486,19.565-20.897,19.565-20.897c0.066-0.067,0.135-0.125,0.201-0.191c-2.198,0.247-6.722,0.204-7.196-4.222
		c-0.451-4.207,1.618-7.324,3.51-9.246c-23.494,13.757-39.453,39.083-39.936,68.294c-0.295,17.887,5.264,34.503,14.901,48.036
		c0.572-0.083,1.159-0.154,1.77-0.209c-0.972-5.989,0.005-12.839,10.505-10.709c0.542-0.799,0.936-1.258,0.936-1.258
		c-4.061-5.401,3.318-11.521,3.318-11.521c-3.498-13.292,2.509-18.267,5.643-19.902C52.54,105.681,49.761,102.732,46.16,101.567z"/>
	<path fill="#FFFFFF" d="M143.788,43.311c1.381,0.33,2.125,1.09,2.492,1.996c1.453,0.232,3.27,0.255,5.023-0.452
		c-3.662-3.21-7.614-6.1-11.819-8.613c-0.031,0.259-0.085,0.508-0.173,0.739C143.023,38.569,143.788,43.311,143.788,43.311z"/>
	<path fill="#FFFFFF" d="M164.34,59.417c-2.386,2.616-6.042,5.441-10.539,6.53c4.17,6.346-2.574,16.727-2.574,16.727
		s1.608,6.006,0.911,12.106c-0.698,6.101-9.196,13.819-9.196,13.819c-0.371,4.809-3.904,9.077-8.524,11.873
		c-7.767,4.698-12.285,10.704-12.285,10.704c-0.609,3.747-8.664,12.33-8.664,12.33c1.254,4.289-7.964,11.888-7.964,11.888
		c1.3,5.089-3.408,10.738-3.408,10.738c22.379-2.101,34.954-5.457,41.585,2.018c0.694,0.782,1.403,1.587,2.107,2.419
		c19.65-14.401,32.572-37.5,33.005-63.738C179.085,89.219,173.703,72.837,164.34,59.417z"/>
</g>
<path fill="#FFFFFF" d="M139.683,30.567l1.774,4.371c23.594,14.622,39.345,40.748,39.345,70.487
	c0,45.693-37.175,82.868-82.868,82.868s-82.867-37.175-82.867-82.868c0-32.828,19.188-61.259,46.938-74.666l-0.925-2.686
	l-0.106,0.003c-28.824,13.829-48.774,43.302-48.774,77.349c0,47.274,38.46,85.734,85.734,85.734s85.734-38.46,85.734-85.734
	C183.668,73.299,165.902,45.248,139.683,30.567z"/>
</svg>
