<?xml version="1.0" encoding="utf-8"?>
<!-- Generator: Adobe Illustrator 16.0.0, SVG Export Plug-In . SVG Version: 6.00 Build 0)  -->
<!DOCTYPE svg PUBLIC "-//W3C//DTD SVG 1.1//EN" "http://www.w3.org/Graphics/SVG/1.1/DTD/svg11.dtd">
<svg version="1.1" id="Layer_1" xmlns="http://www.w3.org/2000/svg" xmlns:xlink="http://www.w3.org/1999/xlink" x="0px" y="0px"
	 width="82.312px" height="23.639px" viewBox="0 0 82.312 23.639" enable-background="new 0 0 82.312 23.639" xml:space="preserve">
<path fill="#FFFFFF" d="M0,0.048c0,0,2.462-0.332,3.454,0.757c0.832,0.917,0.769,1.949,0.769,1.949h3.744v3.346H4.222v7.696
	c0,1.562,0.673,2.342,2.023,2.342h1.72v3.346H4.207C1.402,19.483,0,17.979,0,14.973V0.048z"/>
<path fill="#FFFFFF" d="M74.346,0.094c0,0,2.462-0.333,3.453,0.759c0.833,0.916,0.77,1.95,0.77,1.95h3.744v3.345h-3.744v7.695
	c0,1.561,0.674,2.343,2.024,2.343h1.719v3.345h-3.759c-2.804,0-4.206-1.503-4.206-4.509V0.094L74.346,0.094z"/>
<path fill="#FFFFFF" d="M42.926,9.27c0-2.826-2.266-5.353-6.528-5.353c-2.33,0-4.106,1.289-4.721,2.184
	c-1.129-1.696-2.896-2.184-4.833-2.184c-1.151,0-1.873,0.2-2.871,1.012c-1.343-1.012-3.777-0.51-3.777-0.51v15.056h3.938V9.967
	c0,0,0.123-2.734,2.665-2.734c2.586,0,2.586,2.734,2.586,2.734v9.508h4.425l-0.014-9.508c0,0,0.141-2.697,2.521-2.697
	c2.526,0,2.67,2.697,2.67,2.697v9.517h3.937V9.27L42.926,9.27z"/>
<path fill="#FCBD4B" d="M13.643,23.618c-0.658-0.082-1.583-0.575-1.834-1.022v-2.867v-0.015V19.62c0-0.056,0.023-0.12,0.06-0.182
	c0.052-0.113,0.137-0.2,0.246-0.255c0.066-0.042,0.135-0.07,0.195-0.07h0.101h0.014h3.037c0.413,0.145,0.979,1.139,1.041,1.756
	C16.651,22.332,15.418,23.833,13.643,23.618z"/>
<g>
	<path fill="#FFC248" d="M69.027,20.025V5.907c-0.002-0.906-0.734-1.639-1.634-1.646h-1.525c1.146,1.624,1.818,3.602,1.818,5.739
		c0,5.526-4.477,10.002-10.001,10.002c-2.285,0-4.384-0.777-6.07-2.065v2.087c0,0.912,0.742,1.651,1.649,1.651h14.115
		C68.285,21.673,69.025,20.937,69.027,20.025z"/>
	<path fill="#FF6100" d="M65.865,4.261C64.056,1.688,61.068,0,57.684,0C52.163,0,47.68,4.479,47.68,10
		c0,3.239,1.543,6.107,3.929,7.935c1.683,1.293,3.786,2.068,6.071,2.068c5.522,0,10-4.477,10-10.003
		C67.685,7.863,67.011,5.885,65.865,4.261z M56.336,15.865c-1.696-0.208-4.075-1.787-4.723-2.94V5.848V5.81V5.57
		c0-0.144,0.061-0.308,0.154-0.469c0.137-0.29,0.352-0.514,0.631-0.658c0.171-0.109,0.347-0.182,0.505-0.182h0.258h0.041h7.509
		c1.063,0.374,2.826,2.933,2.988,4.523C64.081,12.557,60.907,16.422,56.336,15.865z"/>
	<path fill="#FFC248" d="M56.35,15.897c-1.699-0.208-4.083-1.791-4.736-2.949V5.853V5.815V5.573c0-0.146,0.061-0.309,0.153-0.471
		c0.139-0.291,0.354-0.514,0.632-0.659c0.172-0.11,0.352-0.183,0.505-0.183h0.259h0.043h7.528c1.066,0.375,2.836,2.943,2.999,4.536
		C64.116,12.58,60.932,16.455,56.35,15.897z"/>
</g>
</svg>
