<?xml version="1.0" encoding="utf-8"?>
<!-- Generator: Adobe Illustrator 16.0.0, SVG Export Plug-In . SVG Version: 6.00 Build 0)  -->
<!DOCTYPE svg PUBLIC "-//W3C//DTD SVG 1.1//EN" "http://www.w3.org/Graphics/SVG/1.1/DTD/svg11.dtd">
<svg version="1.1" id="Layer_1" xmlns="http://www.w3.org/2000/svg" xmlns:xlink="http://www.w3.org/1999/xlink" x="0px" y="0px"
	 width="103.943px" height="35.955px" viewBox="0 0 103.943 35.955" enable-background="new 0 0 103.943 35.955"
	 xml:space="preserve">
<g>
	<g>
		<g>
			<g>
				<path fill="#404041" d="M1.821,1.741c0,0,3.306-0.445,4.634,1.016c1.119,1.232,1.033,2.619,1.033,2.619h5.026v4.492H7.489
					v10.333c0,2.096,0.906,3.143,2.717,3.143h2.312v4.492H7.467c-3.767,0-5.646-2.019-5.646-6.055V1.741L1.821,1.741z"/>
				<path display="none" fill="#404041" d="M25.101,27.834V5.375h5.049v2.579c0.754-1.839,1.732-2.579,4.559-2.579
					c2.82,0,6.102,1.026,7.145,3.079c1.239-2.285,4.694-3.079,7.205-3.079c5.159,0,9.086,2.844,9.086,8.534v13.925H53.15V13.697
					c0-2.496-2.471-3.744-4.722-3.744c-1.688,0-4.185,1.315-4.185,3.808v14.074h-5.667V13.76c0-2.539-2.062-3.527-4.143-3.527
					c-2.112,0-4.285,1.035-4.285,3.527v14.074H25.101z"/>
				<path fill="#404041" d="M91.429,1.803c0,0,3.306-0.446,4.633,1.02c1.119,1.228,1.034,2.616,1.034,2.616h5.021v4.492h-5.021
					v10.332c0,2.098,0.901,3.146,2.717,3.146h2.308v4.49h-5.047c-3.763,0-5.645-2.021-5.645-6.056V1.803L91.429,1.803z"/>
				<path fill="#404041" d="M54.439,14.121c0-3.793-3.043-7.185-8.766-7.185c-3.126,0-5.511,1.731-6.336,2.932
					c-1.517-2.277-3.89-2.932-6.488-2.932c-1.543,0-2.517,0.269-3.854,1.358c-1.801-1.358-5.065-0.684-5.065-0.684v20.214h5.284
					V15.058c0,0,0.166-3.672,3.576-3.672c3.474,0,3.474,3.672,3.474,3.672v12.766h5.938l-0.016-12.766c0,0,0.185-3.62,3.38-3.62
					c3.391,0,3.584,3.62,3.584,3.62v12.776h5.287L54.439,14.121L54.439,14.121z"/>
			</g>
			<g>
				<path fill="#FFC248" d="M86.835,29.563v-19.25c-0.003-1.235-1-2.235-2.229-2.245h-2.08c1.562,2.214,2.479,4.911,2.479,7.826
					c0,7.535-6.104,13.638-13.637,13.638c-3.115,0-5.981-1.059-8.277-2.816v2.846c0,1.244,1.009,2.252,2.25,2.252h19.246
					C85.823,31.812,86.832,30.808,86.835,29.563z"/>
				<path fill="#FF6100" d="M82.523,8.069c-2.468-3.509-6.541-5.81-11.156-5.81c-7.527,0-13.641,6.106-13.641,13.636
					c0,4.415,2.107,8.327,5.36,10.82c2.295,1.763,5.162,2.818,8.277,2.818c7.53,0,13.637-6.104,13.637-13.638
					C85.004,12.98,84.086,10.284,82.523,8.069z M69.53,23.892c-2.313-0.283-5.558-2.437-6.44-4.01v-9.648v-0.053V9.854
					c0-0.198,0.083-0.421,0.21-0.641c0.183-0.394,0.479-0.7,0.859-0.896c0.233-0.149,0.473-0.25,0.687-0.25h0.355h0.055h10.238
					c1.451,0.511,3.855,4.001,4.075,6.168C80.091,19.382,75.762,24.651,69.53,23.892z"/>
			</g>
		</g>
	</g>
</g>
<path fill="#FFC248" d="M69.548,23.935c-2.318-0.283-5.57-2.443-6.458-4.021V10.24v-0.052V9.859c0-0.199,0.082-0.422,0.209-0.642
	c0.186-0.396,0.482-0.702,0.862-0.898c0.233-0.15,0.477-0.25,0.688-0.25h0.356h0.056h10.265c1.455,0.512,3.868,4.012,4.089,6.185
	C80.137,19.411,75.796,24.696,69.548,23.935z"/>
<path fill="#FFC248" d="M16.68,33.862c-0.955-0.116-2.294-1.006-2.659-1.655v-3.981v-0.021v-0.136c0-0.082,0.034-0.174,0.086-0.264
	c0.076-0.164,0.199-0.291,0.354-0.369c0.098-0.062,0.195-0.104,0.283-0.104h0.147h0.021h4.227c0.599,0.21,1.593,1.65,1.683,2.546
	C21.039,32.001,19.252,34.177,16.68,33.862z"/>
</svg>
