<?xml version="1.0" encoding="utf-8"?>
<!-- Generator: Adobe Illustrator 16.0.0, SVG Export Plug-In . SVG Version: 6.00 Build 0)  -->
<!DOCTYPE svg PUBLIC "-//W3C//DTD SVG 1.1//EN" "http://www.w3.org/Graphics/SVG/1.1/DTD/svg11.dtd">
<svg version="1.1" id="Layer_1" xmlns="http://www.w3.org/2000/svg" xmlns:xlink="http://www.w3.org/1999/xlink" x="0px" y="0px"
	 width="595.28px" height="841.89px" viewBox="0 0 595.28 841.89" enable-background="new 0 0 595.28 841.89" xml:space="preserve">
<path fill="#F15C27" stroke="#FFFFFF" stroke-width="3" stroke-miterlimit="10" d="M426.361,369.881
	c0-104.446-90.083-128.424-127.781-129.462v-0.04c-0.416,0-0.848,0.006-1.279,0.013c-0.432-0.007-0.863-0.013-1.279-0.013v0.04
	c-37.698,1.038-127.781,25.016-127.781,129.462c0,146.536,109.597,225.452,127.781,237.537v1.652c0,0,0.455-0.278,1.279-0.812
	c0.824,0.533,1.279,0.812,1.279,0.812v-1.652C316.765,595.333,426.361,516.417,426.361,369.881z"/>
<g>
	<circle fill="#FFFFFF" stroke="#F15C27" stroke-width="8" stroke-miterlimit="10" cx="295.888" cy="370.742" r="110.706"/>
	<defs>
		<filter id="Adobe_OpacityMaskFilter" filterUnits="userSpaceOnUse" x="208.094" y="231.388" width="187.983" height="318.148">
			<feColorMatrix  type="matrix" values="1 0 0 0 0  0 1 0 0 0  0 0 1 0 0  0 0 0 1 0"/>
		</filter>
	</defs>
	<mask maskUnits="userSpaceOnUse" x="208.094" y="231.388" width="187.983" height="318.148" id="SVGID_1_">
		<g filter="url(#Adobe_OpacityMaskFilter)">
			<path fill="#FFFFFF" stroke="#F15C27" stroke-width="1.9844" stroke-miterlimit="10" d="M398.375,360.206
				c-1.077,65.232-38.768,113.506-104,112.429S189.133,418.001,190.21,352.769s60.854-179.149,126.087-178.073
				c40.77,0.673,74.059,47.669,84.779,98.613C407.51,303.874,398.779,335.743,398.375,360.206z"/>
		</g>
	</mask>
	<g mask="url(#SVGID_1_)">
		<path fill="#FFFFFF" stroke="#F15C27" stroke-width="5" stroke-miterlimit="10" d="M278.022,257.554
			c0,0-7.178-15.797-17.351-20.704c-10.17-4.908-11.511-3.664-14.359,3.349s-2.182,23.861,4.064,29.917
			C250.377,270.115,268.039,282.42,278.022,257.554z"/>
		<path fill="#F15C27" stroke="#FFFFFF" stroke-width="2.3279" stroke-miterlimit="10" d="M249.77,250.938
			c0,0,0.44-2.251,1.999-3.601c3.278-1.173,8.805,6.798,7.895,13.882"/>
		<path fill="#FFFFFF" stroke="#F15C27" stroke-width="4" stroke-miterlimit="10" d="M244.815,293.897
			c0,0-20.119,19.788-26.864,28.693c-6.748,8.903-11.506,21.809-4.148,28.622c0,0,1.522,11.174,10.66,14.131
			c9.135,2.954,14.447,14.27,17.016,18.29c0,0,53.239,2.633,67.688-21.683s13.597-58.879-7.53-65.941
			C280.513,288.946,258.712,279.777,244.815,293.897z"/>
		<path fill="#F15C27" stroke="#FFFFFF" stroke-width="5" stroke-miterlimit="10" d="M243.921,272.036c0,0-9.808,5.544-8.71,15.802
			c0.863,8.061,11.513,5.534,11.513,5.534s24.532,5.877,34.34,10.209c7.867,3.476,17.181,7.781,24.193,10.63
			c0,0,4.816,2.638,6.734,8.053c0.282,0.797,0.503,1.656,0.635,2.575c1.028,7.156,0.016,12.249-2.531,17.331
			c0,0-14.005,39.171-71.631,31.862c0,0-16.461,4.177-10.112,28.303c0,0-10.133,8.402-4.557,15.818c0,0-10.252,11.881-3.111,23.161
			c0,0-5.321,23.612,4.485,29.284c0,0-1.788,11.604,5.835,17.04c0,0,1.098,9.967,7.247,18.609c0,0,2.288,27.542,8.532,33.601
			c-0.928-0.324,5.96,0.573,9.229,0.342c0,0,2.032-2.432,3.465-7.581c1.216-4.366,1.94-13.206,1.94-13.206s-1.94,13.206,2.47,22.011
			c2.277,0.498,11.218,0.418,11.218,0.418s3.853-8.964,4.57-18.515c0,0,14.26,4.892,25.196,6.026
			c14.746,1.532,29.628-5.003,30.562-12.732c0,0-1.228,20.859,3.926,23.936l11.373,0.422c0,0-2.656-6.385,3.847-17.126
			c10.342-17.088,12.574-23.632,15.923-34.926c3.994-13.464-4.712-23.787-12.135-32.153c-9.104-10.262-26.371-5.653-57.099-2.77
			c0,0,6.464-7.755,4.679-14.744c0,0,12.657-10.434,10.936-16.321c0,0,11.06-11.786,11.896-16.931c0,0,6.203-8.245,16.868-14.697
			c6.343-3.838,11.194-9.698,11.704-16.302c0,0,11.668-10.598,12.626-18.975c0.957-8.375-1.251-16.622-1.251-16.622
			s13.116-20.181-1.506-27.195c0,0-7.611-4.167-5.456-9.91c0,0,4.093-5.67-0.382-7.131c0,0,3.543-8.281-2.87-9.812
			c0,0-1.051-6.511-6.147-8.692c2.152-5.692-8.418-18.204-18.463-15.625c0,0-10.531-12.615-19.842-5.843
			c0,0-14.501-10.246-26.302-6.154c0,0-15.999-2.981-20.51,3.825C264.818,256.537,249.923,248.88,243.921,272.036z"/>
		<path fill="#FFFFFF" stroke="#F15C27" stroke-width="5" stroke-miterlimit="10" d="M357.98,286.976c0,0,5.819,2.683,11.083,0.411
			c5.263-2.271,13.51-5.168,13.51-5.168s7.763-3.166,10.016,2.592c2.25,5.756,0.28,12.34-2.13,17.43
			c-2.408,5.088-13.73,17.738-28.643,14.225c0,0-6.604-1.479-7.141-6.924S357.98,286.976,357.98,286.976z"/>
		<path fill="#F15C27" stroke="#FFFFFF" stroke-width="2.1385" stroke-miterlimit="10" d="M384.704,294.35
			c0,0-0.619-2.696-6.309-0.762c-5.688,1.933-6.853,3.016-13.302,3.279c0,0-4.263,5.225,0.619,10.309"/>
		<g>
			<path fill="#F15C27" d="M234.087,333.131c0,0-11.217,7.756-14.79,6.388c-3.572-1.369,0.863-11.725,0.863-11.725
				s-11.778,14.358-1.472,28.073c0,0,6.099,4.956,12.646,1.422C231.334,357.289,204.461,356.508,234.087,333.131z"/>
			<path fill="none" stroke="#FFFFFF" stroke-width="0.9054" stroke-miterlimit="10" d="M234.087,333.131
				c0,0-11.217,7.756-14.79,6.388c-3.572-1.369,0.863-11.725,0.863-11.725s-11.778,14.358-1.472,28.073
				c0,0,6.099,4.956,12.646,1.422C231.334,357.289,204.461,356.508,234.087,333.131z"/>
			<path fill="#F15C27" d="M234.087,333.131c0,0-11.217,7.756-14.79,6.388c-3.572-1.369,0.863-11.725,0.863-11.725
				s-11.778,14.358-1.472,28.073c0,0,6.099,4.956,12.646,1.422C231.334,357.289,204.461,356.508,234.087,333.131z"/>
		</g>
		
			<line fill="#010101" stroke="#F15C27" stroke-width="5.1213" stroke-linecap="round" stroke-linejoin="round" stroke-miterlimit="10" x1="257.582" y1="324.648" x2="280.339" y2="330.774"/>
		<g>
			<path fill="#F15C27" d="M362.979,472.658c0,0-3.537,7.009,2.549,9.262c0,0,2.405,8.705,8.691,5.306c0,0,8.01-8.326,1.753-15.025
				c0,0-2.853-16.3-15.582-11.327"/>
			
				<path fill="none" stroke="#FFFFFF" stroke-width="6.6862" stroke-linecap="round" stroke-linejoin="round" stroke-miterlimit="10" d="
				M362.979,472.658c0,0-3.537,7.009,2.549,9.262c0,0,2.405,8.705,8.691,5.306c0,0,8.01-8.326,1.753-15.025
				c0,0-2.853-16.3-15.582-11.327"/>
			<path fill="#F15C27" d="M362.979,472.658c0,0-3.537,7.009,2.549,9.262c0,0,2.405,8.705,8.691,5.306c0,0,8.01-8.326,1.753-15.025
				c0,0-2.853-16.3-15.582-11.327"/>
		</g>
		
			<path fill="#F15C27" stroke="#FFFFFF" stroke-width="0.9054" stroke-linecap="round" stroke-linejoin="round" stroke-miterlimit="10" d="
			M363.651,515.831c0,0-4.686,19.51-0.468,23.032l-8.995-0.336l-1.704-4.251C352.484,534.276,358.454,519.829,363.651,515.831z"/>
		<path fill="#010101" d="M257.389,546.599c-0.049,1.283-1.128,2.286-2.413,2.239l-6.868-0.255
			c-1.286-0.048-2.288-1.129-2.241-2.412l0.06-1.588c0.048-1.286,1.129-2.289,2.412-2.242l6.87,0.255
			c1.284,0.05,2.287,1.131,2.24,2.416L257.389,546.599z"/>
		<path fill="#010101" d="M276.11,547.294c-0.048,1.285-1.128,2.288-2.412,2.24l-6.869-0.255c-1.285-0.049-2.288-1.129-2.241-2.414
			l0.062-1.587c0.046-1.284,1.127-2.288,2.411-2.239l6.869,0.254c1.285,0.047,2.287,1.131,2.24,2.414L276.11,547.294z"/>
		<path fill="#010101" d="M348.637,546.491c-0.047,1.287-1.127,2.288-2.412,2.24l-6.87-0.255c-1.284-0.048-2.287-1.129-2.238-2.412
			l0.059-1.588c0.048-1.283,1.128-2.289,2.413-2.239l6.868,0.255c1.284,0.047,2.288,1.129,2.24,2.412L348.637,546.491z"/>
		<path fill="#010101" d="M363.811,545.211c-0.05,1.282-1.128,2.285-2.414,2.238l-6.867-0.255c-1.284-0.049-2.288-1.128-2.24-2.414
			l0.059-1.587c0.047-1.285,1.128-2.288,2.412-2.24l6.87,0.255c1.284,0.048,2.287,1.129,2.239,2.411L363.811,545.211z"/>
	</g>
	<path fill="#F15C27" stroke="#FFFFFF" stroke-width="3.4855" stroke-miterlimit="10" d="M239.042,436.289
		c0,0-25.142-3.94-36.958-0.709c0,0,4.556,9.468-1.12,16.634c0,0,9.898,10.106,27.205,10.593c4.462,0.126,17.498-5.268,29.046,6.012
		"/>
	<path fill="#010101" d="M195.731,450.39c-1.531-0.116-2.681-1.448-2.567-2.979l0.609-8.189c0.115-1.532,1.447-2.681,2.978-2.567
		l1.894,0.14c1.534,0.116,2.683,1.45,2.569,2.981l-0.608,8.188c-0.117,1.531-1.452,2.682-2.981,2.568L195.731,450.39z"/>
	<path fill="#F15C27" stroke="#FFFFFF" stroke-width="3.4855" stroke-miterlimit="10" d="M234.097,430.291
		c0,0-13.185-1.518-9.285,16.16c0,0-5.459-5.204-13.564-0.974c0,0-13.656-31.592,12.515-25.324"/>
	<path fill="#010101" d="M211.055,450.941c-0.172,1.525,0.921,2.904,2.446,3.081l8.157,0.94c1.526,0.176,2.904-0.92,3.08-2.442
		l0.219-1.887c0.175-1.527-0.919-2.907-2.444-3.083l-8.157-0.94c-1.527-0.174-2.906,0.922-3.082,2.447L211.055,450.941z"/>
</g>
</svg>
