<?xml version="1.0" encoding="UTF-8"?>
<svg width="57px" height="19px" viewBox="0 0 57 19" version="1.1" xmlns="http://www.w3.org/2000/svg" xmlns:xlink="http://www.w3.org/1999/xlink">
    <!-- Generator: Sketch 42 (36781) - http://www.bohemiancoding.com/sketch -->
    <title>logo_tmot</title>
    <desc>Created with Sketch.</desc>
    <defs></defs>
    <g id="Symbols" stroke="none" stroke-width="1" fill="none" fill-rule="evenodd">
        <g id="logo_tmot">
            <g id="Group-2" transform="translate(1.000000, 1.000000)">
                <path d="M0.0226832112,0.13743494 C0.0226832112,0.13743494 1.90814886,-0.113483623 2.66602081,0.711126017 C3.30468344,1.40742503 3.25573275,2.19154554 3.25573275,2.19154554 L6.12309177,2.19154554 L6.12309177,4.72867435 L3.25573275,4.72867435 L3.25573275,10.5653823 C3.25573275,11.7492617 3.77345834,12.3406311 4.8060301,12.3406311 L6.12539533,12.3406311 L6.12539533,14.8777599 L3.24248726,14.8777599 C1.09383963,14.8777599 0.0221073207,13.7383616 0.0221073207,11.4584243 L0.0221073207,0.13743494 L0.0226832112,0.13743494 L0.0226832112,0.13743494 Z" id="Shape" fill="#FFFFFF"></path>
                <path d="M48.8616568,0.172221377 C48.8616568,0.172221377 50.7476983,-0.079267455 51.5049946,0.74933407 C52.143657,1.44221146 52.0941305,2.22747251 52.0941305,2.22747251 L54.9591859,2.22747251 L54.9591859,4.76460134 L52.0941305,4.76460134 L52.0941305,10.6001687 C52.0941305,11.7863292 52.607249,12.3776986 53.6450039,12.3776986 L54.9609135,12.3776986 L54.9609135,14.9148274 L52.0814608,14.9148274 C49.9351168,14.9148274 48.8610809,13.773148 48.8610809,11.4920702 L48.8610809,0.172221377 L48.8616568,0.172221377 L48.8616568,0.172221377 Z" id="Shape" fill="#FFFFFF"></path>
                <path d="M29.4241991,7.13064932 C29.4241991,4.98871722 27.6890411,3.07261184 24.4225898,3.07261184 C22.6384809,3.07261184 21.2782274,4.05062397 20.8077248,4.72867435 C19.9433131,3.44214646 18.5893944,3.07261184 17.1082039,3.07261184 C16.2276673,3.07261184 15.671357,3.2248738 14.9094538,3.84019455 C13.8820651,3.07261184 12.0196351,3.45355184 12.0196351,3.45355184 L12.0196351,14.8726275 L15.0321185,14.8726275 L15.0321185,7.66099992 C15.0321185,7.66099992 15.1271405,5.58578935 17.0724987,5.58578935 C19.0552899,5.58578935 19.0552899,7.66099992 19.0552899,7.66099992 L19.0552899,14.8726275 L22.4438299,14.8726275 L22.4340397,7.66099992 C22.4340397,7.66099992 22.5400036,5.61487311 24.3626972,5.61487311 C26.2971135,5.61487311 26.4076845,7.66099992 26.4076845,7.66099992 L26.4076845,14.8771897 L29.4224715,14.8771897 L29.4241991,7.13064932 L29.4241991,7.13064932 L29.4241991,7.13064932 Z" id="Shape" fill="#FFFFFF"></path>
                <path d="M46.5966794,5.86978347 C46.5943758,5.25161137 46.0904716,4.75091477 45.4685098,4.74578234 L44.4180854,4.74578234 C45.2064796,5.8538159 45.6700715,7.20421399 45.6700715,8.66410382 C45.6700715,12.4364363 42.5861776,15.4930806 38.774934,15.4930806 C37.201601,15.4930806 35.7515086,14.96273 34.5893615,14.0828042 L34.5893615,15.5073373 C34.5893615,16.1300716 35.1013282,16.6359006 35.7267453,16.6359006 L45.4592955,16.6359006 C46.0835609,16.6336195 46.5943758,16.1312121 46.5966794,15.5084779 L46.5966794,5.86978347 Z" id="Shape" fill="#FFC248"></path>
                <circle id="Oval-8" fill="#FFC248" cx="39" cy="8" r="6"></circle>
                <circle id="Oval-8" fill="#FFC248" cx="41" cy="11" r="5"></circle>
                <path d="M44.4157819,4.74578234 C43.1684029,2.98935241 41.1090184,1.83683784 38.774934,1.83683784 C34.9688733,1.83683784 31.8774929,4.89291187 31.8774929,8.66410382 C31.8774929,10.8750385 32.9417386,12.8333438 34.5847544,14.0816637 C35.7457497,14.9650111 37.196418,15.4930806 38.7714786,15.4930806 C42.578691,15.4930806 45.6677679,12.4370065 45.6677679,8.66410382 C45.6694956,7.20535454 45.2053278,5.85552673 44.4157819,4.74578234 L44.4157819,4.74578234 Z M37.8454466,12.668536 C36.6758129,12.5271091 35.0356766,11.4487296 34.5893615,10.6611875 L34.5893615,5.82929432 L34.5893615,5.80249167 L34.5893615,5.63882432 C34.5893615,5.53959745 34.6296738,5.42839491 34.6941736,5.31833289 C34.7886196,5.12101966 34.9383512,4.96761717 35.1306986,4.87010109 C35.2487562,4.79539579 35.3691173,4.74521209 35.4785365,4.74521209 L35.6582143,4.74521209 L35.6852812,4.74521209 L40.8602336,4.74521209 C41.5944941,5.00069281 42.8107749,6.74856869 42.9219218,7.8332212 C43.1851038,10.4108392 40.9972956,13.049476 37.8454466,12.668536 L37.8454466,12.668536 Z" id="Shape" fill="#FFFFFF"></path>
                <path d="M37.8546609,12.6896359 C36.6850272,12.5482091 35.039132,11.4675485 34.5893615,10.677155 L34.5893615,5.8332862 L34.5893615,5.80762408 L34.5893615,5.6428162 C34.5893615,5.54358933 34.6296738,5.43124623 34.6941736,5.32118424 C34.7909232,5.12273046 34.9383512,4.97046853 35.1306986,4.8718119 C35.2487562,4.79710659 35.3725726,4.74635261 35.4791124,4.74635261 L35.6582143,4.74635261 L35.6875847,4.74635261 L40.8786621,4.74635261 C41.6140744,5.00240361 42.8343864,6.75541192 42.9461092,7.84291578 C43.2087153,10.4250959 41.0139964,13.072857 37.8546609,12.6896359 L37.8546609,12.6896359 Z" id="Shape" fill="#FFC248"></path>
                <path d="M7,12 L11,12 C11,14 11,16 7,16 L7,12 Z" id="Shape" fill="#FFC248"></path>
            </g>
        </g>
    </g>
</svg>