<?xml version="1.0" encoding="UTF-8"?>
<svg width="24px" height="24px" viewBox="0 0 24 24" version="1.1" xmlns="http://www.w3.org/2000/svg" xmlns:xlink="http://www.w3.org/1999/xlink">
    <!-- Generator: Sketch 42 (36781) - http://www.bohemiancoding.com/sketch -->
    <title>icon/blue/delete/hover</title>
    <desc>Created with Sketch.</desc>
    <defs></defs>
    <g id="Symbols" stroke="none" stroke-width="1" fill="none" fill-rule="evenodd" fill-opacity="0.72">
        <g id="icon/blue/delete/hover" fill="#FF6D00">
            <path d="M9,9.5 L9,18.5 C9,18.6458341 8.95312547,18.7656245 8.859375,18.859375 C8.76562453,18.9531255 8.64583406,19 8.5,19 L7.5,19 C7.35416594,19 7.23437547,18.9531255 7.140625,18.859375 C7.04687453,18.7656245 7,18.6458341 7,18.5 L7,9.5 C7,9.35416594 7.04687453,9.23437547 7.140625,9.140625 C7.23437547,9.04687453 7.35416594,9 7.5,9 L8.5,9 C8.64583406,9 8.76562453,9.04687453 8.859375,9.140625 C8.95312547,9.23437547 9,9.35416594 9,9.5 Z M13,9.5 L13,18.5 C13,18.6458341 12.9531255,18.7656245 12.859375,18.859375 C12.7656245,18.9531255 12.6458341,19 12.5,19 L11.5,19 C11.3541659,19 11.2343755,18.9531255 11.140625,18.859375 C11.0468745,18.7656245 11,18.6458341 11,18.5 L11,9.5 C11,9.35416594 11.0468745,9.23437547 11.140625,9.140625 C11.2343755,9.04687453 11.3541659,9 11.5,9 L12.5,9 C12.6458341,9 12.7656245,9.04687453 12.859375,9.140625 C12.9531255,9.23437547 13,9.35416594 13,9.5 Z M17,9.5 L17,18.5 C17,18.6458341 16.9531255,18.7656245 16.859375,18.859375 C16.7656245,18.9531255 16.6458341,19 16.5,19 L15.5,19 C15.3541659,19 15.2343755,18.9531255 15.140625,18.859375 C15.0468745,18.7656245 15,18.6458341 15,18.5 L15,9.5 C15,9.35416594 15.0468745,9.23437547 15.140625,9.140625 C15.2343755,9.04687453 15.3541659,9 15.5,9 L16.5,9 C16.6458341,9 16.7656245,9.04687453 16.859375,9.140625 C16.9531255,9.23437547 17,9.35416594 17,9.5 Z M19,20.8125 L19,6 L5,6 L5,20.8125 C5,21.0416678 5.03645797,21.2526032 5.109375,21.4453125 C5.18229203,21.6380218 5.25781211,21.7786454 5.3359375,21.8671875 C5.41406289,21.9557296 5.46874984,22 5.5,22 L18.5,22 C18.5312502,22 18.5859371,21.9557296 18.6640625,21.8671875 C18.7421879,21.7786454 18.817708,21.6380218 18.890625,21.4453125 C18.963542,21.2526032 19,21.0416678 19,20.8125 Z M8.5,4 L15.5,4 L14.75,2.171875 C14.677083,2.07812453 14.5885422,2.02083344 14.484375,2 L9.53125,2 C9.42708281,2.02083344 9.33854203,2.07812453 9.265625,2.171875 L8.5,4 Z M23,4.5 L23,5.5 C23,5.64583406 22.9531255,5.76562453 22.859375,5.859375 C22.7656245,5.95312547 22.6458341,6 22.5,6 L21,6 L21,20.8125 C21,21.6770877 20.7552108,22.424476 20.265625,23.0546875 C19.7760392,23.684899 19.1875034,24 18.5,24 L5.5,24 C4.81249656,24 4.22396078,23.6953155 3.734375,23.0859375 C3.24478922,22.4765595 3,21.7395877 3,20.875 L3,6 L1.5,6 C1.35416594,6 1.23437547,5.95312547 1.140625,5.859375 C1.04687453,5.76562453 1,5.64583406 1,5.5 L1,4.5 C1,4.35416594 1.04687453,4.23437547 1.140625,4.140625 C1.23437547,4.04687453 1.35416594,4 1.5,4 L6.328125,4 L7.421875,1.390625 C7.57812578,1.00520641 7.85937297,0.677084688 8.265625,0.40625 C8.67187703,0.135415313 9.08333125,0 9.5,0 L14.5,0 C14.9166687,0 15.328123,0.135415313 15.734375,0.40625 C16.140627,0.677084688 16.4218742,1.00520641 16.578125,1.390625 L17.671875,4 L22.5,4 C22.6458341,4 22.7656245,4.04687453 22.859375,4.140625 C22.9531255,4.23437547 23,4.35416594 23,4.5 Z" id="trash-o---fontawesome"></path>
        </g>
    </g>
</svg>