<?xml version="1.0" encoding="utf-8"?>
<!-- Generator: Adobe Illustrator 16.0.0, SVG Export Plug-In . SVG Version: 6.00 Build 0)  -->
<!DOCTYPE svg PUBLIC "-//W3C//DTD SVG 1.1//EN" "http://www.w3.org/Graphics/SVG/1.1/DTD/svg11.dtd">
<svg version="1.1" id="Layer_1" xmlns="http://www.w3.org/2000/svg" xmlns:xlink="http://www.w3.org/1999/xlink" x="0px" y="0px"
	 width="249.54px" height="230.369px" viewBox="0 -92.631 249.54 230.369" enable-background="new 0 -92.631 249.54 230.369"
	 xml:space="preserve">
<g>
	<circle fill="#FFFFFF" stroke="#F15A24" stroke-width="5.6191" stroke-miterlimit="10" cx="128.711" cy="11.915" r="77.755"/>
	<defs>
		<filter id="Adobe_OpacityMaskFilter" filterUnits="userSpaceOnUse" x="67.341" y="-84.861" width="130.222" height="222.602">
			<feColorMatrix  type="matrix" values="1 0 0 0 0  0 1 0 0 0  0 0 1 0 0  0 0 0 1 0"/>
		</filter>
	</defs>
	<mask maskUnits="userSpaceOnUse" x="67.341" y="-84.861" width="130.222" height="222.602" id="SVGID_1_">
		<g filter="url(#Adobe_OpacityMaskFilter)">
			<path fill="#FFFFFF" stroke="#F15A24" stroke-width="1.3938" stroke-miterlimit="10" d="M200.565,3.328
				c0,45.821-25.908,80.165-71.736,80.165c-45.822,0-74.542-37.15-74.542-82.974c0-45.825,40.661-126.522,86.485-126.522
				c28.645,0,52.563,32.622,60.686,68.274C206.328-36.342,200.565-13.855,200.565,3.328z"/>
		</g>
	</mask>
	<g mask="url(#SVGID_1_)">
		<path fill="#FFFFFF" stroke="#F15A24" stroke-width="2.3482" stroke-miterlimit="10" d="M114.854-67.367
			c0,0-5.225-11.012-12.426-14.339c-7.199-3.329-8.125-2.441-10.046,2.517c-1.92,4.958-1.256,16.783,3.201,20.964
			C95.585-58.225,108.128-49.788,114.854-67.367z"/>
		<path fill="#F15A24" stroke="#FFFFFF" stroke-width="1.6352" stroke-miterlimit="10" d="M94.934-71.686
			c0,0,0.284-1.585,1.363-2.551c2.288-0.863,6.263,4.67,5.704,9.656"/>
		<path fill="#FFFFFF" stroke="#F15A24" stroke-width="1.5654" stroke-miterlimit="10" d="M91.952-41.461
			c0,0-13.898,14.132-18.534,20.463c-4.636,6.331-7.828,15.448-2.582,20.15c0,0,1.2,7.831,7.651,9.799
			c6.448,1.968,10.31,9.854,12.163,12.648c0,0,37.418,1.231,47.282-16.015c9.868-17.242,8.867-41.508-6.052-46.223
			C116.966-45.352,101.549-51.536,91.952-41.461z"/>
		<path fill="#F15A24" stroke="#FFFFFF" stroke-width="2.1071" stroke-miterlimit="10" d="M91.072-56.803
			c0,0-6.823,4.009-5.936,11.201c0.702,5.649,8.152,3.751,8.152,3.751s17.296,3.844,24.236,6.774
			c5.565,2.349,12.152,5.264,17.115,7.184c0,0,3.412,1.801,4.821,5.58c0.208,0.555,0.373,1.158,0.473,1.8
			c0.808,5.015,0.155,8.604-1.573,12.205c0,0-9.381,27.67-49.938,23.205c0,0-11.511,3.127-6.773,19.995
			c0,0-7.019,6.017-3.015,11.162c0,0-7.063,8.46-1.917,16.301c0,0-3.464,16.645,3.49,20.514c0,0-1.122,8.169,4.296,11.901
			c0,0,0.886,6.984,5.303,12.981c0,0,1.928,19.318,6.384,23.5c-0.655-0.219,4.194,0.333,6.486,0.132c0,0,1.399-1.731,2.345-5.368
			c0.806-3.076,1.212-9.294,1.212-9.294s-1.212,9.294,1.988,15.431c1.606,0.323,7.885,0.164,7.885,0.164s2.6-6.34,2.996-13.055
			c0,0,10.069,3.268,17.766,3.938c10.372,0.907,20.747-3.856,21.313-9.297c0,0-0.624,14.665,3.035,16.766l7.992,0.162
			c0,0-1.938-4.452,2.504-12.07c7.063-12.123,8.558-16.742,10.776-24.713c2.646-9.503-3.584-16.651-8.893-22.44
			c-6.515-7.101-18.59-3.663-40.136-1.283c0,0,4.449-5.522,3.117-10.407c0,0,8.767-7.475,7.491-11.592c0,0,7.629-8.406,8.156-12.026
			c0,0,4.26-5.863,11.678-10.515c4.406-2.771,7.746-6.944,8.026-11.586c0,0,8.075-7.579,8.652-13.471
			c0.576-5.893-1.072-11.658-1.072-11.658s8.978-14.326-1.375-19.084c0,0-5.394-2.837-3.948-6.897c0,0,2.812-4.03-0.35-5.001
			c0,0,2.394-5.857-2.128-6.858c0,0-0.814-4.562-4.42-6.032c1.447-4.022-6.121-12.688-13.146-10.761c0,0-7.541-8.738-14.001-3.871
			c0,0-10.306-7.031-18.545-4.019c0,0-11.272-1.907-14.36,2.926C105.566-67.929,95.018-73.132,91.072-56.803z"/>
		<path fill="#FFFFFF" stroke="#F15A24" stroke-width="2.3482" stroke-miterlimit="10" d="M171.349-47.634
			c0,0,4.117,1.817,7.787,0.161c3.669-1.656,9.426-3.785,9.426-3.785s5.416-2.315,7.068,1.704c1.645,4.014,0.338,8.663-1.297,12.266
			c-1.631,3.601-9.437,12.618-19.95,10.321c0,0-4.653-0.961-5.094-4.778C168.851-35.566,171.349-47.634,171.349-47.634z"/>
		<path fill="#F15A24" stroke="#FFFFFF" stroke-width="1.5021" stroke-miterlimit="10" d="M190.203-42.766
			c0,0-0.463-1.883-4.438-0.459c-3.977,1.423-4.781,2.196-9.306,2.457c0,0-2.936,3.72,0.551,7.234"/>
		<g>
			<path fill="#F15A24" d="M84.874-13.78c0,0-7.786,5.573-10.312,4.656c-2.523-0.92,0.471-8.245,0.471-8.245
				S66.927-7.146,74.323,2.365c0,0,4.339,3.409,8.898,0.85C83.221,3.217,64.338,2.979,84.874-13.78z"/>
			<path fill="none" stroke="#FFFFFF" stroke-width="0.6359" stroke-miterlimit="10" d="M84.874-13.78c0,0-7.786,5.573-10.312,4.656
				c-2.523-0.92,0.471-8.245,0.471-8.245S66.927-7.146,74.323,2.365c0,0,4.339,3.409,8.898,0.85
				C83.221,3.217,64.338,2.979,84.874-13.78z"/>
			<path fill="#F15A24" d="M84.874-13.78c0,0-7.786,5.573-10.312,4.656c-2.523-0.92,0.471-8.245,0.471-8.245
				S66.927-7.146,74.323,2.365c0,0,4.339,3.409,8.898,0.85C83.221,3.217,64.338,2.979,84.874-13.78z"/>
		</g>
		
			<line fill="none" stroke="#F15A24" stroke-width="3.5972" stroke-linecap="round" stroke-linejoin="round" stroke-miterlimit="10" x1="101.274" y1="-20.012" x2="117.329" y2="-15.974"/>
		<g>
			<path fill="#F15A24" d="M177.01,82.712c0,0-2.402,4.963,1.897,6.478c0,0,1.792,6.083,6.162,3.624c0,0,5.533-5.938,1.062-10.57
				c0,0-2.199-11.419-11.081-7.777"/>
			
				<path fill="none" stroke="#FFFFFF" stroke-width="4.6963" stroke-linecap="round" stroke-linejoin="round" stroke-miterlimit="10" d="
				M177.01,82.712c0,0-2.402,4.963,1.897,6.478c0,0,1.792,6.083,6.162,3.624c0,0,5.533-5.938,1.062-10.57
				c0,0-2.199-11.419-11.081-7.777"/>
			<path fill="#F15A24" d="M177.01,82.712c0,0-2.402,4.963,1.897,6.478c0,0,1.792,6.083,6.162,3.624c0,0,5.533-5.938,1.062-10.57
				c0,0-2.199-11.419-11.081-7.777"/>
		</g>
		
			<path fill="#F15A24" stroke="#FFFFFF" stroke-width="0.6359" stroke-linecap="round" stroke-linejoin="round" stroke-miterlimit="10" d="
			M177.982,113.026c0,0-3.062,13.757-0.061,16.181l-6.319-0.133l-1.245-2.965C170.357,126.107,174.383,115.89,177.982,113.026z"/>
		<path d="M103.715,135.863c-0.021,0.902-0.767,1.618-1.67,1.601l-4.826-0.1c-0.902-0.016-1.62-0.766-1.602-1.667l0.024-1.113
			c0.018-0.906,0.765-1.627,1.668-1.605l4.828,0.1c0.903,0.021,1.62,0.769,1.6,1.669L103.715,135.863z"/>
		<path d="M116.867,136.133c-0.018,0.906-0.766,1.623-1.667,1.605l-4.826-0.1c-0.904-0.022-1.62-0.769-1.602-1.669l0.027-1.116
			c0.016-0.904,0.763-1.622,1.665-1.604l4.826,0.102c0.905,0.015,1.62,0.767,1.601,1.667L116.867,136.133z"/>
		<path d="M167.794,134.733c-0.02,0.898-0.766,1.618-1.667,1.6l-4.827-0.099c-0.903-0.024-1.621-0.77-1.602-1.67l0.027-1.119
			c0.016-0.9,0.762-1.618,1.663-1.597l4.83,0.096c0.9,0.021,1.618,0.769,1.599,1.669L167.794,134.733z"/>
		<path d="M178.437,133.656c-0.023,0.897-0.766,1.618-1.667,1.601l-4.831-0.1c-0.898-0.021-1.619-0.764-1.598-1.67l0.024-1.116
			c0.019-0.901,0.765-1.624,1.664-1.604l4.829,0.103c0.901,0.018,1.617,0.766,1.599,1.666L178.437,133.656z"/>
	</g>
	<path fill="#F15A24" stroke="#FFFFFF" stroke-width="2.4483" stroke-miterlimit="10" d="M89.548,58.609
		c0,0-17.701-2.475-25.964-0.067c0,0,3.31,6.593-0.59,11.693c0,0,7.067,6.984,19.227,7.121c3.137,0.039,12.229-3.901,20.468,3.89"/>
	<path d="M59.298,69.014c-1.078-0.064-1.9-0.987-1.837-2.065l0.332-5.758c0.063-1.075,0.986-1.897,2.062-1.837l1.332,0.077
		c1.077,0.062,1.9,0.988,1.838,2.064l-0.333,5.753c-0.064,1.081-0.989,1.9-2.063,1.841L59.298,69.014z"/>
	<path fill="#F15A24" stroke="#FFFFFF" stroke-width="2.4483" stroke-miterlimit="10" d="M86.008,54.452
		c0,0-9.277-0.912-6.335,11.458c0,0-3.895-3.594-9.536-0.531c0,0-9.958-22.027,8.496-17.928"/>
	<path d="M70.065,69.224c-0.105,1.073,0.679,2.028,1.752,2.134l5.741,0.564c1.076,0.107,2.029-0.682,2.134-1.752l0.132-1.325
		c0.105-1.075-0.679-2.033-1.754-2.137l-5.739-0.565c-1.075-0.104-2.031,0.679-2.135,1.755L70.065,69.224z"/>
</g>
<g>
	<g>
		<g>
			<g>
				<path fill="#404041" d="M64.821,94.133c0,0,4.317-0.581,6.051,1.326c1.461,1.609,1.349,3.421,1.349,3.421h6.564v5.867h-6.562
					v13.494c0,2.736,1.184,4.104,3.548,4.104h3.02v5.866h-6.597c-4.919,0-7.373-2.636-7.373-7.906V94.133L64.821,94.133z"/>
				<path display="none" fill="#404041" d="M92.611,128.209v-29.33h6.593v3.368c0.984-2.401,2.26-3.368,5.953-3.368
					c3.683,0,7.971,1.34,9.333,4.021c1.615-2.984,6.127-4.021,9.409-4.021c6.733,0,11.865,3.714,11.865,11.146v18.185h-6.524
					v-18.462c0-3.26-3.227-4.89-6.166-4.89c-2.205,0-5.468,1.718-5.468,4.973v18.38h-7.4v-18.381c0-3.315-2.692-4.606-5.41-4.606
					c-2.759,0-5.596,1.353-5.596,4.606v18.38H92.611z"/>
				<path fill="#404041" d="M176.618,94.214c0,0,4.315-0.583,6.05,1.332c1.462,1.604,1.35,3.416,1.35,3.416h6.558v5.867h-6.558
					v13.492c0,2.739,1.176,4.108,3.548,4.108h3.015v5.864h-6.591c-4.915,0-7.371-2.64-7.371-7.911V94.214L176.618,94.214z"/>
				<path fill="#404041" d="M129.618,110.301c0-4.953-3.975-9.383-11.45-9.383c-4.082,0-7.197,2.26-8.274,3.829
					c-1.98-2.975-5.08-3.829-8.47-3.829c-2.015,0-3.289,0.351-5.034,1.772c-2.352-1.772-6.614-0.893-6.614-0.893v26.397h6.898
					v-16.671c0,0,0.217-4.796,4.67-4.796c4.539,0,4.539,4.796,4.539,4.796v16.671h7.754l-0.021-16.671c0,0,0.241-4.728,4.414-4.728
					c4.428,0,4.68,4.728,4.68,4.728v16.685h6.905L129.618,110.301L129.618,110.301z"/>
			</g>
			<g>
				<path fill="#FFC248" d="M171.921,130.467v-25.14c-0.002-1.612-1.306-2.918-2.91-2.932h-2.716
					c2.04,2.892,3.236,6.413,3.236,10.221c0,9.84-7.971,17.81-17.809,17.81c-4.067,0-7.807-1.382-10.809-3.678v3.717
					c0,1.624,1.321,2.94,2.938,2.94h25.134C170.601,133.403,171.919,132.092,171.921,130.467z"/>
				<path fill="#FF6100" d="M166.292,102.397c-3.224-4.582-8.542-7.588-14.569-7.588c-9.829,0-17.812,7.976-17.812,17.809
					c0,5.766,2.749,10.874,6.996,14.13c2.997,2.302,6.741,3.681,10.81,3.681c9.835,0,17.808-7.972,17.808-17.811
					C169.532,108.811,168.333,105.29,166.292,102.397z M149.324,123.061c-3.021-0.37-7.257-3.183-8.409-5.236v-12.6v-0.069v-0.427
					c0-0.259,0.106-0.55,0.272-0.838c0.242-0.515,0.628-0.913,1.122-1.17c0.307-0.194,0.617-0.326,0.9-0.326h0.462h0.071h13.37
					c1.896,0.667,5.035,5.225,5.32,8.055C163.115,117.171,157.462,124.053,149.324,123.061z"/>
			</g>
		</g>
	</g>
</g>
<path fill="#FFC248" d="M82.182,128.452c0-0.388,0-6.123,0-6.123h6.096c0.365,0.672,0.236,3.271-1.371,4.705
	C85.133,128.619,82.629,128.452,82.182,128.452z"/>
</svg>
