<?xml version="1.0" encoding="UTF-8"?>
<svg width="20px" height="20px" viewBox="0 0 20 20" version="1.1" xmlns="http://www.w3.org/2000/svg" xmlns:xlink="http://www.w3.org/1999/xlink">
    <!-- Generator: Sketch 42 (36781) - http://www.bohemiancoding.com/sketch -->
    <title>launch/icon_qrcode</title>
    <desc>Created with Sketch.</desc>
    <defs>
        <path d="M7.71428571,16.2857143 L7.71428571,18 L6,18 L6,16.2857143 L7.71428571,16.2857143 Z M7.71428571,6 L7.71428571,7.71428571 L6,7.71428571 L6,6 L7.71428571,6 Z M18,6 L18,7.71428571 L16.2857143,7.71428571 L16.2857143,6 L18,6 Z M4.28571429,19.7008929 L9.42857143,19.7008929 L9.42857143,14.5714286 L4.28571429,14.5714286 L4.28571429,19.7008929 Z M4.28571429,9.42857143 L9.42857143,9.42857143 L9.42857143,4.28571429 L4.28571429,4.28571429 L4.28571429,9.42857143 Z M14.5714286,9.42857143 L19.7142857,9.42857143 L19.7142857,4.28571429 L14.5714286,4.28571429 L14.5714286,9.42857143 Z M11.1428571,12.8571429 L11.1428571,21.4285714 L2.57142857,21.4285714 L2.57142857,12.8571429 L11.1428571,12.8571429 Z M18,19.7142857 L18,21.4285714 L16.2857143,21.4285714 L16.2857143,19.7142857 L18,19.7142857 Z M21.4285714,19.7142857 L21.4285714,21.4285714 L19.7142857,21.4285714 L19.7142857,19.7142857 L21.4285714,19.7142857 Z M21.4285714,12.8571429 L21.4285714,18 L16.2857143,18 L16.2857143,16.2857143 L14.5714286,16.2857143 L14.5714286,21.4285714 L12.8571429,21.4285714 L12.8571429,12.8571429 L18,12.8571429 L18,14.5714286 L19.7142857,14.5714286 L19.7142857,12.8571429 L21.4285714,12.8571429 Z M11.1428571,2.57142857 L11.1428571,11.1428571 L2.57142857,11.1428571 L2.57142857,2.57142857 L11.1428571,2.57142857 Z M21.4285714,2.57142857 L21.4285714,11.1428571 L12.8571429,11.1428571 L12.8571429,2.57142857 L21.4285714,2.57142857 Z" id="path-1"></path>
    </defs>
    <g id="launch-頁面" stroke="none" stroke-width="1" fill="none" fill-rule="evenodd">
        <g id="account_panel" transform="translate(-24.000000, -352.000000)">
            <g id="icon/qrcode" transform="translate(22.000000, 350.000000)">
                <mask id="mask-2" fill="white">
                    <use xlink:href="#path-1"></use>
                </mask>
                <g id="Mask"></g>
                <g id="color/gray-light" mask="url(#mask-2)" fill-rule="evenodd" fill="#CCCCCC">
                    <g transform="translate(-0.000000, 0.000000)" id="Rectangle-20">
                        <rect x="0" y="0" width="24" height="24"></rect>
                    </g>
                </g>
            </g>
        </g>
    </g>
</svg>