<?xml version="1.0" encoding="UTF-8"?>
<svg width="24px" height="18px" viewBox="0 0 24 18" version="1.1" xmlns="http://www.w3.org/2000/svg" xmlns:xlink="http://www.w3.org/1999/xlink">
    <!-- Generator: Sketch 42 (36781) - http://www.bohemiancoding.com/sketch -->
    <title>launch/icon_shortlink</title>
    <desc>Created with Sketch.</desc>
    <defs>
        <path d="M17.8340323,17.4031201 C17.8614821,17.1419523 17.7934068,16.9103558 17.6298042,16.7083234 L15.8068135,14.4571173 C15.6432109,14.255085 15.430829,14.1403456 15.1696612,14.1128958 C14.895435,14.0840735 14.6494078,14.1638345 14.4315721,14.3521814 C14.4491009,14.3738277 14.5047797,14.4407411 14.59861,14.5529235 C14.6924403,14.665106 14.755251,14.7426708 14.7870441,14.7856203 C14.8188372,14.8285698 14.8612862,14.895743 14.9143923,14.9871419 C14.9674985,15.0785407 15.0011881,15.1662472 15.0154622,15.250264 C15.0297363,15.3342808 15.0317265,15.4252568 15.0214328,15.5231947 C14.993983,15.7843625 14.8792436,15.9967445 14.6772113,16.160347 C14.475179,16.3239496 14.2435824,16.3920249 13.9824146,16.3645751 C13.8844767,16.3542814 13.7959025,16.3334197 13.7166895,16.3019895 C13.6374764,16.2705592 13.558691,16.2193706 13.4803308,16.148422 C13.4019706,16.0774735 13.3450909,16.021986 13.3096901,15.981958 C13.2742893,15.9419299 13.2114786,15.8643651 13.121256,15.7492612 C13.0310334,15.6341573 12.9771585,15.5657832 12.9596297,15.5441369 C12.7228926,15.7238958 12.5901149,15.9508849 12.5612926,16.2251111 C12.5338428,16.4862788 12.6019181,16.7178754 12.7655206,16.9199077 L14.5699533,19.1592613 C14.7277129,19.3540782 14.940438,19.465553 15.2081349,19.4936891 C15.4693027,19.521139 15.700213,19.4595927 15.9008729,19.3090486 L17.4908401,18.0304787 C17.6928725,17.8668761 17.8072687,17.6577587 17.8340323,17.4031201 Z M11.6747329,9.77488895 C11.7021827,9.51372118 11.6341074,9.2821246 11.4705048,9.08009228 L9.66607218,6.84073866 C9.50246963,6.63870633 9.29008766,6.52396697 9.02891989,6.49651713 C8.77428131,6.46975354 8.54302786,6.53456432 8.33515258,6.69095144 L6.74518533,7.96952135 C6.54315301,8.1331239 6.42875676,8.34224133 6.40199317,8.5968799 C6.37454333,8.85804767 6.44261867,9.08964425 6.60622122,9.29167657 L8.42921197,11.5428827 C8.58697157,11.7376995 8.79969666,11.8491744 9.06739363,11.8773104 C9.34161979,11.9061328 9.58730391,11.8296363 9.80445336,11.6478186 C9.78692451,11.6261723 9.73124578,11.5592589 9.63741548,11.4470765 C9.54358519,11.334894 9.48077444,11.2573292 9.44898134,11.2143797 C9.41718825,11.1714302 9.37473927,11.104257 9.32163312,11.0128581 C9.26852697,10.9214593 9.23483735,10.8337528 9.22056325,10.749736 C9.20628914,10.6657192 9.20429896,10.5747432 9.21459265,10.4768053 C9.24204249,10.2156375 9.35678185,10.0032555 9.55881418,9.83965299 C9.7608465,9.67605043 9.99244308,9.6079751 10.2536108,9.63542494 C10.3515488,9.64571863 10.4401229,9.66658029 10.519336,9.69801054 C10.5985491,9.7294408 10.6773345,9.78062943 10.7556947,9.85157797 C10.8340549,9.92252651 10.8909345,9.97801397 10.9263353,10.018042 C10.9617362,10.0580701 11.0245469,10.1356349 11.1147695,10.2507388 C11.2049921,10.3658427 11.258867,10.4342168 11.2763958,10.4558631 C11.5131328,10.2761042 11.6459105,10.0491151 11.6747329,9.77488895 Z M19.7144308,17.6007579 C19.6320813,18.3842613 19.2849418,19.0177995 18.6730019,19.5013917 L17.0830346,20.7799616 C16.4841531,21.2649264 15.792971,21.4662309 15.0094677,21.3838814 C14.2194352,21.3008456 13.5826324,20.953363 13.0990402,20.3414231 L11.2946076,18.1020695 C10.8096429,17.5031879 10.6083383,16.8120059 10.6906878,16.0285026 C10.7750961,15.2254117 11.1340879,14.5733155 11.7676742,14.0721944 L10.9964088,13.1197611 C10.3745085,13.635313 9.66528811,13.8512247 8.86872641,13.7675027 C8.0852231,13.6851532 7.44807718,13.3409351 6.95726952,12.7348382 L5.13427877,10.4836321 C4.64347112,9.87753508 4.43924511,9.18274536 4.52159463,8.39924205 C4.60394414,7.61573874 4.95108366,6.98220048 5.56302359,6.49860827 L7.15299083,5.22003835 C7.75187237,4.73507365 8.44305443,4.53376907 9.22655774,4.61611859 C10.0165902,4.69915435 10.653393,5.04663698 11.1369853,5.65857691 L12.9414179,7.89793053 C13.4263826,8.49681207 13.6276872,9.18799412 13.5453377,9.97149743 C13.4609294,10.7745883 13.1019375,11.4266845 12.4683513,11.9278056 L13.2396166,12.8802389 C13.861517,12.364687 14.5707373,12.1487753 15.367299,12.2324973 C16.1508024,12.3148468 16.7879483,12.6590649 17.2787559,13.2651618 L19.1017467,15.5163679 C19.5925543,16.1224649 19.7967803,16.8172546 19.7144308,17.6007579 Z M19.7307026,13.9117405 L24.6326634,10.2352699 L24.6326634,17.5882111 L19.7307026,13.9117405 Z M6.26929741,13.9117405 L1.36733662,17.5882111 L1.36733662,10.2352699 L6.26929741,13.9117405 Z" id="path-1"></path>
    </defs>
    <g id="launch-頁面" stroke="none" stroke-width="1" fill="none" fill-rule="evenodd">
        <g id="account_panel-copy" transform="translate(-33.000000, -34.000000)">
            <g id="launch/icon_shortlink" transform="translate(32.000000, 30.294734)">
                <rect id="Rectangle" fill-opacity="0" fill="#000000" fill-rule="evenodd" x="0" y="0" width="26" height="26"></rect>
                <mask id="mask-2" fill="white">
                    <use xlink:href="#path-1"></use>
                </mask>
                <use id="Mask" fill="#FFFFFF" fill-rule="evenodd" xlink:href="#path-1"></use>
                <g id="color/white" mask="url(#mask-2)" fill-rule="evenodd" fill="#FFFFFF">
                    <rect id="Rectangle-20" x="0" y="0" width="26" height="26"></rect>
                </g>
            </g>
        </g>
    </g>
</svg>