<?xml version="1.0" encoding="UTF-8"?>
<svg width="71px" height="37px" viewBox="0 0 71 37" version="1.1" xmlns="http://www.w3.org/2000/svg" xmlns:xlink="http://www.w3.org/1999/xlink">
    <!-- Generator: Sketch 42 (36781) - http://www.bohemiancoding.com/sketch -->
    <title>launch/icon_vr_lg</title>
    <desc>Created with Sketch.</desc>
    <defs></defs>
    <g id="launch-頁面" stroke="none" stroke-width="1" fill="none" fill-rule="evenodd">
        <g id="Launch" transform="translate(-1201.000000, -558.000000)">
            <g id="icon_vr" transform="translate(1196.500000, 536.687293)">
                <g id="Group">
                    <rect id="Rectangle-5" fill-opacity="0" fill="#D8D8D8" x="0" y="0" width="80" height="80"></rect>
                    <path d="M48.8545317,56.9377639 C49.0650929,57.4426127 49.6802665,57.8518735 50.2394471,57.8518735 L66.5144838,57.8518735 C68.9049247,57.8518735 70.8536166,55.6292122 70.8536166,52.8874205 L70.8536166,27.1125795 C70.8536166,24.3680659 68.9109207,22.1481265 66.5144838,22.1481265 L13.4855162,22.1481265 C11.0950753,22.1481265 9.14638341,24.3707878 9.14638341,27.1125795 L9.14638341,52.8874205 C9.14638341,55.6319341 11.0890793,57.8518735 13.4855162,57.8518735 L30.577751,57.8518735 C31.129152,57.8518735 31.7517439,57.4422056 31.9679594,56.9377639 L36.6773028,45.9506245 C37.2363093,44.7014744 38.6765521,43.9555382 40.5249536,43.9555382 C42.3733551,43.9555382 43.7389186,44.7593188 44.2720392,45.9506245 L48.8545317,56.9377639 Z M25.2467566,46.3006612 C28.9387527,46.3006612 31.9317068,43.2446839 31.9317068,39.4749449 C31.9317068,35.7052059 28.9387527,32.6492286 25.2467566,32.6492286 C21.5547605,32.6492286 18.5618063,35.7052059 18.5618063,39.4749449 C18.5618063,43.2446839 21.5547605,46.3006612 25.2467566,46.3006612 Z M54.6808171,46.3006612 C50.988821,46.3006612 47.9958668,43.2446839 47.9958668,39.4749449 C47.9958668,35.7052059 50.988821,32.6492286 54.6808171,32.6492286 C58.3728132,32.6492286 61.3657674,35.7052059 61.3657674,39.4749449 C61.3657674,43.2446839 58.3728132,46.3006612 54.6808171,46.3006612 Z M5.03256787,29.4477263 C5.03256787,28.8960278 5.48782361,28.4487877 6.02577892,28.4487877 L7.12471848,28.4487877 C7.67325379,28.4487877 8.11792953,28.9048969 8.11792953,29.4477263 L8.11792953,42.151392 C8.11792953,42.7030906 7.66267379,43.1503306 7.12471848,43.1503306 L6.02577892,43.1503306 C5.4772436,43.1503306 5.03256787,42.6942215 5.03256787,42.151392 L5.03256787,29.4477263 Z M71.8820705,29.4477263 C71.8820705,28.8960278 72.3373262,28.4487877 72.8752815,28.4487877 L73.9742211,28.4487877 C74.5227564,28.4487877 74.9674321,28.9048969 74.9674321,29.4477263 L74.9674321,42.151392 C74.9674321,42.7030906 74.5121764,43.1503306 73.9742211,43.1503306 L72.8752815,43.1503306 C72.3267462,43.1503306 71.8820705,42.6942215 71.8820705,42.151392 L71.8820705,29.4477263 Z" id="Combined-Shape" fill="#606060"></path>
                </g>
            </g>
        </g>
    </g>
</svg>