<?xml version="1.0" encoding="UTF-8"?>
<svg width="16px" height="16px" viewBox="0 0 16 16" version="1.1" xmlns="http://www.w3.org/2000/svg" xmlns:xlink="http://www.w3.org/1999/xlink">
    <!-- Generator: Sketch 42 (36781) - http://www.bohemiancoding.com/sketch -->
    <title>launch/icon_refresh</title>
    <desc>Created with Sketch.</desc>
    <defs>
        <path d="M19.4631696,13.6071429 C19.4631696,13.6406252 19.4598215,13.6640624 19.453125,13.6774554 C19.0245514,15.4721072 18.127239,16.9268917 16.7611607,18.0418527 C15.3950825,19.1568136 13.794652,19.7142857 11.9598214,19.7142857 C10.982138,19.7142857 10.0362769,19.5301358 9.12220982,19.1618304 C8.20814275,18.7935249 7.39286073,18.2678606 6.67633929,17.5848214 L5.38058036,18.8805804 C5.25334758,19.0078131 5.10267944,19.0714286 4.92857143,19.0714286 C4.75446342,19.0714286 4.60379528,19.0078131 4.4765625,18.8805804 C4.34932972,18.7533476 4.28571429,18.6026794 4.28571429,18.4285714 L4.28571429,13.9285714 C4.28571429,13.7544634 4.34932972,13.6037953 4.4765625,13.4765625 C4.60379528,13.3493297 4.75446342,13.2857143 4.92857143,13.2857143 L9.42857143,13.2857143 C9.60267944,13.2857143 9.75334758,13.3493297 9.88058036,13.4765625 C10.0078131,13.6037953 10.0714286,13.7544634 10.0714286,13.9285714 C10.0714286,14.1026794 10.0078131,14.2533476 9.88058036,14.3805804 L8.50446429,15.7566964 C8.97991309,16.1986629 9.5189702,16.5401774 10.1216518,16.78125 C10.7243334,17.0223226 11.3504432,17.1428571 12,17.1428571 C12.8973259,17.1428571 13.7343711,16.9252254 14.5111607,16.4899554 C15.2879503,16.0546853 15.9107119,15.455361 16.3794643,14.6919643 C16.4531254,14.5781244 16.630579,14.1863873 16.9118304,13.5167411 C16.9654021,13.3627224 17.0658475,13.2857143 17.2131696,13.2857143 L19.1417411,13.2857143 C19.2287951,13.2857143 19.3041291,13.317522 19.3677455,13.3811384 C19.4313619,13.4447548 19.4631696,13.5200889 19.4631696,13.6071429 Z M19.7142857,5.57142857 L19.7142857,10.0714286 C19.7142857,10.2455366 19.6506703,10.3962047 19.5234375,10.5234375 C19.3962047,10.6506703 19.2455366,10.7142857 19.0714286,10.7142857 L14.5714286,10.7142857 C14.3973206,10.7142857 14.2466524,10.6506703 14.1194196,10.5234375 C13.9921869,10.3962047 13.9285714,10.2455366 13.9285714,10.0714286 C13.9285714,9.89732056 13.9921869,9.74665242 14.1194196,9.61941964 L15.5055804,8.23325893 C14.514504,7.31584363 13.3459889,6.85714286 12,6.85714286 C11.1026741,6.85714286 10.2656289,7.07477461 9.48883929,7.51004464 C8.71204969,7.94531468 8.08928806,8.54463904 7.62053571,9.30803571 C7.54687463,9.42187557 7.36942105,9.81361272 7.08816964,10.4832589 C7.03459795,10.6372776 6.93415252,10.7142857 6.78683036,10.7142857 L4.78794643,10.7142857 C4.70089242,10.7142857 4.62555835,10.682478 4.56194196,10.6188616 C4.49832557,10.5552452 4.46651786,10.4799111 4.46651786,10.3928571 L4.46651786,10.3225446 C4.90178789,8.52789281 5.80579671,7.07310825 7.17857143,5.95814732 C8.55134615,4.84318639 10.1584729,4.28571429 12,4.28571429 C12.9776835,4.28571429 13.9285668,4.47153832 14.8526786,4.84319196 C15.7767903,5.21484561 16.5970946,5.7388359 17.3136161,6.41517857 L18.6194196,5.11941964 C18.7466524,4.99218686 18.8973206,4.92857143 19.0714286,4.92857143 C19.2455366,4.92857143 19.3962047,4.99218686 19.5234375,5.11941964 C19.6506703,5.24665242 19.7142857,5.39732056 19.7142857,5.57142857 Z" id="path-1"></path>
    </defs>
    <g id="launch-頁面" stroke="none" stroke-width="1" fill="none" fill-rule="evenodd">
        <g id="Launch" transform="translate(-824.000000, -304.000000)">
            <g id="launch/icon_refresh" transform="translate(820.000000, 300.000000)">
                <mask id="mask-2" fill="white">
                    <use xlink:href="#path-1"></use>
                </mask>
                <g id="Mask"></g>
                <g id="color/gray-light" mask="url(#mask-2)" fill-rule="evenodd" fill="#E1E1E1">
                    <rect id="Rectangle-20" x="0" y="0" width="24" height="24"></rect>
                </g>
            </g>
        </g>
    </g>
</svg>