<?xml version="1.0" encoding="UTF-8"?>
<svg width="64px" height="63px" viewBox="0 0 64 63" version="1.1" xmlns="http://www.w3.org/2000/svg" xmlns:xlink="http://www.w3.org/1999/xlink">
    <!-- Generator: Sketch 42 (36781) - http://www.bohemiancoding.com/sketch -->
    <title>launch/icon_sticker_lg_h</title>
    <desc>Created with Sketch.</desc>
    <defs></defs>
    <g id="launch-頁面" stroke="none" stroke-width="1" fill="none" fill-rule="evenodd" opacity="0.7">
        <g id="Launch" transform="translate(-407.000000, -783.000000)">
            <g id="icon_sticker-copy" transform="translate(399.417315, 774.687293)">
                <rect id="Rectangle-5" fill-opacity="0" fill="#D8D8D8" x="0" y="0" width="80" height="80"></rect>
                <g id="Group-8" stroke-width="1" transform="translate(9.000000, 9.500000)">
                    <path d="M30.7027615,59.9080139 C30.508536,59.9116879 30.3138604,59.9135331 30.1187516,59.9135331 C13.4846244,59.9135331 0,46.5014319 0,29.9567665 C0,13.4121012 13.4846244,0 30.1187516,0 C46.7528789,0 60.2375032,13.4121012 60.2375032,29.9567665 C60.2375032,30.150826 60.235648,30.3444546 60.2319541,30.5376355 L55.4753196,30.5376355 C55.4797059,30.3445404 55.4819108,30.1509096 55.4819108,29.9567665 C55.4819108,16.0244168 44.1264377,4.73001578 30.1187516,4.73001578 C16.1110655,4.73001578 4.75559236,16.0244168 4.75559236,29.9567665 C4.75559236,43.8891163 16.1110655,55.1835173 30.1187516,55.1835173 C30.3139444,55.1835173 30.5086222,55.1813242 30.7027615,55.1769616 L30.7027615,59.9080139 Z" id="Combined-Shape" stroke="#FF6C00" stroke-width="2"></path>
                    <path d="M31.7988837,15.6440907 L44.5211844,15.6440907 L44.5211844,28.2979682 L31.7988837,28.2979682 L31.7988837,15.6440907 Z M34.9794589,18.80756 L41.3406093,18.80756 L41.3406093,25.1344988 L34.9794589,25.1344988 L34.9794589,18.80756 Z M36.2914352,20.2706755 L39.8695823,20.2706755 L39.8695823,23.8295785 L36.2914352,23.8295785 L36.2914352,20.2706755 Z" id="Combined-Shape" fill="#FF6C00"></path>
                    <path d="M15.8960078,15.6440907 L28.6183085,15.6440907 L28.6183085,28.2979682 L15.8960078,28.2979682 L15.8960078,15.6440907 Z M19.076583,18.80756 L25.4377333,18.80756 L25.4377333,25.1344988 L19.076583,25.1344988 L19.076583,18.80756 Z M20.5476099,20.2706755 L24.125757,20.2706755 L24.125757,23.8295785 L20.5476099,23.8295785 L20.5476099,20.2706755 Z" id="Combined-Shape" fill="#FF6C00"></path>
                    <rect id="Rectangle-5-Copy" fill="#FF6C00" x="36.0809236" y="36.1594795" width="3.69398557" height="3.65322736"></rect>
                    <rect id="Rectangle-5-Copy" fill="#FF6C00" x="40.5950811" y="40.6598045" width="3.69398557" height="3.65322736"></rect>
                    <rect id="Rectangle-5-Copy-5" fill="#FF6C00" x="40.5950811" y="31.6591544" width="3.69398557" height="3.65322736"></rect>
                    <rect id="Rectangle-5-Copy-4" fill="#FF6C00" x="31.566766" y="40.6598045" width="3.69398557" height="3.65322736"></rect>
                    <rect id="Rectangle-5-Copy-6" fill="#FF6C00" x="31.566766" y="31.6591544" width="3.69398557" height="3.65322736"></rect>
                    <path d="M15.8960078,31.4614375 L28.6183085,31.4614375 L28.6183085,44.1153151 L15.8960078,44.1153151 L15.8960078,31.4614375 Z M19.076583,34.6249069 L25.4377333,34.6249069 L25.4377333,40.9518457 L19.076583,40.9518457 L19.076583,34.6249069 Z M20.5476099,35.9298272 L24.125757,35.9298272 L24.125757,39.4887302 L20.5476099,39.4887302 L20.5476099,35.9298272 Z" id="Combined-Shape" fill="#FF6C00"></path>
                    <path d="M60.1900157,29.2066732 C60.6569807,31.1334551 60.9046905,33.1480094 60.9046905,35.2214001 C60.9046905,49.0557505 49.8766599,60.2707075 36.2728947,60.2707075 C34.4629914,60.2707075 32.6986807,60.0721937 30.9998675,59.6954093 L29.8406563,58.6007534 L60.1900157,29.2066732 Z" id="Combined-Shape" stroke="#FF6C00" stroke-width="2" stroke-linejoin="round" fill="#FFFFFF" transform="translate(45.372673, 44.738690) rotate(179.000000) translate(-45.372673, -44.738690) "></path>
                </g>
            </g>
        </g>
    </g>
</svg>