<?xml version="1.0" encoding="UTF-8"?>
<svg width="18px" height="18px" viewBox="0 0 18 18" version="1.1" xmlns="http://www.w3.org/2000/svg" xmlns:xlink="http://www.w3.org/1999/xlink">
    <!-- Generator: Sketch 42 (36781) - http://www.bohemiancoding.com/sketch -->
    <title>launch/icon_go</title>
    <desc>Created with Sketch.</desc>
    <defs>
        <path d="M11.4023438,17.8476562 L16.7226562,12.5273438 C16.8710945,12.3789055 16.9453125,12.203126 16.9453125,12 C16.9453125,11.796874 16.8710945,11.6210945 16.7226562,11.4726562 L11.4023438,6.15234375 C11.2539055,6.00390551 11.078126,5.9296875 10.875,5.9296875 C10.671874,5.9296875 10.4960945,6.00390551 10.3476562,6.15234375 L9.15234375,7.34765625 C9.00390551,7.49609449 8.9296875,7.67187398 8.9296875,7.875 C8.9296875,8.07812602 9.00390551,8.25390551 9.15234375,8.40234375 L12.75,12 L9.15234375,15.5976562 C9.00390551,15.7460945 8.9296875,15.921874 8.9296875,16.125 C8.9296875,16.328126 9.00390551,16.5039055 9.15234375,16.6523438 L10.3476562,17.8476562 C10.4960945,17.9960945 10.671874,18.0703125 10.875,18.0703125 C11.078126,18.0703125 11.2539055,17.9960945 11.4023438,17.8476562 Z M21,12 C21,13.6328207 20.5976603,15.138665 19.7929688,16.5175781 C18.9882772,17.8964913 17.8964913,18.9882772 16.5175781,19.7929688 C15.138665,20.5976603 13.6328207,21 12,21 C10.3671793,21 8.86133502,20.5976603 7.48242188,19.7929688 C6.10350873,18.9882772 5.01172277,17.8964913 4.20703125,16.5175781 C3.40233973,15.138665 3,13.6328207 3,12 C3,10.3671793 3.40233973,8.86133502 4.20703125,7.48242188 C5.01172277,6.10350873 6.10350873,5.01172277 7.48242188,4.20703125 C8.86133502,3.40233973 10.3671793,3 12,3 C13.6328207,3 15.138665,3.40233973 16.5175781,4.20703125 C17.8964913,5.01172277 18.9882772,6.10350873 19.7929688,7.48242188 C20.5976603,8.86133502 21,10.3671793 21,12 Z" id="path-1"></path>
    </defs>
    <g id="launch-頁面" stroke="none" stroke-width="1" fill="none" fill-rule="evenodd">
        <g id="account_panel" transform="translate(-216.000000, -353.000000)">
            <g id="icon/go" transform="translate(213.000000, 350.000000)">
                <mask id="mask-2" fill="white">
                    <use xlink:href="#path-1"></use>
                </mask>
                <use id="Mask" fill="#FF9600" fill-rule="evenodd" xlink:href="#path-1"></use>
                <g id="color/yellow" mask="url(#mask-2)" fill-rule="evenodd" fill="#FF9600">
                    <rect id="Rectangle-19" x="0" y="0" width="24" height="24"></rect>
                </g>
            </g>
        </g>
    </g>
</svg>