<?xml version="1.0" encoding="UTF-8"?>
<svg width="22px" height="22px" viewBox="0 0 22 22" version="1.1" xmlns="http://www.w3.org/2000/svg" xmlns:xlink="http://www.w3.org/1999/xlink">
    <!-- Generator: Sketch 42 (36781) - http://www.bohemiancoding.com/sketch -->
    <title>launch/icon_setting</title>
    <desc>Created with Sketch.</desc>
    <defs>
        <path d="M15.6666667,12 C15.6666667,10.9878422 15.3085973,10.1237015 14.5924479,9.40755208 C13.8762985,8.69140267 13.0121578,8.33333333 12,8.33333333 C10.9878422,8.33333333 10.1237015,8.69140267 9.40755208,9.40755208 C8.69140267,10.1237015 8.33333333,10.9878422 8.33333333,12 C8.33333333,13.0121578 8.69140267,13.8762985 9.40755208,14.5924479 C10.1237015,15.3085973 10.9878422,15.6666667 12,15.6666667 C13.0121578,15.6666667 13.8762985,15.3085973 14.5924479,14.5924479 C15.3085973,13.8762985 15.6666667,13.0121578 15.6666667,12 Z M23,10.4388021 L23,13.6184896 C23,13.7330735 22.9618059,13.8428814 22.8854167,13.9479167 C22.8090274,14.0529519 22.7135422,14.1150173 22.5989583,14.1341146 L19.9492188,14.5351562 C19.7677942,15.0507838 19.5815982,15.4852413 19.390625,15.8385417 C19.7248281,16.3159746 20.2356736,16.9748222 20.9231771,17.8151042 C21.0186637,17.9296881 21.0664063,18.0490445 21.0664063,18.1731771 C21.0664063,18.2973096 21.0234379,18.4071176 20.9375,18.5026042 C20.6796862,18.8559045 20.2070347,19.3715244 19.5195313,20.0494792 C18.8320278,20.7274339 18.3832476,21.0664063 18.1731771,21.0664063 C18.0585932,21.0664063 17.9344625,21.0234379 17.8007813,20.9375 L15.8242188,19.390625 C15.4040778,19.6102442 14.9696203,19.791666 14.5208333,19.9348958 C14.3680548,21.2335134 14.2296013,22.1215254 14.1054688,22.5989583 C14.0386281,22.8663208 13.8667549,23 13.5898438,23 L10.4101563,23 C10.276475,23 10.1595057,22.9594188 10.0592448,22.8782552 C9.95898387,22.7970916 9.90407991,22.6944451 9.89453125,22.5703125 L9.49348958,19.9348958 C9.0256053,19.7821173 8.5959221,19.6054698 8.20442708,19.4049479 L6.18489583,20.9375 C6.08940924,21.0234379 5.9700528,21.0664063 5.82682292,21.0664063 C5.69314169,21.0664063 5.57378525,21.0138894 5.46875,20.9088542 C4.26561898,19.8203071 3.47786645,19.0182317 3.10546875,18.5026042 C3.03862814,18.4071176 3.00520833,18.2973096 3.00520833,18.1731771 C3.00520833,18.0585932 3.0434024,17.9487852 3.11979167,17.84375 C3.26302155,17.6432282 3.5065087,17.32574 3.85026042,16.891276 C4.19401214,16.4568121 4.45182206,16.1202269 4.62369792,15.8815104 C4.36588413,15.4040775 4.17013956,14.931426 4.03645833,14.4635417 L1.41536458,14.0768229 C1.29123202,14.0577256 1.1909726,13.9980474 1.11458333,13.8977865 C1.03819406,13.7975255 1,13.6853305 1,13.5611979 L1,10.3815104 C1,10.2669265 1.03819406,10.1571186 1.11458333,10.0520833 C1.1909726,9.94704809 1.2816835,9.88498273 1.38671875,9.86588542 L4.05078125,9.46484375 C4.18446247,9.02560544 4.37065853,8.58637372 4.609375,8.14713542 C4.22742865,7.60286186 3.71658306,6.94401428 3.07682292,6.17057292 C2.98133633,6.05598901 2.93359375,5.94140682 2.93359375,5.82682292 C2.93359375,5.73133633 2.97656207,5.6215284 3.0625,5.49739583 C3.31076513,5.15364411 3.78102952,4.6404114 4.47330729,3.95768229 C5.16558506,3.27495318 5.61675242,2.93359375 5.82682292,2.93359375 C5.95095548,2.93359375 6.07508618,2.98133633 6.19921875,3.07682292 L8.17578125,4.609375 C8.59592224,4.38975585 9.0303797,4.20833405 9.47916667,4.06510417 C9.63194521,2.76648656 9.77039868,1.87847461 9.89453125,1.40104167 C9.96137186,1.13367922 10.1332451,1 10.4101563,1 L13.5898438,1 C13.723525,1 13.8404943,1.04058119 13.9407552,1.12174479 C14.0410161,1.20290839 14.0959201,1.30555493 14.1054688,1.4296875 L14.5065104,4.06510417 C14.9743947,4.21788271 15.4040779,4.39453025 15.7955729,4.59505208 L17.8294271,3.0625 C17.915365,2.97656207 18.0299472,2.93359375 18.1731771,2.93359375 C18.2973096,2.93359375 18.4166661,2.98133633 18.53125,3.07682292 C19.763027,4.21311332 20.5507795,5.02473715 20.8945313,5.51171875 C20.9613719,5.58810802 20.9947917,5.69314169 20.9947917,5.82682292 C20.9947917,5.94140682 20.9565976,6.05121475 20.8802083,6.15625 C20.7369785,6.35677184 20.4934913,6.67425998 20.1497396,7.10872396 C19.8059879,7.54318794 19.5481779,7.87977311 19.3763021,8.11848958 C19.6245672,8.59592253 19.8203118,9.06379979 19.9635417,9.52213542 L22.5846354,9.92317708 C22.708768,9.9422744 22.8090274,10.0019526 22.8854167,10.1022135 C22.9618059,10.2024745 23,10.3146695 23,10.4388021 Z" id="path-1"></path>
    </defs>
    <g id="launch-頁面" stroke="none" stroke-width="1" fill="none" fill-rule="evenodd">
        <g id="account_panel" transform="translate(-23.000000, -527.000000)">
            <g id="icon_setting" transform="translate(22.000000, 526.000000)">
                <mask id="mask-2" fill="white">
                    <use xlink:href="#path-1"></use>
                </mask>
                <use id="Mask" fill="#CCCCCC" fill-rule="evenodd" xlink:href="#path-1"></use>
                <g id="color/gray-light" mask="url(#mask-2)" fill-rule="evenodd" fill="#CCCCCC">
                    <g transform="translate(-0.000000, 0.000000)" id="Rectangle-20">
                        <rect x="0" y="0" width="24" height="24"></rect>
                    </g>
                </g>
            </g>
        </g>
    </g>
</svg>