<?xml version="1.0" encoding="UTF-8"?>
<svg width="20px" height="11px" viewBox="0 0 20 11" version="1.1" xmlns="http://www.w3.org/2000/svg" xmlns:xlink="http://www.w3.org/1999/xlink">
    <!-- Generator: Sketch 42 (36781) - http://www.bohemiancoding.com/sketch -->
    <title>launch/icon_vr</title>
    <desc>Created with Sketch.</desc>
    <defs>
        <path d="M15.8571429,18 C15.8724994,18 21.5936388,18 21.5936388,18 C22.3684073,18 23,17.3774711 23,16.6095428 L23,9.39045715 C23,8.62176651 22.3703507,8 21.5936388,8 L4.40636116,8 C3.63159268,8 3,8.62252887 3,9.39045715 L3,16.6095428 C3,17.3782335 3.62964934,18 4.40636116,18 C4.40636116,18 9.68881734,18 10.1428571,18 L12.4907507,14.3172063 C12.8446704,13.6337752 13.4183833,13.633574 13.7724072,14.3172063 C13.7724072,14.3172063 15.8417864,18 15.8571429,18 Z M7.50704225,14.6666667 C8.44048127,14.6666667 9.1971831,13.9204746 9.1971831,13 C9.1971831,12.0795254 8.44048127,11.3333333 7.50704225,11.3333333 C6.57360324,11.3333333 5.81690141,12.0795254 5.81690141,13 C5.81690141,13.9204746 6.57360324,14.6666667 7.50704225,14.6666667 Z M18.7746479,14.6666667 C19.7080869,14.6666667 20.4647887,13.9204746 20.4647887,13 C20.4647887,12.0795254 19.7080869,11.3333333 18.7746479,11.3333333 C17.8412089,11.3333333 17.084507,12.0795254 17.084507,13 C17.084507,13.9204746 17.8412089,14.6666667 18.7746479,14.6666667 Z" id="path-1"></path>
    </defs>
    <g id="launch-頁面" stroke="none" stroke-width="1" fill="none" fill-rule="evenodd">
        <g id="account_panel-copy" transform="translate(-35.000000, -207.000000)">
            <g id="launch/icon_vr" transform="translate(32.000000, 199.894734)">
                <mask id="mask-2" fill="white">
                    <use xlink:href="#path-1"></use>
                </mask>
                <use id="Mask" fill="#FFFFFF" fill-rule="evenodd" xlink:href="#path-1"></use>
                <g id="color/white" mask="url(#mask-2)" fill-rule="evenodd" fill="#FFFFFF">
                    <g transform="translate(-0.000000, 0.000000)" id="Rectangle-20">
                        <rect x="0" y="0" width="26" height="26"></rect>
                    </g>
                </g>
            </g>
        </g>
    </g>
</svg>