<?xml version="1.0" encoding="UTF-8"?>
<svg width="133px" height="125px" viewBox="0 0 133 125" version="1.1" xmlns="http://www.w3.org/2000/svg" xmlns:xlink="http://www.w3.org/1999/xlink">
    <!-- Generator: Sketch 42 (36781) - http://www.bohemiancoding.com/sketch -->
    <title>launch/img_sheep01</title>
    <desc>Created with Sketch.</desc>
    <defs></defs>
    <g id="launch-頁面" stroke="none" stroke-width="1" fill="none" fill-rule="evenodd">
        <g id="Launch" transform="translate(-1269.000000, -168.000000)">
            <g id="img_sheep01" transform="translate(1271.000000, 169.000000)">
                <path d="M25.9460159,89.2675972 C25.9460159,89.2675972 23.7909922,108.447308 1.16324384,105.645777" id="Path-2" stroke="#54C4B5" stroke-width="3" stroke-linecap="round" transform="translate(13.554630, 97.596453) rotate(9.000000) translate(-13.554630, -97.596453) "></path>
                <g id="Group-3" stroke-width="1" fill-rule="evenodd" transform="translate(10.000000, 0.630935)">
                    <path d="M37.4225362,106.185688 C37.6494054,106.2235 41.0902554,106.904108 42.5270939,106.2235 C42.6783401,109.399669 43.8504978,112.727085 43.8504978,112.727085 L49.1063017,112.727085 C49.1063017,112.727085 48.0853901,104.143865 51.5640517,100.703015 C54.5133517,97.6024691 51.374994,94.3128653 51.4884286,93.8591268" id="Shape" stroke="#E2E2E2" stroke-width="2.7024" fill="#E2E2E2" fill-rule="nonzero"></path>
                    <path d="M14.0280809,116.14101 C14.0280809,116.745995 14.5196309,117.237545 15.1246155,117.237545 L18.2629733,117.237545 C18.8679579,117.237545 19.3216964,116.63256 19.3216964,116.027576 L19.3216964,115.271345 C19.3216964,114.66636 18.8301464,114.212622 18.2251617,114.212622 L15.086804,114.212622 C14.5196309,114.212622 14.0280809,114.779795 14.0658925,115.38478 L14.0280809,116.14101 Z" id="Shape" fill="#CCCCCC" fill-rule="nonzero"></path>
                    <path d="M50.0137786,116.103199 C50.0137786,116.708184 49.4844171,117.237545 48.917244,117.237545 L45.7032632,117.237545 C45.0982786,117.237545 44.6067286,116.594749 44.6445401,115.989764 L44.6445401,115.271345 C44.6445401,114.66636 45.1739016,114.212622 45.7410747,114.212622 L48.9550555,114.212622 C49.5600401,114.212622 50.0515902,114.779795 50.0137786,115.38478 L50.0137786,116.103199 Z" id="Shape" fill="#CCCCCC" fill-rule="nonzero"></path>
                    <path d="M26.6571349,106.299123 C26.4302657,106.336935 23.0650387,107.017542 21.7038233,106.336935 C21.5525772,109.513104 20.418231,112.840519 20.418231,112.840519 L15.3136732,112.840519 C15.3136732,112.840519 16.2967733,104.2573 12.9315463,100.81645 C10.0578693,97.7159038 10.7006655,94.4262999 10.5872309,93.9725614" id="Shape" stroke="#E2E2E2" stroke-width="2.6661" fill="#E2E2E2" fill-rule="nonzero"></path>
                    <path d="M2.68461926,26.2142837 C3.06273465,25.0799376 3.32741542,24.3615183 2.94930003,21.601276 C2.30650387,17.0638913 5.9364116,11.9593336 8.54540778,10.446872 C11.154404,8.93441048 13.1962271,9.80407588 13.1962271,9.80407588 C13.1962271,9.80407588 14.9733694,7.45976047 18.0739156,6.09854507 C21.0610272,4.77514121 25.1068618,6.59009507 25.1068618,6.59009507 C25.1068618,6.59009507 29.4551888,3.7920412 32.0263734,3.7920412 C37.7737273,3.7920412 38.454335,5.11544506 40.6852158,5.68261814 C43.4454582,4.66170659 46.735062,5.98511045 46.735062,5.98511045 C49.9868544,7.80006432 50.9321429,10.5603067 52.2555467,11.0518567 C58.3053929,11.6190297 61.330316,16.4589067 61.5949968,20.9206683 C61.7840545,23.8699683 62.3512276,25.7605453 62.3512276,25.7605453 C62.3512276,25.7605453 64.203993,27.915803 64.5442969,30.6760453 C64.8846007,33.4362877 62.8427776,35.4402992 62.8427776,35.4402992 C62.8427776,35.4402992 64.5821084,39.2970762 63.6746315,43.3050993 C62.7671545,47.3131224 59.2506814,48.6743378 59.2506814,48.6743378 C59.2506814,48.6743378 60.347216,54.1948225 56.9819891,56.3122687 C53.541139,58.5053379 54.5620506,59.488438 52.7092852,61.8705649 C50.8565198,64.2526918 49.3440582,64.3283149 49.3440582,64.3283149 C49.3440582,64.3283149 49.7977967,66.8994996 49.4574928,68.4875842 C49.1550005,70.0756688 47.9828428,72.0418689 47.9450313,74.4996189 C47.9072197,77.2220497 46.0544543,78.6588882 45.9788313,79.9066689 C45.8275851,82.0241151 46.0544543,82.3266074 46.0544543,82.3266074 C46.0544543,82.3266074 49.8734198,82.3266074 50.1381005,85.9565152 C53.541139,88.5655113 52.1043006,93.2541422 52.1043006,93.2541422 C52.1043006,93.2541422 53.4277044,94.5397345 52.6714736,97.4890345 C53.0874006,101.156754 50.591839,105.542892 47.4912928,107.2066 C46.3191351,108.227512 45.0335428,110.269335 43.8991966,112.348969 C43.0295312,116.092312 40.8742735,118.814742 40.8742735,118.814742 L36.1856427,118.814742 C35.2403542,117.680396 34.3706888,114.466415 34.1438196,112.273346 C33.9169504,112.311158 30.2114196,112.991765 28.698958,112.311158 C28.5099003,115.487327 26.6193234,118.814742 26.6193234,118.814742 L21.9306925,118.814742 C21.9306925,118.814742 19.8132464,116.092312 18.7923348,111.895231 C17.7336117,109.929031 16.4480194,108.038454 15.1246155,106.790673 C11.9862578,103.690127 12.6668655,100.400523 12.5534309,99.9467845 C9.94443472,98.434323 11.7972001,94.9178499 11.7972001,94.9178499 C11.7972001,94.9178499 9.5285078,93.1785191 11.1165924,89.8889152 C11.8350117,88.3764536 13.2340386,87.7336575 13.2340386,87.7336575 C13.2340386,87.7336575 13.4230963,84.8977921 15.0489925,83.7256344 C18.1117271,81.5325651 19.5863771,81.9863036 19.5863771,81.9863036 C19.5863771,81.9863036 18.3007848,74.8399227 17.053004,72.4199842 C15.5027309,69.3950611 15.5405425,64.3661265 15.5405425,64.3661265 C15.5405425,64.3661265 12.2887501,63.0805341 11.154404,60.6605957 C10.6250424,59.488438 9.18820395,58.4675264 9.18820395,58.4675264 C9.18820395,58.4675264 6.88170007,56.8794418 6.04984622,55.631661 C4.42395005,53.2873456 4.99112313,48.4852801 4.99112313,48.4852801 C2.68461926,47.6912378 1.81495387,45.0066186 1.70151925,42.9647955 C1.66370771,41.7170147 0.529361544,41.1120301 0.945288472,38.3517877 C1.3612154,35.5537338 -2.0418231,30.6382338 2.68461926,26.2142837 Z" id="Shape" stroke="#E2E2E2" stroke-width="2.7884" fill="#E2E2E2" fill-rule="nonzero"></path>
                    <path d="M47.9072197,8.81054069 C47.9072197,8.81054069 60.0825353,-2.45729789 61.5949968,0.605436755 C61.5949968,0.605436755 62.729343,6.01248681 60.1581583,9.98269839 C57.5491622,13.95291 56.5660621,15.6544292 53.0874006,15.8812985 C53.0874006,15.8812985 52.2683415,12.5287231 51.1122207,11.3726023 C49.9560999,10.2164815 49.3780395,9.63842111 47.9072197,8.81054069 Z" id="Shape" stroke="#FFFFFF" stroke-width="2" fill="#FFFFFF" fill-rule="nonzero"></path>
                    <path d="M16.3723963,10.4220481 C16.3723963,10.4220481 10.0766705,6.89802553 6.71103098,0.0479591177 C6.71103098,0.0479591177 0.811262794,4.680663 3.78094477,10.936793 C6.75062674,17.192923 11.4361749,16.9974076 12.5448562,16.759833 C12.5448562,16.759833 11.9395188,14.9438207 13.1501937,13.1278084 C14.3608685,11.311796 16.3723963,10.4220481 16.3723963,10.4220481 Z" id="Shape" stroke="#FFFFFF" stroke-width="2" fill="#FFFFFF" fill-rule="nonzero"></path>
                    <path d="M33.4689438,93.7588258 C33.4689438,93.7588258 35.1338382,97.1698289 32.169514,98.1850084 C32.169514,98.1850084 30.9512986,102.367548 27.9463673,100.662046 C27.9463673,100.662046 24.1698996,96.6013284 27.2154381,93.4339683 C27.2154381,93.4339683 24.8602216,90.9163232 31.1137273,86.9774267" id="Shape" stroke="#CCCCCC" stroke-width="3" fill="#E2E2E2" fill-rule="nonzero"></path>
                    <path d="M26.8083811,122.115234 C26.8083811,122.720218 26.2790195,123.287391 25.7118464,123.287391 L22.4978656,123.287391 C21.892881,123.287391 21.401331,122.606784 21.4391425,122.001799 L21.4391425,121.28338 C21.4391425,120.678395 21.9685041,120.262468 22.5356772,120.262468 L25.749658,120.262468 C26.3546426,120.262468 26.8461926,120.79183 26.8083811,121.396814 L26.8083811,122.115234 Z" id="Shape" fill="#CCCCCC" fill-rule="nonzero"></path>
                    <path d="M41.1767658,122.115234 C41.1767658,122.720218 40.6474043,123.287391 40.0802312,123.287391 L36.8662504,123.287391 C36.2612658,123.287391 35.7697158,122.606784 35.8075273,122.039611 L35.8075273,121.321191 C35.8075273,120.716207 36.3368889,120.262468 36.9040619,120.262468 L40.1180427,120.262468 C40.7230274,120.262468 41.2145774,120.829641 41.1767658,121.396814 L41.1767658,122.115234 Z" id="Shape" fill="#CCCCCC" fill-rule="nonzero"></path>
                </g>
                <path d="M95.9460159,49.2675972 C95.9460159,49.2675972 93.7909922,68.4473078 71.1632438,65.645777" id="Path-2" stroke="#54C4B5" stroke-width="3" stroke-linecap="round" transform="translate(83.554630, 57.596453) rotate(4.000000) translate(-83.554630, -57.596453) "></path>
                <path d="M118.70421,31.528327 C117.775634,29.7783183 117.061356,28.5372593 116.561353,27.8051127 C115.320276,26.0015323 113.771184,24.5819036 111.914032,23.5461842 C111.610459,23.3765405 111.297962,23.2158278 110.976532,23.0640413 C110.181885,22.7068967 109.762246,22.564041 109.717603,22.6354699 C109.67296,22.7068988 109.824744,22.87654 110.17296,23.1443985 L110.695282,23.559577 C111.248856,23.9435075 111.751083,24.3609141 112.201978,24.8118092 C112.652873,25.2627043 113.074744,25.7827884 113.467603,26.372077 C113.860462,26.9613657 114.175191,27.4658249 114.4118,27.8854699 C114.648408,28.3051148 114.963137,28.8899304 115.355996,29.6399342 C115.436354,29.7917207 115.494389,29.9033267 115.530103,29.9747556 C115.922962,30.7247594 116.297959,31.4077882 116.655103,32.0238627 C117.012248,32.6399373 117.449743,33.3274304 117.967603,34.0863627 C118.485463,34.8452951 119.001083,35.5149313 119.514478,36.0952913 C120.027874,36.6756514 120.612689,37.2269851 121.268942,37.7493092 C121.925196,38.2716332 122.588136,38.675647 123.257782,38.9613627 C124.62386,39.5506514 125.311353,39.8185059 125.320282,39.7649342 C125.32921,39.7381483 125.110463,39.5729714 124.664032,39.2693985 C124.190815,38.9479683 123.829212,38.6935065 123.57921,38.5060056 C122.891707,37.9881459 122.092608,37.046191 121.181889,35.6801127 C120.27117,34.3140345 119.445285,32.9301198 118.70421,31.528327 Z M114.056889,38.8006485 C113.378314,38.2649315 112.786802,37.7069014 112.282335,37.1265413 C111.777869,36.5461813 111.340373,35.9055627 110.969835,35.2046663 C110.599298,34.50377 110.282337,33.8140447 110.018942,33.1354699 C109.755548,32.4568951 109.49439,31.6265462 109.23546,30.6443985 C108.97653,29.6622507 108.74439,28.7292243 108.539032,27.8452913 C108.333674,26.9613583 108.063587,25.8363696 107.728764,24.4702913 C107.393941,23.1042131 107.052426,21.8140474 106.70421,20.5997556 C109.141723,20.5997556 111.362682,20.7604683 113.367157,21.0818985 C115.371631,21.4033286 117.063578,21.8140388 118.44305,22.3140413 C119.822521,22.8140438 121.03233,23.4591267 122.072514,24.2493092 C123.112698,25.0394917 123.940814,25.8095733 124.556889,26.559577 C125.172963,27.3095808 125.66403,28.1957326 126.030103,29.2180592 C126.396176,30.2403857 126.646174,31.1310018 126.780103,31.8899342 C126.914032,32.6488665 126.969835,33.5350184 126.947514,34.5484163 C126.925192,35.5618142 126.882782,36.334128 126.820282,36.8653806 C126.757781,37.3966333 126.668497,38.0372519 126.552425,38.7872556 C126.436353,39.5372594 126.378317,40.0149332 126.378317,40.2202913 L130.70421,44.5997556 L129.311353,44.5997556 L125.54796,40.7827913 C125.351531,40.8006486 124.943053,40.8631479 124.322514,40.9702913 C123.701975,41.0774347 123.15957,41.1622553 122.695282,41.2247556 C122.230994,41.2872559 121.614928,41.3140414 120.847067,41.3051127 C120.079207,41.2961841 119.362696,41.220292 118.697514,41.0774342 C118.032332,40.9345763 117.284572,40.6711861 116.45421,40.2872556 C115.623849,39.9033251 114.82475,39.4077944 114.056889,38.8006485 Z" id="envira---fontawesome" fill="#54C4B5" fill-rule="evenodd" transform="translate(118.704210, 32.599756) scale(-1, -1) translate(-118.704210, -32.599756) "></path>
                <path d="M105.80057,40.3752999 C105.80057,40.3752999 104.052643,44.9080682 100.483234,46.9718793" id="Path-2" stroke="#54C4B5" stroke-width="3" stroke-linecap="round" transform="translate(103.141902, 43.673590) rotate(9.000000) translate(-103.141902, -43.673590) "></path>
            </g>
        </g>
    </g>
</svg>